<?xml version="1.0" encoding="utf-8" standalone="no"?>
<!DOCTYPE svg PUBLIC "-//W3C//DTD SVG 1.1//EN"
  "http://www.w3.org/Graphics/SVG/1.1/DTD/svg11.dtd">
<!-- Created with matplotlib (http://matplotlib.org/) -->
<svg height="514pt" version="1.1" viewBox="0 0 748 514" width="748pt" xmlns="http://www.w3.org/2000/svg" xmlns:xlink="http://www.w3.org/1999/xlink">
 <defs>
  <style type="text/css">
*{stroke-linecap:butt;stroke-linejoin:round;stroke-miterlimit:100000;}
  </style>
 </defs>
 <g id="figure_1">
  <g id="patch_1">
   <path d="M 0 514.8 
L 748.8 514.8 
L 748.8 0 
L 0 0 
z
" style="fill:#ffffff;"/>
  </g>
  <g id="axes_1">
   <g id="patch_2">
    <path d="M 93.6 450.45 
L 673.92 450.45 
L 673.92 51.48 
L 93.6 51.48 
z
" style="fill:#eaeaf2;"/>
   </g>
   <g id="matplotlib.axis_1">
    <g id="xtick_1">
     <g id="line2d_1">
      <defs>
       <path d="M 0 0 
L 0 0 
" id="mb0cd004c72" style="stroke:#262626;stroke-width:1.3;"/>
      </defs>
      <g>
       <use style="fill:#262626;stroke:#262626;stroke-width:1.3;" x="190.32" xlink:href="#mb0cd004c72" y="450.45"/>
      </g>
     </g>
     <g id="line2d_2">
      <g>
       <use style="fill:#262626;stroke:#262626;stroke-width:1.3;" x="190.32" xlink:href="#mb0cd004c72" y="51.48"/>
      </g>
     </g>
     <g id="text_1">
      <!-- max -->
      <defs>
       <path d="M 6.59375 0 
L 6.59375 51.859375 
L 14.453125 51.859375 
L 14.453125 44.578125 
Q 16.890625 48.390625 20.9375 50.703125 
Q 25 53.03125 30.171875 53.03125 
Q 35.9375 53.03125 39.625 50.640625 
Q 43.3125 48.25 44.828125 43.953125 
Q 50.984375 53.03125 60.84375 53.03125 
Q 68.5625 53.03125 72.703125 48.75 
Q 76.859375 44.484375 76.859375 35.59375 
L 76.859375 0 
L 68.109375 0 
L 68.109375 32.671875 
Q 68.109375 37.9375 67.25 40.25 
Q 66.40625 42.578125 64.15625 43.984375 
Q 61.921875 45.40625 58.890625 45.40625 
Q 53.421875 45.40625 49.796875 41.765625 
Q 46.1875 38.140625 46.1875 30.125 
L 46.1875 0 
L 37.40625 0 
L 37.40625 33.6875 
Q 37.40625 39.546875 35.25 42.46875 
Q 33.109375 45.40625 28.21875 45.40625 
Q 24.515625 45.40625 21.359375 43.453125 
Q 18.21875 41.5 16.796875 37.734375 
Q 15.375 33.984375 15.375 26.90625 
L 15.375 0 
z
" id="ArialMT-6d"/>
       <path d="M 0.734375 0 
L 19.671875 26.953125 
L 2.15625 51.859375 
L 13.140625 51.859375 
L 21.09375 39.703125 
Q 23.34375 36.234375 24.703125 33.890625 
Q 26.859375 37.109375 28.65625 39.59375 
L 37.40625 51.859375 
L 47.90625 51.859375 
L 29.984375 27.4375 
L 49.265625 0 
L 38.484375 0 
L 27.828125 16.109375 
L 25 20.453125 
L 11.375 0 
z
" id="ArialMT-78"/>
       <path d="M 40.4375 6.390625 
Q 35.546875 2.25 31.03125 0.53125 
Q 26.515625 -1.171875 21.34375 -1.171875 
Q 12.796875 -1.171875 8.203125 3 
Q 3.609375 7.171875 3.609375 13.671875 
Q 3.609375 17.484375 5.34375 20.625 
Q 7.078125 23.78125 9.890625 25.6875 
Q 12.703125 27.59375 16.21875 28.5625 
Q 18.796875 29.25 24.03125 29.890625 
Q 34.671875 31.15625 39.703125 32.90625 
Q 39.75 34.71875 39.75 35.203125 
Q 39.75 40.578125 37.25 42.78125 
Q 33.890625 45.75 27.25 45.75 
Q 21.046875 45.75 18.09375 43.578125 
Q 15.140625 41.40625 13.71875 35.890625 
L 5.125 37.0625 
Q 6.296875 42.578125 8.984375 45.96875 
Q 11.671875 49.359375 16.75 51.1875 
Q 21.828125 53.03125 28.515625 53.03125 
Q 35.15625 53.03125 39.296875 51.46875 
Q 43.453125 49.90625 45.40625 47.53125 
Q 47.359375 45.171875 48.140625 41.546875 
Q 48.578125 39.3125 48.578125 33.453125 
L 48.578125 21.734375 
Q 48.578125 9.46875 49.140625 6.21875 
Q 49.703125 2.984375 51.375 0 
L 42.1875 0 
Q 40.828125 2.734375 40.4375 6.390625 
M 39.703125 26.03125 
Q 34.90625 24.078125 25.34375 22.703125 
Q 19.921875 21.921875 17.671875 20.9375 
Q 15.4375 19.96875 14.203125 18.09375 
Q 12.984375 16.21875 12.984375 13.921875 
Q 12.984375 10.40625 15.640625 8.0625 
Q 18.3125 5.71875 23.4375 5.71875 
Q 28.515625 5.71875 32.46875 7.9375 
Q 36.421875 10.15625 38.28125 14.015625 
Q 39.703125 17 39.703125 22.796875 
z
" id="ArialMT-61"/>
      </defs>
      <g style="fill:#262626;" transform="translate(178.04109375 468.85515625)scale(0.13 -0.13)">
       <use xlink:href="#ArialMT-6d"/>
       <use x="83.30078125" xlink:href="#ArialMT-61"/>
       <use x="138.916015625" xlink:href="#ArialMT-78"/>
      </g>
     </g>
    </g>
    <g id="xtick_2">
     <g id="line2d_3">
      <g>
       <use style="fill:#262626;stroke:#262626;stroke-width:1.3;" x="383.76" xlink:href="#mb0cd004c72" y="450.45"/>
      </g>
     </g>
     <g id="line2d_4">
      <g>
       <use style="fill:#262626;stroke:#262626;stroke-width:1.3;" x="383.76" xlink:href="#mb0cd004c72" y="51.48"/>
      </g>
     </g>
     <g id="text_2">
      <!-- rnd -->
      <defs>
       <path d="M 40.234375 0 
L 40.234375 6.546875 
Q 35.296875 -1.171875 25.734375 -1.171875 
Q 19.53125 -1.171875 14.328125 2.25 
Q 9.125 5.671875 6.265625 11.796875 
Q 3.421875 17.921875 3.421875 25.875 
Q 3.421875 33.640625 6 39.96875 
Q 8.59375 46.296875 13.765625 49.65625 
Q 18.953125 53.03125 25.34375 53.03125 
Q 30.03125 53.03125 33.6875 51.046875 
Q 37.359375 49.078125 39.65625 45.90625 
L 39.65625 71.578125 
L 48.390625 71.578125 
L 48.390625 0 
z
M 12.453125 25.875 
Q 12.453125 15.921875 16.640625 10.984375 
Q 20.84375 6.0625 26.5625 6.0625 
Q 32.328125 6.0625 36.34375 10.765625 
Q 40.375 15.484375 40.375 25.140625 
Q 40.375 35.796875 36.265625 40.765625 
Q 32.171875 45.75 26.171875 45.75 
Q 20.3125 45.75 16.375 40.96875 
Q 12.453125 36.1875 12.453125 25.875 
" id="ArialMT-64"/>
       <path d="M 6.5 0 
L 6.5 51.859375 
L 14.40625 51.859375 
L 14.40625 44 
Q 17.4375 49.515625 20 51.265625 
Q 22.5625 53.03125 25.640625 53.03125 
Q 30.078125 53.03125 34.671875 50.203125 
L 31.640625 42.046875 
Q 28.421875 43.953125 25.203125 43.953125 
Q 22.3125 43.953125 20.015625 42.21875 
Q 17.71875 40.484375 16.75 37.40625 
Q 15.28125 32.71875 15.28125 27.15625 
L 15.28125 0 
z
" id="ArialMT-72"/>
       <path d="M 6.59375 0 
L 6.59375 51.859375 
L 14.5 51.859375 
L 14.5 44.484375 
Q 20.21875 53.03125 31 53.03125 
Q 35.6875 53.03125 39.625 51.34375 
Q 43.5625 49.65625 45.515625 46.921875 
Q 47.46875 44.1875 48.25 40.4375 
Q 48.734375 37.984375 48.734375 31.890625 
L 48.734375 0 
L 39.9375 0 
L 39.9375 31.546875 
Q 39.9375 36.921875 38.90625 39.578125 
Q 37.890625 42.234375 35.28125 43.8125 
Q 32.671875 45.40625 29.15625 45.40625 
Q 23.53125 45.40625 19.453125 41.84375 
Q 15.375 38.28125 15.375 28.328125 
L 15.375 0 
z
" id="ArialMT-6e"/>
      </defs>
      <g style="fill:#262626;" transform="translate(374.366484375 468.85515625)scale(0.13 -0.13)">
       <use xlink:href="#ArialMT-72"/>
       <use x="33.30078125" xlink:href="#ArialMT-6e"/>
       <use x="88.916015625" xlink:href="#ArialMT-64"/>
      </g>
     </g>
    </g>
    <g id="xtick_3">
     <g id="line2d_5">
      <g>
       <use style="fill:#262626;stroke:#262626;stroke-width:1.3;" x="577.2" xlink:href="#mb0cd004c72" y="450.45"/>
      </g>
     </g>
     <g id="line2d_6">
      <g>
       <use style="fill:#262626;stroke:#262626;stroke-width:1.3;" x="577.2" xlink:href="#mb0cd004c72" y="51.48"/>
      </g>
     </g>
     <g id="text_3">
      <!-- min -->
      <defs>
       <path d="M 6.640625 61.46875 
L 6.640625 71.578125 
L 15.4375 71.578125 
L 15.4375 61.46875 
z
M 6.640625 0 
L 6.640625 51.859375 
L 15.4375 51.859375 
L 15.4375 0 
z
" id="ArialMT-69"/>
      </defs>
      <g style="fill:#262626;" transform="translate(566.726875 468.85515625)scale(0.13 -0.13)">
       <use xlink:href="#ArialMT-6d"/>
       <use x="83.30078125" xlink:href="#ArialMT-69"/>
       <use x="105.517578125" xlink:href="#ArialMT-6e"/>
      </g>
     </g>
    </g>
    <g id="text_4">
     <!-- Strategie -->
     <defs>
      <path d="M 4.984375 -4.296875 
L 13.53125 -5.5625 
Q 14.0625 -9.515625 16.5 -11.328125 
Q 19.78125 -13.765625 25.4375 -13.765625 
Q 31.546875 -13.765625 34.859375 -11.328125 
Q 38.1875 -8.890625 39.359375 -4.5 
Q 40.046875 -1.8125 39.984375 6.78125 
Q 34.234375 0 25.640625 0 
Q 14.9375 0 9.078125 7.71875 
Q 3.21875 15.4375 3.21875 26.21875 
Q 3.21875 33.640625 5.90625 39.90625 
Q 8.59375 46.1875 13.6875 49.609375 
Q 18.796875 53.03125 25.6875 53.03125 
Q 34.859375 53.03125 40.828125 45.609375 
L 40.828125 51.859375 
L 48.921875 51.859375 
L 48.921875 7.03125 
Q 48.921875 -5.078125 46.453125 -10.125 
Q 44 -15.1875 38.640625 -18.109375 
Q 33.296875 -21.046875 25.484375 -21.046875 
Q 16.21875 -21.046875 10.5 -16.875 
Q 4.78125 -12.703125 4.984375 -4.296875 
M 12.25 26.859375 
Q 12.25 16.65625 16.296875 11.96875 
Q 20.359375 7.28125 26.46875 7.28125 
Q 32.515625 7.28125 36.609375 11.9375 
Q 40.71875 16.609375 40.71875 26.5625 
Q 40.71875 36.078125 36.5 40.90625 
Q 32.28125 45.75 26.3125 45.75 
Q 20.453125 45.75 16.34375 40.984375 
Q 12.25 36.234375 12.25 26.859375 
" id="ArialMT-67"/>
      <path d="M 42.09375 16.703125 
L 51.171875 15.578125 
Q 49.03125 7.625 43.21875 3.21875 
Q 37.40625 -1.171875 28.375 -1.171875 
Q 17 -1.171875 10.328125 5.828125 
Q 3.65625 12.84375 3.65625 25.484375 
Q 3.65625 38.578125 10.390625 45.796875 
Q 17.140625 53.03125 27.875 53.03125 
Q 38.28125 53.03125 44.875 45.953125 
Q 51.46875 38.875 51.46875 26.03125 
Q 51.46875 25.25 51.421875 23.6875 
L 12.75 23.6875 
Q 13.234375 15.140625 17.578125 10.59375 
Q 21.921875 6.0625 28.421875 6.0625 
Q 33.25 6.0625 36.671875 8.59375 
Q 40.09375 11.140625 42.09375 16.703125 
M 13.234375 30.90625 
L 42.1875 30.90625 
Q 41.609375 37.453125 38.875 40.71875 
Q 34.671875 45.796875 27.984375 45.796875 
Q 21.921875 45.796875 17.796875 41.75 
Q 13.671875 37.703125 13.234375 30.90625 
" id="ArialMT-65"/>
      <path d="M 25.78125 7.859375 
L 27.046875 0.09375 
Q 23.34375 -0.6875 20.40625 -0.6875 
Q 15.625 -0.6875 12.984375 0.828125 
Q 10.359375 2.34375 9.28125 4.8125 
Q 8.203125 7.28125 8.203125 15.1875 
L 8.203125 45.015625 
L 1.765625 45.015625 
L 1.765625 51.859375 
L 8.203125 51.859375 
L 8.203125 64.703125 
L 16.9375 69.96875 
L 16.9375 51.859375 
L 25.78125 51.859375 
L 25.78125 45.015625 
L 16.9375 45.015625 
L 16.9375 14.703125 
Q 16.9375 10.9375 17.40625 9.859375 
Q 17.875 8.796875 18.921875 8.15625 
Q 19.96875 7.515625 21.921875 7.515625 
Q 23.390625 7.515625 25.78125 7.859375 
" id="ArialMT-74"/>
      <path d="M 4.5 23 
L 13.421875 23.78125 
Q 14.0625 18.40625 16.375 14.96875 
Q 18.703125 11.53125 23.578125 9.40625 
Q 28.46875 7.28125 34.578125 7.28125 
Q 39.984375 7.28125 44.140625 8.890625 
Q 48.296875 10.5 50.3125 13.296875 
Q 52.34375 16.109375 52.34375 19.4375 
Q 52.34375 22.796875 50.390625 25.3125 
Q 48.4375 27.828125 43.953125 29.546875 
Q 41.0625 30.671875 31.203125 33.03125 
Q 21.34375 35.40625 17.390625 37.5 
Q 12.25 40.1875 9.734375 44.15625 
Q 7.234375 48.140625 7.234375 53.078125 
Q 7.234375 58.5 10.296875 63.203125 
Q 13.375 67.921875 19.28125 70.359375 
Q 25.203125 72.796875 32.421875 72.796875 
Q 40.375 72.796875 46.453125 70.234375 
Q 52.546875 67.671875 55.8125 62.6875 
Q 59.078125 57.71875 59.328125 51.421875 
L 50.25 50.734375 
Q 49.515625 57.515625 45.28125 60.984375 
Q 41.0625 64.453125 32.8125 64.453125 
Q 24.21875 64.453125 20.28125 61.296875 
Q 16.359375 58.15625 16.359375 53.71875 
Q 16.359375 49.859375 19.140625 47.359375 
Q 21.875 44.875 33.421875 42.265625 
Q 44.96875 39.65625 49.265625 37.703125 
Q 55.515625 34.8125 58.484375 30.390625 
Q 61.46875 25.984375 61.46875 20.21875 
Q 61.46875 14.5 58.203125 9.4375 
Q 54.9375 4.390625 48.796875 1.578125 
Q 42.671875 -1.21875 35.015625 -1.21875 
Q 25.296875 -1.21875 18.71875 1.609375 
Q 12.15625 4.4375 8.421875 10.125 
Q 4.6875 15.828125 4.5 23 
" id="ArialMT-53"/>
     </defs>
     <g style="fill:#262626;" transform="translate(355.144359375 486.848859375)scale(0.14300000000000002 -0.14300000000000002)">
      <use xlink:href="#ArialMT-53"/>
      <use x="66.69921875" xlink:href="#ArialMT-74"/>
      <use x="94.482421875" xlink:href="#ArialMT-72"/>
      <use x="127.783203125" xlink:href="#ArialMT-61"/>
      <use x="183.3984375" xlink:href="#ArialMT-74"/>
      <use x="211.181640625" xlink:href="#ArialMT-65"/>
      <use x="266.796875" xlink:href="#ArialMT-67"/>
      <use x="322.412109375" xlink:href="#ArialMT-69"/>
      <use x="344.62890625" xlink:href="#ArialMT-65"/>
     </g>
    </g>
   </g>
   <g id="matplotlib.axis_2">
    <g id="ytick_1">
     <g id="line2d_7">
      <path clip-path="url(#pe1cb467739)" d="M 93.6 450.45 
L 673.92 450.45 
" style="fill:none;stroke:#ffffff;stroke-linecap:round;stroke-width:1.3;"/>
     </g>
     <g id="line2d_8">
      <g>
       <use style="fill:#262626;stroke:#262626;stroke-width:1.3;" x="93.6" xlink:href="#mb0cd004c72" y="450.45"/>
      </g>
     </g>
     <g id="line2d_9">
      <g>
       <use style="fill:#262626;stroke:#262626;stroke-width:1.3;" x="673.92" xlink:href="#mb0cd004c72" y="450.45"/>
      </g>
     </g>
     <g id="text_5">
      <!-- 0 -->
      <defs>
       <path d="M 4.15625 35.296875 
Q 4.15625 48 6.765625 55.734375 
Q 9.375 63.484375 14.515625 67.671875 
Q 19.671875 71.875 27.484375 71.875 
Q 33.25 71.875 37.59375 69.546875 
Q 41.9375 67.234375 44.765625 62.859375 
Q 47.609375 58.5 49.21875 52.21875 
Q 50.828125 45.953125 50.828125 35.296875 
Q 50.828125 22.703125 48.234375 14.96875 
Q 45.65625 7.234375 40.5 3 
Q 35.359375 -1.21875 27.484375 -1.21875 
Q 17.140625 -1.21875 11.234375 6.203125 
Q 4.15625 15.140625 4.15625 35.296875 
M 13.1875 35.296875 
Q 13.1875 17.671875 17.3125 11.828125 
Q 21.4375 6 27.484375 6 
Q 33.546875 6 37.671875 11.859375 
Q 41.796875 17.71875 41.796875 35.296875 
Q 41.796875 52.984375 37.671875 58.78125 
Q 33.546875 64.59375 27.390625 64.59375 
Q 21.34375 64.59375 17.71875 59.46875 
Q 13.1875 52.9375 13.1875 35.296875 
" id="ArialMT-30"/>
      </defs>
      <g style="fill:#262626;" transform="translate(77.27078125 453.810703125)scale(0.13 -0.13)">
       <use xlink:href="#ArialMT-30"/>
      </g>
     </g>
    </g>
    <g id="ytick_2">
     <g id="line2d_10">
      <path clip-path="url(#pe1cb467739)" d="M 93.6 406.12 
L 673.92 406.12 
" style="fill:none;stroke:#ffffff;stroke-linecap:round;stroke-width:1.3;"/>
     </g>
     <g id="line2d_11">
      <g>
       <use style="fill:#262626;stroke:#262626;stroke-width:1.3;" x="93.6" xlink:href="#mb0cd004c72" y="406.12"/>
      </g>
     </g>
     <g id="line2d_12">
      <g>
       <use style="fill:#262626;stroke:#262626;stroke-width:1.3;" x="673.92" xlink:href="#mb0cd004c72" y="406.12"/>
      </g>
     </g>
     <g id="text_6">
      <!-- 10 -->
      <defs>
       <path d="M 37.25 0 
L 28.46875 0 
L 28.46875 56 
Q 25.296875 52.984375 20.140625 49.953125 
Q 14.984375 46.921875 10.890625 45.40625 
L 10.890625 53.90625 
Q 18.265625 57.375 23.78125 62.296875 
Q 29.296875 67.234375 31.59375 71.875 
L 37.25 71.875 
z
" id="ArialMT-31"/>
      </defs>
      <g style="fill:#262626;" transform="translate(70.0415625 409.480703125)scale(0.13 -0.13)">
       <use xlink:href="#ArialMT-31"/>
       <use x="55.615234375" xlink:href="#ArialMT-30"/>
      </g>
     </g>
    </g>
    <g id="ytick_3">
     <g id="line2d_13">
      <path clip-path="url(#pe1cb467739)" d="M 93.6 361.79 
L 673.92 361.79 
" style="fill:none;stroke:#ffffff;stroke-linecap:round;stroke-width:1.3;"/>
     </g>
     <g id="line2d_14">
      <g>
       <use style="fill:#262626;stroke:#262626;stroke-width:1.3;" x="93.6" xlink:href="#mb0cd004c72" y="361.79"/>
      </g>
     </g>
     <g id="line2d_15">
      <g>
       <use style="fill:#262626;stroke:#262626;stroke-width:1.3;" x="673.92" xlink:href="#mb0cd004c72" y="361.79"/>
      </g>
     </g>
     <g id="text_7">
      <!-- 20 -->
      <defs>
       <path d="M 50.34375 8.453125 
L 50.34375 0 
L 3.03125 0 
Q 2.9375 3.171875 4.046875 6.109375 
Q 5.859375 10.9375 9.828125 15.625 
Q 13.8125 20.3125 21.34375 26.46875 
Q 33.015625 36.03125 37.109375 41.625 
Q 41.21875 47.21875 41.21875 52.203125 
Q 41.21875 57.421875 37.46875 61 
Q 33.734375 64.59375 27.734375 64.59375 
Q 21.390625 64.59375 17.578125 60.78125 
Q 13.765625 56.984375 13.71875 50.25 
L 4.6875 51.171875 
Q 5.609375 61.28125 11.65625 66.578125 
Q 17.71875 71.875 27.9375 71.875 
Q 38.234375 71.875 44.234375 66.15625 
Q 50.25 60.453125 50.25 52 
Q 50.25 47.703125 48.484375 43.546875 
Q 46.734375 39.40625 42.65625 34.8125 
Q 38.578125 30.21875 29.109375 22.21875 
Q 21.1875 15.578125 18.9375 13.203125 
Q 16.703125 10.84375 15.234375 8.453125 
z
" id="ArialMT-32"/>
      </defs>
      <g style="fill:#262626;" transform="translate(70.0415625 365.150703125)scale(0.13 -0.13)">
       <use xlink:href="#ArialMT-32"/>
       <use x="55.615234375" xlink:href="#ArialMT-30"/>
      </g>
     </g>
    </g>
    <g id="ytick_4">
     <g id="line2d_16">
      <path clip-path="url(#pe1cb467739)" d="M 93.6 317.46 
L 673.92 317.46 
" style="fill:none;stroke:#ffffff;stroke-linecap:round;stroke-width:1.3;"/>
     </g>
     <g id="line2d_17">
      <g>
       <use style="fill:#262626;stroke:#262626;stroke-width:1.3;" x="93.6" xlink:href="#mb0cd004c72" y="317.46"/>
      </g>
     </g>
     <g id="line2d_18">
      <g>
       <use style="fill:#262626;stroke:#262626;stroke-width:1.3;" x="673.92" xlink:href="#mb0cd004c72" y="317.46"/>
      </g>
     </g>
     <g id="text_8">
      <!-- 30 -->
      <defs>
       <path d="M 4.203125 18.890625 
L 12.984375 20.0625 
Q 14.5 12.59375 18.140625 9.296875 
Q 21.78125 6 27 6 
Q 33.203125 6 37.46875 10.296875 
Q 41.75 14.59375 41.75 20.953125 
Q 41.75 27 37.796875 30.921875 
Q 33.84375 34.859375 27.734375 34.859375 
Q 25.25 34.859375 21.53125 33.890625 
L 22.515625 41.609375 
Q 23.390625 41.5 23.921875 41.5 
Q 29.546875 41.5 34.03125 44.421875 
Q 38.53125 47.359375 38.53125 53.46875 
Q 38.53125 58.296875 35.25 61.46875 
Q 31.984375 64.65625 26.8125 64.65625 
Q 21.6875 64.65625 18.265625 61.421875 
Q 14.84375 58.203125 13.875 51.765625 
L 5.078125 53.328125 
Q 6.6875 62.15625 12.390625 67.015625 
Q 18.109375 71.875 26.609375 71.875 
Q 32.46875 71.875 37.390625 69.359375 
Q 42.328125 66.84375 44.9375 62.5 
Q 47.5625 58.15625 47.5625 53.265625 
Q 47.5625 48.640625 45.0625 44.828125 
Q 42.578125 41.015625 37.703125 38.765625 
Q 44.046875 37.3125 47.5625 32.6875 
Q 51.078125 28.078125 51.078125 21.140625 
Q 51.078125 11.765625 44.234375 5.25 
Q 37.40625 -1.265625 26.953125 -1.265625 
Q 17.53125 -1.265625 11.296875 4.34375 
Q 5.078125 9.96875 4.203125 18.890625 
" id="ArialMT-33"/>
      </defs>
      <g style="fill:#262626;" transform="translate(70.0415625 320.820703125)scale(0.13 -0.13)">
       <use xlink:href="#ArialMT-33"/>
       <use x="55.615234375" xlink:href="#ArialMT-30"/>
      </g>
     </g>
    </g>
    <g id="ytick_5">
     <g id="line2d_19">
      <path clip-path="url(#pe1cb467739)" d="M 93.6 273.13 
L 673.92 273.13 
" style="fill:none;stroke:#ffffff;stroke-linecap:round;stroke-width:1.3;"/>
     </g>
     <g id="line2d_20">
      <g>
       <use style="fill:#262626;stroke:#262626;stroke-width:1.3;" x="93.6" xlink:href="#mb0cd004c72" y="273.13"/>
      </g>
     </g>
     <g id="line2d_21">
      <g>
       <use style="fill:#262626;stroke:#262626;stroke-width:1.3;" x="673.92" xlink:href="#mb0cd004c72" y="273.13"/>
      </g>
     </g>
     <g id="text_9">
      <!-- 40 -->
      <defs>
       <path d="M 32.328125 0 
L 32.328125 17.140625 
L 1.265625 17.140625 
L 1.265625 25.203125 
L 33.9375 71.578125 
L 41.109375 71.578125 
L 41.109375 25.203125 
L 50.78125 25.203125 
L 50.78125 17.140625 
L 41.109375 17.140625 
L 41.109375 0 
z
M 32.328125 25.203125 
L 32.328125 57.46875 
L 9.90625 25.203125 
z
" id="ArialMT-34"/>
      </defs>
      <g style="fill:#262626;" transform="translate(70.0415625 276.490703125)scale(0.13 -0.13)">
       <use xlink:href="#ArialMT-34"/>
       <use x="55.615234375" xlink:href="#ArialMT-30"/>
      </g>
     </g>
    </g>
    <g id="ytick_6">
     <g id="line2d_22">
      <path clip-path="url(#pe1cb467739)" d="M 93.6 228.8 
L 673.92 228.8 
" style="fill:none;stroke:#ffffff;stroke-linecap:round;stroke-width:1.3;"/>
     </g>
     <g id="line2d_23">
      <g>
       <use style="fill:#262626;stroke:#262626;stroke-width:1.3;" x="93.6" xlink:href="#mb0cd004c72" y="228.8"/>
      </g>
     </g>
     <g id="line2d_24">
      <g>
       <use style="fill:#262626;stroke:#262626;stroke-width:1.3;" x="673.92" xlink:href="#mb0cd004c72" y="228.8"/>
      </g>
     </g>
     <g id="text_10">
      <!-- 50 -->
      <defs>
       <path d="M 4.15625 18.75 
L 13.375 19.53125 
Q 14.40625 12.796875 18.140625 9.390625 
Q 21.875 6 27.15625 6 
Q 33.5 6 37.890625 10.78125 
Q 42.28125 15.578125 42.28125 23.484375 
Q 42.28125 31 38.0625 35.34375 
Q 33.84375 39.703125 27 39.703125 
Q 22.75 39.703125 19.328125 37.765625 
Q 15.921875 35.84375 13.96875 32.765625 
L 5.71875 33.84375 
L 12.640625 70.609375 
L 48.25 70.609375 
L 48.25 62.203125 
L 19.671875 62.203125 
L 15.828125 42.96875 
Q 22.265625 47.46875 29.34375 47.46875 
Q 38.71875 47.46875 45.15625 40.96875 
Q 51.609375 34.46875 51.609375 24.265625 
Q 51.609375 14.546875 45.953125 7.46875 
Q 39.0625 -1.21875 27.15625 -1.21875 
Q 17.390625 -1.21875 11.203125 4.25 
Q 5.03125 9.71875 4.15625 18.75 
" id="ArialMT-35"/>
      </defs>
      <g style="fill:#262626;" transform="translate(70.0415625 232.160703125)scale(0.13 -0.13)">
       <use xlink:href="#ArialMT-35"/>
       <use x="55.615234375" xlink:href="#ArialMT-30"/>
      </g>
     </g>
    </g>
    <g id="ytick_7">
     <g id="line2d_25">
      <path clip-path="url(#pe1cb467739)" d="M 93.6 184.47 
L 673.92 184.47 
" style="fill:none;stroke:#ffffff;stroke-linecap:round;stroke-width:1.3;"/>
     </g>
     <g id="line2d_26">
      <g>
       <use style="fill:#262626;stroke:#262626;stroke-width:1.3;" x="93.6" xlink:href="#mb0cd004c72" y="184.47"/>
      </g>
     </g>
     <g id="line2d_27">
      <g>
       <use style="fill:#262626;stroke:#262626;stroke-width:1.3;" x="673.92" xlink:href="#mb0cd004c72" y="184.47"/>
      </g>
     </g>
     <g id="text_11">
      <!-- 60 -->
      <defs>
       <path d="M 49.75 54.046875 
L 41.015625 53.375 
Q 39.84375 58.546875 37.703125 60.890625 
Q 34.125 64.65625 28.90625 64.65625 
Q 24.703125 64.65625 21.53125 62.3125 
Q 17.390625 59.28125 14.984375 53.46875 
Q 12.59375 47.65625 12.5 36.921875 
Q 15.671875 41.75 20.265625 44.09375 
Q 24.859375 46.4375 29.890625 46.4375 
Q 38.671875 46.4375 44.84375 39.96875 
Q 51.03125 33.5 51.03125 23.25 
Q 51.03125 16.5 48.125 10.71875 
Q 45.21875 4.9375 40.140625 1.859375 
Q 35.0625 -1.21875 28.609375 -1.21875 
Q 17.625 -1.21875 10.6875 6.859375 
Q 3.765625 14.9375 3.765625 33.5 
Q 3.765625 54.25 11.421875 63.671875 
Q 18.109375 71.875 29.4375 71.875 
Q 37.890625 71.875 43.28125 67.140625 
Q 48.6875 62.40625 49.75 54.046875 
M 13.875 23.1875 
Q 13.875 18.65625 15.796875 14.5 
Q 17.71875 10.359375 21.1875 8.171875 
Q 24.65625 6 28.46875 6 
Q 34.03125 6 38.03125 10.484375 
Q 42.046875 14.984375 42.046875 22.703125 
Q 42.046875 30.125 38.078125 34.390625 
Q 34.125 38.671875 28.125 38.671875 
Q 22.171875 38.671875 18.015625 34.390625 
Q 13.875 30.125 13.875 23.1875 
" id="ArialMT-36"/>
      </defs>
      <g style="fill:#262626;" transform="translate(70.0415625 187.830703125)scale(0.13 -0.13)">
       <use xlink:href="#ArialMT-36"/>
       <use x="55.615234375" xlink:href="#ArialMT-30"/>
      </g>
     </g>
    </g>
    <g id="ytick_8">
     <g id="line2d_28">
      <path clip-path="url(#pe1cb467739)" d="M 93.6 140.14 
L 673.92 140.14 
" style="fill:none;stroke:#ffffff;stroke-linecap:round;stroke-width:1.3;"/>
     </g>
     <g id="line2d_29">
      <g>
       <use style="fill:#262626;stroke:#262626;stroke-width:1.3;" x="93.6" xlink:href="#mb0cd004c72" y="140.14"/>
      </g>
     </g>
     <g id="line2d_30">
      <g>
       <use style="fill:#262626;stroke:#262626;stroke-width:1.3;" x="673.92" xlink:href="#mb0cd004c72" y="140.14"/>
      </g>
     </g>
     <g id="text_12">
      <!-- 70 -->
      <defs>
       <path d="M 4.734375 62.203125 
L 4.734375 70.65625 
L 51.078125 70.65625 
L 51.078125 63.8125 
Q 44.234375 56.546875 37.515625 44.484375 
Q 30.8125 32.421875 27.15625 19.671875 
Q 24.515625 10.6875 23.78125 0 
L 14.75 0 
Q 14.890625 8.453125 18.0625 20.40625 
Q 21.234375 32.375 27.171875 43.484375 
Q 33.109375 54.59375 39.796875 62.203125 
z
" id="ArialMT-37"/>
      </defs>
      <g style="fill:#262626;" transform="translate(70.0415625 143.500703125)scale(0.13 -0.13)">
       <use xlink:href="#ArialMT-37"/>
       <use x="55.615234375" xlink:href="#ArialMT-30"/>
      </g>
     </g>
    </g>
    <g id="ytick_9">
     <g id="line2d_31">
      <path clip-path="url(#pe1cb467739)" d="M 93.6 95.81 
L 673.92 95.81 
" style="fill:none;stroke:#ffffff;stroke-linecap:round;stroke-width:1.3;"/>
     </g>
     <g id="line2d_32">
      <g>
       <use style="fill:#262626;stroke:#262626;stroke-width:1.3;" x="93.6" xlink:href="#mb0cd004c72" y="95.81"/>
      </g>
     </g>
     <g id="line2d_33">
      <g>
       <use style="fill:#262626;stroke:#262626;stroke-width:1.3;" x="673.92" xlink:href="#mb0cd004c72" y="95.81"/>
      </g>
     </g>
     <g id="text_13">
      <!-- 80 -->
      <defs>
       <path d="M 17.671875 38.8125 
Q 12.203125 40.828125 9.5625 44.53125 
Q 6.9375 48.25 6.9375 53.421875 
Q 6.9375 61.234375 12.546875 66.546875 
Q 18.171875 71.875 27.484375 71.875 
Q 36.859375 71.875 42.578125 66.421875 
Q 48.296875 60.984375 48.296875 53.171875 
Q 48.296875 48.1875 45.671875 44.5 
Q 43.0625 40.828125 37.75 38.8125 
Q 44.34375 36.671875 47.78125 31.875 
Q 51.21875 27.09375 51.21875 20.453125 
Q 51.21875 11.28125 44.71875 5.03125 
Q 38.234375 -1.21875 27.640625 -1.21875 
Q 17.046875 -1.21875 10.546875 5.046875 
Q 4.046875 11.328125 4.046875 20.703125 
Q 4.046875 27.6875 7.59375 32.390625 
Q 11.140625 37.109375 17.671875 38.8125 
M 15.921875 53.71875 
Q 15.921875 48.640625 19.1875 45.40625 
Q 22.46875 42.1875 27.6875 42.1875 
Q 32.765625 42.1875 36.015625 45.375 
Q 39.265625 48.578125 39.265625 53.21875 
Q 39.265625 58.0625 35.90625 61.359375 
Q 32.5625 64.65625 27.59375 64.65625 
Q 22.5625 64.65625 19.234375 61.421875 
Q 15.921875 58.203125 15.921875 53.71875 
M 13.09375 20.65625 
Q 13.09375 16.890625 14.875 13.375 
Q 16.65625 9.859375 20.171875 7.921875 
Q 23.6875 6 27.734375 6 
Q 34.03125 6 38.125 10.046875 
Q 42.234375 14.109375 42.234375 20.359375 
Q 42.234375 26.703125 38.015625 30.859375 
Q 33.796875 35.015625 27.4375 35.015625 
Q 21.234375 35.015625 17.15625 30.90625 
Q 13.09375 26.8125 13.09375 20.65625 
" id="ArialMT-38"/>
      </defs>
      <g style="fill:#262626;" transform="translate(70.0415625 99.170703125)scale(0.13 -0.13)">
       <use xlink:href="#ArialMT-38"/>
       <use x="55.615234375" xlink:href="#ArialMT-30"/>
      </g>
     </g>
    </g>
    <g id="ytick_10">
     <g id="line2d_34">
      <path clip-path="url(#pe1cb467739)" d="M 93.6 51.48 
L 673.92 51.48 
" style="fill:none;stroke:#ffffff;stroke-linecap:round;stroke-width:1.3;"/>
     </g>
     <g id="line2d_35">
      <g>
       <use style="fill:#262626;stroke:#262626;stroke-width:1.3;" x="93.6" xlink:href="#mb0cd004c72" y="51.48"/>
      </g>
     </g>
     <g id="line2d_36">
      <g>
       <use style="fill:#262626;stroke:#262626;stroke-width:1.3;" x="673.92" xlink:href="#mb0cd004c72" y="51.48"/>
      </g>
     </g>
     <g id="text_14">
      <!-- 90 -->
      <defs>
       <path d="M 5.46875 16.546875 
L 13.921875 17.328125 
Q 14.984375 11.375 18.015625 8.6875 
Q 21.046875 6 25.78125 6 
Q 29.828125 6 32.875 7.859375 
Q 35.9375 9.71875 37.890625 12.8125 
Q 39.84375 15.921875 41.15625 21.1875 
Q 42.484375 26.46875 42.484375 31.9375 
Q 42.484375 32.515625 42.4375 33.6875 
Q 39.796875 29.5 35.234375 26.875 
Q 30.671875 24.265625 25.34375 24.265625 
Q 16.453125 24.265625 10.296875 30.703125 
Q 4.15625 37.15625 4.15625 47.703125 
Q 4.15625 58.59375 10.578125 65.234375 
Q 17 71.875 26.65625 71.875 
Q 33.640625 71.875 39.421875 68.109375 
Q 45.21875 64.359375 48.21875 57.390625 
Q 51.21875 50.4375 51.21875 37.25 
Q 51.21875 23.53125 48.234375 15.40625 
Q 45.265625 7.28125 39.375 3.03125 
Q 33.5 -1.21875 25.59375 -1.21875 
Q 17.1875 -1.21875 11.859375 3.4375 
Q 6.546875 8.109375 5.46875 16.546875 
M 41.453125 48.140625 
Q 41.453125 55.71875 37.421875 60.15625 
Q 33.40625 64.59375 27.734375 64.59375 
Q 21.875 64.59375 17.53125 59.8125 
Q 13.1875 55.03125 13.1875 47.40625 
Q 13.1875 40.578125 17.3125 36.296875 
Q 21.4375 32.03125 27.484375 32.03125 
Q 33.59375 32.03125 37.515625 36.296875 
Q 41.453125 40.578125 41.453125 48.140625 
" id="ArialMT-39"/>
      </defs>
      <g style="fill:#262626;" transform="translate(70.0415625 54.840703125)scale(0.13 -0.13)">
       <use xlink:href="#ArialMT-39"/>
       <use x="55.615234375" xlink:href="#ArialMT-30"/>
      </g>
     </g>
    </g>
    <g id="text_15">
     <!-- Gespielte Runden -->
     <defs>
      <path d="M 40.578125 0 
L 40.578125 7.625 
Q 34.515625 -1.171875 24.125 -1.171875 
Q 19.53125 -1.171875 15.546875 0.578125 
Q 11.578125 2.34375 9.640625 5 
Q 7.71875 7.671875 6.9375 11.53125 
Q 6.390625 14.109375 6.390625 19.734375 
L 6.390625 51.859375 
L 15.1875 51.859375 
L 15.1875 23.09375 
Q 15.1875 16.21875 15.71875 13.8125 
Q 16.546875 10.359375 19.234375 8.375 
Q 21.921875 6.390625 25.875 6.390625 
Q 29.828125 6.390625 33.296875 8.421875 
Q 36.765625 10.453125 38.203125 13.9375 
Q 39.65625 17.4375 39.65625 24.078125 
L 39.65625 51.859375 
L 48.4375 51.859375 
L 48.4375 0 
z
" id="ArialMT-75"/>
      <path d="M 7.859375 0 
L 7.859375 71.578125 
L 39.59375 71.578125 
Q 49.171875 71.578125 54.140625 69.640625 
Q 59.125 67.71875 62.109375 62.828125 
Q 65.09375 57.953125 65.09375 52.046875 
Q 65.09375 44.4375 60.15625 39.203125 
Q 55.21875 33.984375 44.921875 32.5625 
Q 48.6875 30.765625 50.640625 29 
Q 54.78125 25.203125 58.5 19.484375 
L 70.953125 0 
L 59.03125 0 
L 49.5625 14.890625 
Q 45.40625 21.34375 42.71875 24.75 
Q 40.046875 28.171875 37.921875 29.53125 
Q 35.796875 30.90625 33.59375 31.453125 
Q 31.984375 31.78125 28.328125 31.78125 
L 17.328125 31.78125 
L 17.328125 0 
z
M 17.328125 39.984375 
L 37.703125 39.984375 
Q 44.1875 39.984375 47.84375 41.328125 
Q 51.515625 42.671875 53.421875 45.625 
Q 55.328125 48.578125 55.328125 52.046875 
Q 55.328125 57.125 51.640625 60.390625 
Q 47.953125 63.671875 39.984375 63.671875 
L 17.328125 63.671875 
z
" id="ArialMT-52"/>
      <path id="ArialMT-20"/>
      <path d="M 6.390625 0 
L 6.390625 71.578125 
L 15.1875 71.578125 
L 15.1875 0 
z
" id="ArialMT-6c"/>
      <path d="M 41.21875 28.078125 
L 41.21875 36.46875 
L 71.53125 36.53125 
L 71.53125 9.96875 
Q 64.546875 4.390625 57.125 1.578125 
Q 49.703125 -1.21875 41.890625 -1.21875 
Q 31.34375 -1.21875 22.71875 3.296875 
Q 14.109375 7.8125 9.71875 16.359375 
Q 5.328125 24.90625 5.328125 35.453125 
Q 5.328125 45.90625 9.6875 54.953125 
Q 14.0625 64.015625 22.265625 68.40625 
Q 30.46875 72.796875 41.15625 72.796875 
Q 48.921875 72.796875 55.1875 70.28125 
Q 61.46875 67.78125 65.03125 63.28125 
Q 68.609375 58.796875 70.453125 51.5625 
L 61.921875 49.21875 
Q 60.296875 54.6875 57.90625 57.8125 
Q 55.515625 60.9375 51.0625 62.8125 
Q 46.625 64.703125 41.21875 64.703125 
Q 34.71875 64.703125 29.984375 62.71875 
Q 25.25 60.75 22.34375 57.515625 
Q 19.4375 54.296875 17.828125 50.4375 
Q 15.09375 43.796875 15.09375 36.03125 
Q 15.09375 26.46875 18.390625 20.015625 
Q 21.6875 13.578125 27.984375 10.453125 
Q 34.28125 7.328125 41.359375 7.328125 
Q 47.515625 7.328125 53.375 9.6875 
Q 59.234375 12.0625 62.25 14.75 
L 62.25 28.078125 
z
" id="ArialMT-47"/>
      <path d="M 6.59375 -19.875 
L 6.59375 51.859375 
L 14.59375 51.859375 
L 14.59375 45.125 
Q 17.4375 49.078125 21 51.046875 
Q 24.5625 53.03125 29.640625 53.03125 
Q 36.28125 53.03125 41.359375 49.609375 
Q 46.4375 46.1875 49.015625 39.953125 
Q 51.609375 33.734375 51.609375 26.3125 
Q 51.609375 18.359375 48.75 11.984375 
Q 45.90625 5.609375 40.453125 2.21875 
Q 35.015625 -1.171875 29 -1.171875 
Q 24.609375 -1.171875 21.109375 0.6875 
Q 17.625 2.546875 15.375 5.375 
L 15.375 -19.875 
z
M 14.546875 25.640625 
Q 14.546875 15.625 18.59375 10.84375 
Q 22.65625 6.0625 28.421875 6.0625 
Q 34.28125 6.0625 38.453125 11.015625 
Q 42.625 15.96875 42.625 26.375 
Q 42.625 36.28125 38.546875 41.203125 
Q 34.46875 46.140625 28.8125 46.140625 
Q 23.1875 46.140625 18.859375 40.890625 
Q 14.546875 35.640625 14.546875 25.640625 
" id="ArialMT-70"/>
      <path d="M 3.078125 15.484375 
L 11.765625 16.84375 
Q 12.5 11.625 15.84375 8.84375 
Q 19.1875 6.0625 25.203125 6.0625 
Q 31.25 6.0625 34.171875 8.515625 
Q 37.109375 10.984375 37.109375 14.3125 
Q 37.109375 17.28125 34.515625 19 
Q 32.71875 20.171875 25.53125 21.96875 
Q 15.875 24.421875 12.140625 26.203125 
Q 8.40625 27.984375 6.46875 31.125 
Q 4.546875 34.28125 4.546875 38.09375 
Q 4.546875 41.546875 6.125 44.5 
Q 7.71875 47.46875 10.453125 49.421875 
Q 12.5 50.921875 16.03125 51.96875 
Q 19.578125 53.03125 23.640625 53.03125 
Q 29.734375 53.03125 34.34375 51.265625 
Q 38.96875 49.515625 41.15625 46.5 
Q 43.359375 43.5 44.1875 38.484375 
L 35.59375 37.3125 
Q 35.015625 41.3125 32.203125 43.546875 
Q 29.390625 45.796875 24.265625 45.796875 
Q 18.21875 45.796875 15.625 43.796875 
Q 13.03125 41.796875 13.03125 39.109375 
Q 13.03125 37.40625 14.109375 36.03125 
Q 15.1875 34.625 17.484375 33.6875 
Q 18.796875 33.203125 25.25 31.453125 
Q 34.578125 28.953125 38.25 27.359375 
Q 41.9375 25.78125 44.03125 22.75 
Q 46.140625 19.734375 46.140625 15.234375 
Q 46.140625 10.84375 43.578125 6.953125 
Q 41.015625 3.078125 36.171875 0.953125 
Q 31.34375 -1.171875 25.25 -1.171875 
Q 15.140625 -1.171875 9.84375 3.03125 
Q 4.546875 7.234375 3.078125 15.484375 
" id="ArialMT-73"/>
     </defs>
     <g style="fill:#262626;" transform="translate(62.1994375 308.199632813)rotate(-90.0)scale(0.14300000000000002 -0.14300000000000002)">
      <use xlink:href="#ArialMT-47"/>
      <use x="77.783203125" xlink:href="#ArialMT-65"/>
      <use x="133.3984375" xlink:href="#ArialMT-73"/>
      <use x="183.3984375" xlink:href="#ArialMT-70"/>
      <use x="239.013671875" xlink:href="#ArialMT-69"/>
      <use x="261.23046875" xlink:href="#ArialMT-65"/>
      <use x="316.845703125" xlink:href="#ArialMT-6c"/>
      <use x="339.0625" xlink:href="#ArialMT-74"/>
      <use x="366.845703125" xlink:href="#ArialMT-65"/>
      <use x="422.4609375" xlink:href="#ArialMT-20"/>
      <use x="450.244140625" xlink:href="#ArialMT-52"/>
      <use x="522.4609375" xlink:href="#ArialMT-75"/>
      <use x="578.076171875" xlink:href="#ArialMT-6e"/>
      <use x="633.69140625" xlink:href="#ArialMT-64"/>
      <use x="689.306640625" xlink:href="#ArialMT-65"/>
      <use x="744.921875" xlink:href="#ArialMT-6e"/>
     </g>
    </g>
   </g>
   <g id="PolyCollection_1">
    <defs>
     <path d="M 190.320863 -108.306724 
L 190.319137 -108.306724 
L 190.315843 -110.82182 
L 190.312298 -113.336917 
L 190.311482 -115.852013 
L 190.311236 -118.36711 
L 190.309114 -120.882206 
L 190.296574 -123.397303 
L 190.2748 -125.912399 
L 190.260429 -128.427496 
L 190.240039 -130.942592 
L 190.19759 -133.457689 
L 190.134088 -135.972785 
L 190.046079 -138.487882 
L 189.969173 -141.002978 
L 189.893002 -143.518075 
L 189.822703 -146.033171 
L 189.722126 -148.548268 
L 189.595948 -151.063364 
L 189.462175 -153.578461 
L 189.347022 -156.093557 
L 189.098491 -158.608654 
L 188.68372 -161.12375 
L 188.401232 -163.638847 
L 188.132175 -166.153943 
L 187.882412 -168.66904 
L 187.499377 -171.184136 
L 187.013021 -173.699233 
L 186.541026 -176.214329 
L 186.105802 -178.729425 
L 185.74521 -181.244522 
L 185.271937 -183.759618 
L 184.849894 -186.274715 
L 184.235634 -188.789811 
L 183.631825 -191.304908 
L 182.895531 -193.820004 
L 182.071605 -196.335101 
L 181.293189 -198.850197 
L 180.188192 -201.365294 
L 178.824044 -203.88039 
L 176.968646 -206.395487 
L 175.358608 -208.910583 
L 172.963773 -211.42568 
L 169.478677 -213.940776 
L 165.606361 -216.455873 
L 160.701828 -218.970969 
L 156.206678 -221.486066 
L 150.447449 -224.001162 
L 144.86943 -226.516259 
L 138.281405 -229.031355 
L 131.929001 -231.546452 
L 126.730178 -234.061548 
L 121.812722 -236.576645 
L 118.152178 -239.091741 
L 113.549449 -241.606838 
L 113.214606 -244.121934 
L 112.944 -246.637031 
L 115.93672 -249.152127 
L 119.395467 -251.667224 
L 124.350857 -254.18232 
L 130.303934 -256.697417 
L 135.865666 -259.212513 
L 142.615575 -261.72761 
L 148.015693 -264.242706 
L 153.985591 -266.757803 
L 158.655162 -269.272899 
L 163.302109 -271.787996 
L 167.541314 -274.303092 
L 171.468053 -276.818189 
L 175.188736 -279.333285 
L 178.01044 -281.848382 
L 180.269677 -284.363478 
L 181.88246 -286.878575 
L 183.455378 -289.393671 
L 184.766703 -291.908767 
L 185.920249 -294.423864 
L 186.781484 -296.93896 
L 187.407755 -299.454057 
L 188.051987 -301.969153 
L 188.55867 -304.48425 
L 189.017064 -306.999346 
L 189.343753 -309.514443 
L 189.591893 -312.029539 
L 189.743814 -314.544636 
L 189.827959 -317.059732 
L 189.885351 -319.574829 
L 189.946907 -322.089925 
L 190.059497 -324.605022 
L 190.125714 -327.120118 
L 190.149723 -329.635215 
L 190.187853 -332.150311 
L 190.232377 -334.665408 
L 190.26033 -337.180504 
L 190.275215 -339.695601 
L 190.282753 -342.210697 
L 190.287552 -344.725794 
L 190.293123 -347.24089 
L 190.300838 -349.755987 
L 190.309529 -352.271083 
L 190.315589 -354.78618 
L 190.319129 -357.301276 
L 190.320871 -357.301276 
L 190.320871 -357.301276 
L 190.324411 -354.78618 
L 190.330471 -352.271083 
L 190.339162 -349.755987 
L 190.346877 -347.24089 
L 190.352448 -344.725794 
L 190.357247 -342.210697 
L 190.364785 -339.695601 
L 190.37967 -337.180504 
L 190.407623 -334.665408 
L 190.452147 -332.150311 
L 190.490277 -329.635215 
L 190.514286 -327.120118 
L 190.580503 -324.605022 
L 190.693093 -322.089925 
L 190.754649 -319.574829 
L 190.812041 -317.059732 
L 190.896186 -314.544636 
L 191.048107 -312.029539 
L 191.296247 -309.514443 
L 191.622936 -306.999346 
L 192.08133 -304.48425 
L 192.588013 -301.969153 
L 193.232245 -299.454057 
L 193.858516 -296.93896 
L 194.719751 -294.423864 
L 195.873297 -291.908767 
L 197.184622 -289.393671 
L 198.75754 -286.878575 
L 200.370323 -284.363478 
L 202.62956 -281.848382 
L 205.451264 -279.333285 
L 209.171947 -276.818189 
L 213.098686 -274.303092 
L 217.337891 -271.787996 
L 221.984838 -269.272899 
L 226.654409 -266.757803 
L 232.624307 -264.242706 
L 238.024425 -261.72761 
L 244.774334 -259.212513 
L 250.336066 -256.697417 
L 256.289143 -254.18232 
L 261.244533 -251.667224 
L 264.70328 -249.152127 
L 267.696 -246.637031 
L 267.425394 -244.121934 
L 267.090551 -241.606838 
L 262.487822 -239.091741 
L 258.827278 -236.576645 
L 253.909822 -234.061548 
L 248.710999 -231.546452 
L 242.358595 -229.031355 
L 235.77057 -226.516259 
L 230.192551 -224.001162 
L 224.433322 -221.486066 
L 219.938172 -218.970969 
L 215.033639 -216.455873 
L 211.161323 -213.940776 
L 207.676227 -211.42568 
L 205.281392 -208.910583 
L 203.671354 -206.395487 
L 201.815956 -203.88039 
L 200.451808 -201.365294 
L 199.346811 -198.850197 
L 198.568395 -196.335101 
L 197.744469 -193.820004 
L 197.008175 -191.304908 
L 196.404366 -188.789811 
L 195.790106 -186.274715 
L 195.368063 -183.759618 
L 194.89479 -181.244522 
L 194.534198 -178.729425 
L 194.098974 -176.214329 
L 193.626979 -173.699233 
L 193.140623 -171.184136 
L 192.757588 -168.66904 
L 192.507825 -166.153943 
L 192.238768 -163.638847 
L 191.95628 -161.12375 
L 191.541509 -158.608654 
L 191.292978 -156.093557 
L 191.177825 -153.578461 
L 191.044052 -151.063364 
L 190.917874 -148.548268 
L 190.817297 -146.033171 
L 190.746998 -143.518075 
L 190.670827 -141.002978 
L 190.593921 -138.487882 
L 190.505912 -135.972785 
L 190.44241 -133.457689 
L 190.399961 -130.942592 
L 190.379571 -128.427496 
L 190.3652 -125.912399 
L 190.343426 -123.397303 
L 190.330886 -120.882206 
L 190.328764 -118.36711 
L 190.328518 -115.852013 
L 190.327702 -113.336917 
L 190.324157 -110.82182 
L 190.320863 -108.306724 
z
" id="mb115ac4c02" style="stroke:#4c4c4c;stroke-width:2.275;"/>
    </defs>
    <g clip-path="url(#pe1cb467739)">
     <use style="fill:#5875a4;stroke:#4c4c4c;stroke-width:2.275;" x="0.0" xlink:href="#mb115ac4c02" y="514.8"/>
    </g>
   </g>
   <g id="PolyCollection_2">
    <defs>
     <path d="M 383.761505 -107.625024 
L 383.758495 -107.625024 
L 383.753012 -110.467337 
L 383.748869 -113.30965 
L 383.753378 -116.151962 
L 383.755366 -118.994275 
L 383.749941 -121.836588 
L 383.737949 -124.6789 
L 383.712681 -127.521213 
L 383.673244 -130.363525 
L 383.633269 -133.205838 
L 383.594044 -136.048151 
L 383.552327 -138.890463 
L 383.499921 -141.732776 
L 383.414407 -144.575089 
L 383.273508 -147.417401 
L 383.081782 -150.259714 
L 382.832284 -153.102027 
L 382.542119 -155.944339 
L 382.295246 -158.786652 
L 382.089366 -161.628965 
L 381.843662 -164.471277 
L 381.523992 -167.31359 
L 381.130593 -170.155902 
L 380.695281 -172.998215 
L 380.21062 -175.840528 
L 379.698246 -178.68284 
L 379.188512 -181.525153 
L 378.647886 -184.367466 
L 378.072664 -187.209778 
L 377.40722 -190.052091 
L 376.691863 -192.894404 
L 376.084369 -195.736716 
L 375.377481 -198.579029 
L 374.434724 -201.421341 
L 373.284521 -204.263654 
L 371.894418 -207.105967 
L 370.280283 -209.948279 
L 368.437035 -212.790592 
L 366.021064 -215.632905 
L 362.875021 -218.475217 
L 359.266857 -221.31753 
L 355.049824 -224.159843 
L 350.289509 -227.002155 
L 345.248434 -229.844468 
L 340.038824 -232.68678 
L 335.154008 -235.529093 
L 330.388164 -238.371406 
L 326.019559 -241.213718 
L 322.899038 -244.056031 
L 320.276027 -246.898344 
L 318.35206 -249.740656 
L 318.161615 -252.582969 
L 319.301578 -255.425282 
L 321.794612 -258.267594 
L 325.159157 -261.109907 
L 329.125085 -263.95222 
L 333.80525 -266.794532 
L 338.690851 -269.636845 
L 343.712092 -272.479157 
L 348.636494 -275.32147 
L 353.22379 -278.163783 
L 357.632398 -281.006095 
L 361.549252 -283.848408 
L 364.852549 -286.690721 
L 367.764678 -289.533033 
L 370.413454 -292.375346 
L 372.725258 -295.217659 
L 374.636521 -298.059971 
L 376.35479 -300.902284 
L 377.926296 -303.744596 
L 379.165109 -306.586909 
L 380.115253 -309.429222 
L 380.872124 -312.271534 
L 381.438907 -315.113847 
L 381.885824 -317.95616 
L 382.270803 -320.798472 
L 382.551025 -323.640785 
L 382.782257 -326.483098 
L 383.024279 -329.32541 
L 383.209248 -332.167723 
L 383.335568 -335.010035 
L 383.429298 -337.852348 
L 383.480452 -340.694661 
L 383.513568 -343.536973 
L 383.577933 -346.379286 
L 383.644641 -349.221599 
L 383.68736 -352.063911 
L 383.697554 -354.906224 
L 383.697853 -357.748537 
L 383.708294 -360.590849 
L 383.727861 -363.433162 
L 383.743683 -366.275475 
L 383.745741 -369.117787 
L 383.746997 -371.9601 
L 383.751616 -374.802412 
L 383.756075 -377.644725 
L 383.756395 -380.487038 
L 383.754415 -383.32935 
L 383.756505 -386.171663 
L 383.759247 -389.013976 
L 383.760753 -389.013976 
L 383.760753 -389.013976 
L 383.763495 -386.171663 
L 383.765585 -383.32935 
L 383.763605 -380.487038 
L 383.763925 -377.644725 
L 383.768384 -374.802412 
L 383.773003 -371.9601 
L 383.774259 -369.117787 
L 383.776317 -366.275475 
L 383.792139 -363.433162 
L 383.811706 -360.590849 
L 383.822147 -357.748537 
L 383.822446 -354.906224 
L 383.83264 -352.063911 
L 383.875359 -349.221599 
L 383.942067 -346.379286 
L 384.006432 -343.536973 
L 384.039548 -340.694661 
L 384.090702 -337.852348 
L 384.184432 -335.010035 
L 384.310752 -332.167723 
L 384.495721 -329.32541 
L 384.737743 -326.483098 
L 384.968975 -323.640785 
L 385.249197 -320.798472 
L 385.634176 -317.95616 
L 386.081093 -315.113847 
L 386.647876 -312.271534 
L 387.404747 -309.429222 
L 388.354891 -306.586909 
L 389.593704 -303.744596 
L 391.16521 -300.902284 
L 392.883479 -298.059971 
L 394.794742 -295.217659 
L 397.106546 -292.375346 
L 399.755322 -289.533033 
L 402.667451 -286.690721 
L 405.970748 -283.848408 
L 409.887602 -281.006095 
L 414.29621 -278.163783 
L 418.883506 -275.32147 
L 423.807908 -272.479157 
L 428.829149 -269.636845 
L 433.71475 -266.794532 
L 438.394915 -263.95222 
L 442.360843 -261.109907 
L 445.725388 -258.267594 
L 448.218422 -255.425282 
L 449.358385 -252.582969 
L 449.16794 -249.740656 
L 447.243973 -246.898344 
L 444.620962 -244.056031 
L 441.500441 -241.213718 
L 437.131836 -238.371406 
L 432.365992 -235.529093 
L 427.481176 -232.68678 
L 422.271566 -229.844468 
L 417.230491 -227.002155 
L 412.470176 -224.159843 
L 408.253143 -221.31753 
L 404.644979 -218.475217 
L 401.498936 -215.632905 
L 399.082965 -212.790592 
L 397.239717 -209.948279 
L 395.625582 -207.105967 
L 394.235479 -204.263654 
L 393.085276 -201.421341 
L 392.142519 -198.579029 
L 391.435631 -195.736716 
L 390.828137 -192.894404 
L 390.11278 -190.052091 
L 389.447336 -187.209778 
L 388.872114 -184.367466 
L 388.331488 -181.525153 
L 387.821754 -178.68284 
L 387.30938 -175.840528 
L 386.824719 -172.998215 
L 386.389407 -170.155902 
L 385.996008 -167.31359 
L 385.676338 -164.471277 
L 385.430634 -161.628965 
L 385.224754 -158.786652 
L 384.977881 -155.944339 
L 384.687716 -153.102027 
L 384.438218 -150.259714 
L 384.246492 -147.417401 
L 384.105593 -144.575089 
L 384.020079 -141.732776 
L 383.967673 -138.890463 
L 383.925956 -136.048151 
L 383.886731 -133.205838 
L 383.846756 -130.363525 
L 383.807319 -127.521213 
L 383.782051 -124.6789 
L 383.770059 -121.836588 
L 383.764634 -118.994275 
L 383.766622 -116.151962 
L 383.771131 -113.30965 
L 383.766988 -110.467337 
L 383.761505 -107.625024 
z
" id="mfebcafb833" style="stroke:#4c4c4c;stroke-width:2.275;"/>
    </defs>
    <g clip-path="url(#pe1cb467739)">
     <use style="fill:#5f9e6e;stroke:#4c4c4c;stroke-width:2.275;" x="0.0" xlink:href="#mfebcafb833" y="514.8"/>
    </g>
   </g>
   <g id="PolyCollection_3">
    <defs>
     <path d="M 577.200622 -106.473549 
L 577.199378 -106.473549 
L 577.197388 -109.563012 
L 577.195087 -112.652476 
L 577.193334 -115.74194 
L 577.185108 -118.831403 
L 577.168791 -121.920867 
L 577.148964 -125.010331 
L 577.119027 -128.099794 
L 577.073993 -131.189258 
L 577.022482 -134.278722 
L 576.973499 -137.368185 
L 576.899366 -140.457649 
L 576.77194 -143.547113 
L 576.614493 -146.636576 
L 576.473596 -149.72604 
L 576.350375 -152.815504 
L 576.168341 -155.904967 
L 575.849229 -158.994431 
L 575.472088 -162.083895 
L 575.173673 -165.173358 
L 574.885327 -168.262822 
L 574.468392 -171.352286 
L 573.957363 -174.441749 
L 573.528179 -177.531213 
L 573.039097 -180.620677 
L 572.337813 -183.71014 
L 571.563873 -186.799604 
L 570.826865 -189.889068 
L 570.129202 -192.978531 
L 569.389305 -196.067995 
L 568.513521 -199.157459 
L 567.661447 -202.246922 
L 566.973238 -205.336386 
L 566.23468 -208.42585 
L 565.405203 -211.515313 
L 564.439032 -214.604777 
L 563.11742 -217.694241 
L 561.562706 -220.783704 
L 559.771651 -223.873168 
L 557.590269 -226.962632 
L 555.37048 -230.052095 
L 553.197529 -233.141559 
L 550.743441 -236.231023 
L 547.858311 -239.320486 
L 544.536826 -242.40995 
L 540.832375 -245.499414 
L 536.91256 -248.588877 
L 533.15255 -251.678341 
L 529.973032 -254.767805 
L 527.487304 -257.857268 
L 525.385031 -260.946732 
L 523.842356 -264.036195 
L 523.404322 -267.125659 
L 523.993269 -270.215123 
L 525.375588 -273.304586 
L 527.419704 -276.39405 
L 530.048261 -279.483514 
L 533.388713 -282.572977 
L 537.136065 -285.662441 
L 540.644211 -288.751905 
L 544.285897 -291.841368 
L 548.282049 -294.930832 
L 552.154591 -298.020296 
L 555.666047 -301.109759 
L 558.58991 -304.199223 
L 560.945942 -307.288687 
L 563.29321 -310.37815 
L 565.622069 -313.467614 
L 567.652484 -316.557078 
L 569.445322 -319.646541 
L 570.97491 -322.736005 
L 572.194329 -325.825469 
L 573.171029 -328.914932 
L 573.962736 -332.004396 
L 574.611521 -335.09386 
L 575.146726 -338.183323 
L 575.571805 -341.272787 
L 575.908882 -344.362251 
L 576.187 -347.451714 
L 576.414019 -350.541178 
L 576.599082 -353.630642 
L 576.752605 -356.720105 
L 576.876 -359.809569 
L 576.964409 -362.899033 
L 577.021474 -365.988496 
L 577.056599 -369.07796 
L 577.073764 -372.167424 
L 577.08808 -375.256887 
L 577.113485 -378.346351 
L 577.141766 -381.435815 
L 577.16128 -384.525278 
L 577.167942 -387.614742 
L 577.168081 -390.704206 
L 577.175137 -393.793669 
L 577.186425 -396.883133 
L 577.188714 -399.972597 
L 577.188578 -403.06206 
L 577.192341 -406.151524 
L 577.196895 -409.240988 
L 577.199343 -412.330451 
L 577.200657 -412.330451 
L 577.200657 -412.330451 
L 577.203105 -409.240988 
L 577.207659 -406.151524 
L 577.211422 -403.06206 
L 577.211286 -399.972597 
L 577.213575 -396.883133 
L 577.224863 -393.793669 
L 577.231919 -390.704206 
L 577.232058 -387.614742 
L 577.23872 -384.525278 
L 577.258234 -381.435815 
L 577.286515 -378.346351 
L 577.31192 -375.256887 
L 577.326236 -372.167424 
L 577.343401 -369.07796 
L 577.378526 -365.988496 
L 577.435591 -362.899033 
L 577.524 -359.809569 
L 577.647395 -356.720105 
L 577.800918 -353.630642 
L 577.985981 -350.541178 
L 578.213 -347.451714 
L 578.491118 -344.362251 
L 578.828195 -341.272787 
L 579.253274 -338.183323 
L 579.788479 -335.09386 
L 580.437264 -332.004396 
L 581.228971 -328.914932 
L 582.205671 -325.825469 
L 583.42509 -322.736005 
L 584.954678 -319.646541 
L 586.747516 -316.557078 
L 588.777931 -313.467614 
L 591.10679 -310.37815 
L 593.454058 -307.288687 
L 595.81009 -304.199223 
L 598.733953 -301.109759 
L 602.245409 -298.020296 
L 606.117951 -294.930832 
L 610.114103 -291.841368 
L 613.755789 -288.751905 
L 617.263935 -285.662441 
L 621.011287 -282.572977 
L 624.351739 -279.483514 
L 626.980296 -276.39405 
L 629.024412 -273.304586 
L 630.406731 -270.215123 
L 630.995678 -267.125659 
L 630.557644 -264.036195 
L 629.014969 -260.946732 
L 626.912696 -257.857268 
L 624.426968 -254.767805 
L 621.24745 -251.678341 
L 617.48744 -248.588877 
L 613.567625 -245.499414 
L 609.863174 -242.40995 
L 606.541689 -239.320486 
L 603.656559 -236.231023 
L 601.202471 -233.141559 
L 599.02952 -230.052095 
L 596.809731 -226.962632 
L 594.628349 -223.873168 
L 592.837294 -220.783704 
L 591.28258 -217.694241 
L 589.960968 -214.604777 
L 588.994797 -211.515313 
L 588.16532 -208.42585 
L 587.426762 -205.336386 
L 586.738553 -202.246922 
L 585.886479 -199.157459 
L 585.010695 -196.067995 
L 584.270798 -192.978531 
L 583.573135 -189.889068 
L 582.836127 -186.799604 
L 582.062187 -183.71014 
L 581.360903 -180.620677 
L 580.871821 -177.531213 
L 580.442637 -174.441749 
L 579.931608 -171.352286 
L 579.514673 -168.262822 
L 579.226327 -165.173358 
L 578.927912 -162.083895 
L 578.550771 -158.994431 
L 578.231659 -155.904967 
L 578.049625 -152.815504 
L 577.926404 -149.72604 
L 577.785507 -146.636576 
L 577.62806 -143.547113 
L 577.500634 -140.457649 
L 577.426501 -137.368185 
L 577.377518 -134.278722 
L 577.326007 -131.189258 
L 577.280973 -128.099794 
L 577.251036 -125.010331 
L 577.231209 -121.920867 
L 577.214892 -118.831403 
L 577.206666 -115.74194 
L 577.204913 -112.652476 
L 577.202612 -109.563012 
L 577.200622 -106.473549 
z
" id="mc3a76456d4" style="stroke:#4c4c4c;stroke-width:2.275;"/>
    </defs>
    <g clip-path="url(#pe1cb467739)">
     <use style="fill:#b55d60;stroke:#4c4c4c;stroke-width:2.275;" x="0.0" xlink:href="#mc3a76456d4" y="514.8"/>
    </g>
   </g>
   <g id="line2d_37">
    <path clip-path="url(#pe1cb467739)" d="M 190.32 326.326 
L 190.32 219.934 
" style="fill:none;stroke:#4c4c4c;stroke-linecap:round;stroke-width:2.275;"/>
   </g>
   <g id="line2d_38">
    <path clip-path="url(#pe1cb467739)" d="M 190.32 286.429 
L 190.32 259.831 
" style="fill:none;stroke:#4c4c4c;stroke-linecap:round;stroke-width:6.824999999999999;"/>
   </g>
   <g id="line2d_39">
    <path clip-path="url(#pe1cb467739)" d="M 383.76 335.192 
L 383.76 193.336 
" style="fill:none;stroke:#4c4c4c;stroke-linecap:round;stroke-width:2.275;"/>
   </g>
   <g id="line2d_40">
    <path clip-path="url(#pe1cb467739)" d="M 383.76 281.996 
L 383.76 246.532 
" style="fill:none;stroke:#4c4c4c;stroke-linecap:round;stroke-width:6.824999999999999;"/>
   </g>
   <g id="line2d_41">
    <path clip-path="url(#pe1cb467739)" d="M 577.2 330.759 
L 577.2 175.604 
" style="fill:none;stroke:#4c4c4c;stroke-linecap:round;stroke-width:2.275;"/>
   </g>
   <g id="line2d_42">
    <path clip-path="url(#pe1cb467739)" d="M 577.2 273.13 
L 577.2 233.233 
" style="fill:none;stroke:#4c4c4c;stroke-linecap:round;stroke-width:6.824999999999999;"/>
   </g>
   <g id="patch_3">
    <path d="M 93.6 450.45 
L 93.6 51.48 
" style="fill:none;"/>
   </g>
   <g id="patch_4">
    <path d="M 673.92 450.45 
L 673.92 51.48 
" style="fill:none;"/>
   </g>
   <g id="patch_5">
    <path d="M 93.6 51.48 
L 673.92 51.48 
" style="fill:none;"/>
   </g>
   <g id="patch_6">
    <path d="M 93.6 450.45 
L 673.92 450.45 
" style="fill:none;"/>
   </g>
   <g id="PathCollection_1">
    <defs>
     <path d="M 0 2.275 
C 0.603337 2.275 1.182044 2.035292 1.608668 1.608668 
C 2.035292 1.182044 2.275 0.603337 2.275 0 
C 2.275 -0.603337 2.035292 -1.182044 1.608668 -1.608668 
C 1.182044 -2.035292 0.603337 -2.275 0 -2.275 
C -0.603337 -2.275 -1.182044 -2.035292 -1.608668 -1.608668 
C -2.035292 -1.182044 -2.275 -0.603337 -2.275 0 
C -2.275 0.603337 -2.035292 1.182044 -1.608668 1.608668 
C -1.182044 2.035292 -0.603337 2.275 0 2.275 
z
" id="m8f0bedbdca" style="stroke:#4c4c4c;stroke-width:0.39;"/>
    </defs>
    <g clip-path="url(#pe1cb467739)">
     <use style="fill:#ffffff;stroke:#4c4c4c;stroke-width:0.39;" x="190.32" xlink:href="#m8f0bedbdca" y="273.13"/>
    </g>
   </g>
   <g id="PathCollection_2">
    <g clip-path="url(#pe1cb467739)">
     <use style="fill:#ffffff;stroke:#4c4c4c;stroke-width:0.39;" x="383.76" xlink:href="#m8f0bedbdca" y="264.264"/>
    </g>
   </g>
   <g id="PathCollection_3">
    <g clip-path="url(#pe1cb467739)">
     <use style="fill:#ffffff;stroke:#4c4c4c;stroke-width:0.39;" x="577.2" xlink:href="#m8f0bedbdca" y="250.965"/>
    </g>
   </g>
   <g id="text_16">
    <!-- Anzahl gespielter Runden je Strategie -->
    <defs>
     <path d="M 1.953125 0 
L 1.953125 7.125 
L 34.96875 45.015625 
Q 29.34375 44.734375 25.046875 44.734375 
L 3.90625 44.734375 
L 3.90625 51.859375 
L 46.296875 51.859375 
L 46.296875 46.046875 
L 18.21875 13.140625 
L 12.796875 7.125 
Q 18.703125 7.5625 23.875 7.5625 
L 47.859375 7.5625 
L 47.859375 0 
z
" id="ArialMT-7a"/>
     <path d="M 6.546875 61.375 
L 6.546875 71.578125 
L 15.328125 71.578125 
L 15.328125 61.375 
z
M -4.59375 -20.125 
L -2.9375 -12.640625 
Q -0.296875 -13.328125 1.21875 -13.328125 
Q 3.90625 -13.328125 5.21875 -11.546875 
Q 6.546875 -9.765625 6.546875 -2.640625 
L 6.546875 51.859375 
L 15.328125 51.859375 
L 15.328125 -2.828125 
Q 15.328125 -12.40625 12.84375 -16.15625 
Q 9.671875 -21.046875 2.296875 -21.046875 
Q -1.265625 -21.046875 -4.59375 -20.125 
" id="ArialMT-6a"/>
     <path d="M 6.59375 0 
L 6.59375 71.578125 
L 15.375 71.578125 
L 15.375 45.90625 
Q 21.53125 53.03125 30.90625 53.03125 
Q 36.671875 53.03125 40.921875 50.75 
Q 45.171875 48.484375 47 44.484375 
Q 48.828125 40.484375 48.828125 32.859375 
L 48.828125 0 
L 40.046875 0 
L 40.046875 32.859375 
Q 40.046875 39.453125 37.1875 42.453125 
Q 34.328125 45.453125 29.109375 45.453125 
Q 25.203125 45.453125 21.75 43.421875 
Q 18.3125 41.40625 16.84375 37.9375 
Q 15.375 34.46875 15.375 28.375 
L 15.375 0 
z
" id="ArialMT-68"/>
     <path d="M -0.140625 0 
L 27.34375 71.578125 
L 37.546875 71.578125 
L 66.84375 0 
L 56.0625 0 
L 47.703125 21.6875 
L 17.78125 21.6875 
L 9.90625 0 
z
M 20.515625 29.390625 
L 44.78125 29.390625 
L 37.3125 49.21875 
Q 33.890625 58.25 32.234375 64.0625 
Q 30.859375 57.171875 28.375 50.390625 
z
" id="ArialMT-41"/>
    </defs>
    <g style="fill:#262626;" transform="translate(232.6725 46.48)scale(0.18 -0.18)">
     <use xlink:href="#ArialMT-41"/>
     <use x="66.69921875" xlink:href="#ArialMT-6e"/>
     <use x="122.314453125" xlink:href="#ArialMT-7a"/>
     <use x="172.314453125" xlink:href="#ArialMT-61"/>
     <use x="227.9296875" xlink:href="#ArialMT-68"/>
     <use x="283.544921875" xlink:href="#ArialMT-6c"/>
     <use x="305.76171875" xlink:href="#ArialMT-20"/>
     <use x="333.544921875" xlink:href="#ArialMT-67"/>
     <use x="389.16015625" xlink:href="#ArialMT-65"/>
     <use x="444.775390625" xlink:href="#ArialMT-73"/>
     <use x="494.775390625" xlink:href="#ArialMT-70"/>
     <use x="550.390625" xlink:href="#ArialMT-69"/>
     <use x="572.607421875" xlink:href="#ArialMT-65"/>
     <use x="628.22265625" xlink:href="#ArialMT-6c"/>
     <use x="650.439453125" xlink:href="#ArialMT-74"/>
     <use x="678.22265625" xlink:href="#ArialMT-65"/>
     <use x="733.837890625" xlink:href="#ArialMT-72"/>
     <use x="767.138671875" xlink:href="#ArialMT-20"/>
     <use x="794.921875" xlink:href="#ArialMT-52"/>
     <use x="867.138671875" xlink:href="#ArialMT-75"/>
     <use x="922.75390625" xlink:href="#ArialMT-6e"/>
     <use x="978.369140625" xlink:href="#ArialMT-64"/>
     <use x="1033.984375" xlink:href="#ArialMT-65"/>
     <use x="1089.599609375" xlink:href="#ArialMT-6e"/>
     <use x="1145.21484375" xlink:href="#ArialMT-20"/>
     <use x="1172.998046875" xlink:href="#ArialMT-6a"/>
     <use x="1195.21484375" xlink:href="#ArialMT-65"/>
     <use x="1250.830078125" xlink:href="#ArialMT-20"/>
     <use x="1278.61328125" xlink:href="#ArialMT-53"/>
     <use x="1345.3125" xlink:href="#ArialMT-74"/>
     <use x="1373.095703125" xlink:href="#ArialMT-72"/>
     <use x="1406.396484375" xlink:href="#ArialMT-61"/>
     <use x="1462.01171875" xlink:href="#ArialMT-74"/>
     <use x="1489.794921875" xlink:href="#ArialMT-65"/>
     <use x="1545.41015625" xlink:href="#ArialMT-67"/>
     <use x="1601.025390625" xlink:href="#ArialMT-69"/>
     <use x="1623.2421875" xlink:href="#ArialMT-65"/>
    </g>
   </g>
  </g>
 </g>
 <defs>
  <clipPath id="pe1cb467739">
   <rect height="398.97" width="580.32" x="93.6" y="51.48"/>
  </clipPath>
 </defs>
</svg>
