<?xml version="1.0" encoding="utf-8" standalone="no"?>
<!DOCTYPE svg PUBLIC "-//W3C//DTD SVG 1.1//EN"
  "http://www.w3.org/Graphics/SVG/1.1/DTD/svg11.dtd">
<!-- Created with matplotlib (http://matplotlib.org/) -->
<svg height="514pt" version="1.1" viewBox="0 0 748 514" width="748pt" xmlns="http://www.w3.org/2000/svg" xmlns:xlink="http://www.w3.org/1999/xlink">
 <defs>
  <style type="text/css">
*{stroke-linecap:butt;stroke-linejoin:round;stroke-miterlimit:100000;}
  </style>
 </defs>
 <g id="figure_1">
  <g id="patch_1">
   <path d="M 0 514.8 
L 748.8 514.8 
L 748.8 0 
L 0 0 
z
" style="fill:#ffffff;"/>
  </g>
  <g id="axes_1">
   <g id="patch_2">
    <path d="M 93.6 450.45 
L 673.92 450.45 
L 673.92 51.48 
L 93.6 51.48 
z
" style="fill:#eaeaf2;"/>
   </g>
   <g id="matplotlib.axis_1">
    <g id="xtick_1">
     <g id="line2d_1">
      <defs>
       <path d="M 0 0 
L 0 0 
" id="m07c19988f5" style="stroke:#262626;stroke-width:1.3;"/>
      </defs>
      <g>
       <use style="fill:#262626;stroke:#262626;stroke-width:1.3;" x="190.32" xlink:href="#m07c19988f5" y="450.45"/>
      </g>
     </g>
     <g id="line2d_2">
      <g>
       <use style="fill:#262626;stroke:#262626;stroke-width:1.3;" x="190.32" xlink:href="#m07c19988f5" y="51.48"/>
      </g>
     </g>
     <g id="text_1">
      <!-- max -->
      <defs>
       <path d="M 6.59375 0 
L 6.59375 51.859375 
L 14.453125 51.859375 
L 14.453125 44.578125 
Q 16.890625 48.390625 20.9375 50.703125 
Q 25 53.03125 30.171875 53.03125 
Q 35.9375 53.03125 39.625 50.640625 
Q 43.3125 48.25 44.828125 43.953125 
Q 50.984375 53.03125 60.84375 53.03125 
Q 68.5625 53.03125 72.703125 48.75 
Q 76.859375 44.484375 76.859375 35.59375 
L 76.859375 0 
L 68.109375 0 
L 68.109375 32.671875 
Q 68.109375 37.9375 67.25 40.25 
Q 66.40625 42.578125 64.15625 43.984375 
Q 61.921875 45.40625 58.890625 45.40625 
Q 53.421875 45.40625 49.796875 41.765625 
Q 46.1875 38.140625 46.1875 30.125 
L 46.1875 0 
L 37.40625 0 
L 37.40625 33.6875 
Q 37.40625 39.546875 35.25 42.46875 
Q 33.109375 45.40625 28.21875 45.40625 
Q 24.515625 45.40625 21.359375 43.453125 
Q 18.21875 41.5 16.796875 37.734375 
Q 15.375 33.984375 15.375 26.90625 
L 15.375 0 
z
" id="ArialMT-6d"/>
       <path d="M 0.734375 0 
L 19.671875 26.953125 
L 2.15625 51.859375 
L 13.140625 51.859375 
L 21.09375 39.703125 
Q 23.34375 36.234375 24.703125 33.890625 
Q 26.859375 37.109375 28.65625 39.59375 
L 37.40625 51.859375 
L 47.90625 51.859375 
L 29.984375 27.4375 
L 49.265625 0 
L 38.484375 0 
L 27.828125 16.109375 
L 25 20.453125 
L 11.375 0 
z
" id="ArialMT-78"/>
       <path d="M 40.4375 6.390625 
Q 35.546875 2.25 31.03125 0.53125 
Q 26.515625 -1.171875 21.34375 -1.171875 
Q 12.796875 -1.171875 8.203125 3 
Q 3.609375 7.171875 3.609375 13.671875 
Q 3.609375 17.484375 5.34375 20.625 
Q 7.078125 23.78125 9.890625 25.6875 
Q 12.703125 27.59375 16.21875 28.5625 
Q 18.796875 29.25 24.03125 29.890625 
Q 34.671875 31.15625 39.703125 32.90625 
Q 39.75 34.71875 39.75 35.203125 
Q 39.75 40.578125 37.25 42.78125 
Q 33.890625 45.75 27.25 45.75 
Q 21.046875 45.75 18.09375 43.578125 
Q 15.140625 41.40625 13.71875 35.890625 
L 5.125 37.0625 
Q 6.296875 42.578125 8.984375 45.96875 
Q 11.671875 49.359375 16.75 51.1875 
Q 21.828125 53.03125 28.515625 53.03125 
Q 35.15625 53.03125 39.296875 51.46875 
Q 43.453125 49.90625 45.40625 47.53125 
Q 47.359375 45.171875 48.140625 41.546875 
Q 48.578125 39.3125 48.578125 33.453125 
L 48.578125 21.734375 
Q 48.578125 9.46875 49.140625 6.21875 
Q 49.703125 2.984375 51.375 0 
L 42.1875 0 
Q 40.828125 2.734375 40.4375 6.390625 
M 39.703125 26.03125 
Q 34.90625 24.078125 25.34375 22.703125 
Q 19.921875 21.921875 17.671875 20.9375 
Q 15.4375 19.96875 14.203125 18.09375 
Q 12.984375 16.21875 12.984375 13.921875 
Q 12.984375 10.40625 15.640625 8.0625 
Q 18.3125 5.71875 23.4375 5.71875 
Q 28.515625 5.71875 32.46875 7.9375 
Q 36.421875 10.15625 38.28125 14.015625 
Q 39.703125 17 39.703125 22.796875 
z
" id="ArialMT-61"/>
      </defs>
      <g style="fill:#262626;" transform="translate(178.04109375 468.85515625)scale(0.13 -0.13)">
       <use xlink:href="#ArialMT-6d"/>
       <use x="83.30078125" xlink:href="#ArialMT-61"/>
       <use x="138.916015625" xlink:href="#ArialMT-78"/>
      </g>
     </g>
    </g>
    <g id="xtick_2">
     <g id="line2d_3">
      <g>
       <use style="fill:#262626;stroke:#262626;stroke-width:1.3;" x="383.76" xlink:href="#m07c19988f5" y="450.45"/>
      </g>
     </g>
     <g id="line2d_4">
      <g>
       <use style="fill:#262626;stroke:#262626;stroke-width:1.3;" x="383.76" xlink:href="#m07c19988f5" y="51.48"/>
      </g>
     </g>
     <g id="text_2">
      <!-- rnd -->
      <defs>
       <path d="M 40.234375 0 
L 40.234375 6.546875 
Q 35.296875 -1.171875 25.734375 -1.171875 
Q 19.53125 -1.171875 14.328125 2.25 
Q 9.125 5.671875 6.265625 11.796875 
Q 3.421875 17.921875 3.421875 25.875 
Q 3.421875 33.640625 6 39.96875 
Q 8.59375 46.296875 13.765625 49.65625 
Q 18.953125 53.03125 25.34375 53.03125 
Q 30.03125 53.03125 33.6875 51.046875 
Q 37.359375 49.078125 39.65625 45.90625 
L 39.65625 71.578125 
L 48.390625 71.578125 
L 48.390625 0 
z
M 12.453125 25.875 
Q 12.453125 15.921875 16.640625 10.984375 
Q 20.84375 6.0625 26.5625 6.0625 
Q 32.328125 6.0625 36.34375 10.765625 
Q 40.375 15.484375 40.375 25.140625 
Q 40.375 35.796875 36.265625 40.765625 
Q 32.171875 45.75 26.171875 45.75 
Q 20.3125 45.75 16.375 40.96875 
Q 12.453125 36.1875 12.453125 25.875 
" id="ArialMT-64"/>
       <path d="M 6.5 0 
L 6.5 51.859375 
L 14.40625 51.859375 
L 14.40625 44 
Q 17.4375 49.515625 20 51.265625 
Q 22.5625 53.03125 25.640625 53.03125 
Q 30.078125 53.03125 34.671875 50.203125 
L 31.640625 42.046875 
Q 28.421875 43.953125 25.203125 43.953125 
Q 22.3125 43.953125 20.015625 42.21875 
Q 17.71875 40.484375 16.75 37.40625 
Q 15.28125 32.71875 15.28125 27.15625 
L 15.28125 0 
z
" id="ArialMT-72"/>
       <path d="M 6.59375 0 
L 6.59375 51.859375 
L 14.5 51.859375 
L 14.5 44.484375 
Q 20.21875 53.03125 31 53.03125 
Q 35.6875 53.03125 39.625 51.34375 
Q 43.5625 49.65625 45.515625 46.921875 
Q 47.46875 44.1875 48.25 40.4375 
Q 48.734375 37.984375 48.734375 31.890625 
L 48.734375 0 
L 39.9375 0 
L 39.9375 31.546875 
Q 39.9375 36.921875 38.90625 39.578125 
Q 37.890625 42.234375 35.28125 43.8125 
Q 32.671875 45.40625 29.15625 45.40625 
Q 23.53125 45.40625 19.453125 41.84375 
Q 15.375 38.28125 15.375 28.328125 
L 15.375 0 
z
" id="ArialMT-6e"/>
      </defs>
      <g style="fill:#262626;" transform="translate(374.366484375 468.85515625)scale(0.13 -0.13)">
       <use xlink:href="#ArialMT-72"/>
       <use x="33.30078125" xlink:href="#ArialMT-6e"/>
       <use x="88.916015625" xlink:href="#ArialMT-64"/>
      </g>
     </g>
    </g>
    <g id="xtick_3">
     <g id="line2d_5">
      <g>
       <use style="fill:#262626;stroke:#262626;stroke-width:1.3;" x="577.2" xlink:href="#m07c19988f5" y="450.45"/>
      </g>
     </g>
     <g id="line2d_6">
      <g>
       <use style="fill:#262626;stroke:#262626;stroke-width:1.3;" x="577.2" xlink:href="#m07c19988f5" y="51.48"/>
      </g>
     </g>
     <g id="text_3">
      <!-- min -->
      <defs>
       <path d="M 6.640625 61.46875 
L 6.640625 71.578125 
L 15.4375 71.578125 
L 15.4375 61.46875 
z
M 6.640625 0 
L 6.640625 51.859375 
L 15.4375 51.859375 
L 15.4375 0 
z
" id="ArialMT-69"/>
      </defs>
      <g style="fill:#262626;" transform="translate(566.726875 468.85515625)scale(0.13 -0.13)">
       <use xlink:href="#ArialMT-6d"/>
       <use x="83.30078125" xlink:href="#ArialMT-69"/>
       <use x="105.517578125" xlink:href="#ArialMT-6e"/>
      </g>
     </g>
    </g>
    <g id="text_4">
     <!-- Strategie -->
     <defs>
      <path d="M 4.984375 -4.296875 
L 13.53125 -5.5625 
Q 14.0625 -9.515625 16.5 -11.328125 
Q 19.78125 -13.765625 25.4375 -13.765625 
Q 31.546875 -13.765625 34.859375 -11.328125 
Q 38.1875 -8.890625 39.359375 -4.5 
Q 40.046875 -1.8125 39.984375 6.78125 
Q 34.234375 0 25.640625 0 
Q 14.9375 0 9.078125 7.71875 
Q 3.21875 15.4375 3.21875 26.21875 
Q 3.21875 33.640625 5.90625 39.90625 
Q 8.59375 46.1875 13.6875 49.609375 
Q 18.796875 53.03125 25.6875 53.03125 
Q 34.859375 53.03125 40.828125 45.609375 
L 40.828125 51.859375 
L 48.921875 51.859375 
L 48.921875 7.03125 
Q 48.921875 -5.078125 46.453125 -10.125 
Q 44 -15.1875 38.640625 -18.109375 
Q 33.296875 -21.046875 25.484375 -21.046875 
Q 16.21875 -21.046875 10.5 -16.875 
Q 4.78125 -12.703125 4.984375 -4.296875 
M 12.25 26.859375 
Q 12.25 16.65625 16.296875 11.96875 
Q 20.359375 7.28125 26.46875 7.28125 
Q 32.515625 7.28125 36.609375 11.9375 
Q 40.71875 16.609375 40.71875 26.5625 
Q 40.71875 36.078125 36.5 40.90625 
Q 32.28125 45.75 26.3125 45.75 
Q 20.453125 45.75 16.34375 40.984375 
Q 12.25 36.234375 12.25 26.859375 
" id="ArialMT-67"/>
      <path d="M 42.09375 16.703125 
L 51.171875 15.578125 
Q 49.03125 7.625 43.21875 3.21875 
Q 37.40625 -1.171875 28.375 -1.171875 
Q 17 -1.171875 10.328125 5.828125 
Q 3.65625 12.84375 3.65625 25.484375 
Q 3.65625 38.578125 10.390625 45.796875 
Q 17.140625 53.03125 27.875 53.03125 
Q 38.28125 53.03125 44.875 45.953125 
Q 51.46875 38.875 51.46875 26.03125 
Q 51.46875 25.25 51.421875 23.6875 
L 12.75 23.6875 
Q 13.234375 15.140625 17.578125 10.59375 
Q 21.921875 6.0625 28.421875 6.0625 
Q 33.25 6.0625 36.671875 8.59375 
Q 40.09375 11.140625 42.09375 16.703125 
M 13.234375 30.90625 
L 42.1875 30.90625 
Q 41.609375 37.453125 38.875 40.71875 
Q 34.671875 45.796875 27.984375 45.796875 
Q 21.921875 45.796875 17.796875 41.75 
Q 13.671875 37.703125 13.234375 30.90625 
" id="ArialMT-65"/>
      <path d="M 25.78125 7.859375 
L 27.046875 0.09375 
Q 23.34375 -0.6875 20.40625 -0.6875 
Q 15.625 -0.6875 12.984375 0.828125 
Q 10.359375 2.34375 9.28125 4.8125 
Q 8.203125 7.28125 8.203125 15.1875 
L 8.203125 45.015625 
L 1.765625 45.015625 
L 1.765625 51.859375 
L 8.203125 51.859375 
L 8.203125 64.703125 
L 16.9375 69.96875 
L 16.9375 51.859375 
L 25.78125 51.859375 
L 25.78125 45.015625 
L 16.9375 45.015625 
L 16.9375 14.703125 
Q 16.9375 10.9375 17.40625 9.859375 
Q 17.875 8.796875 18.921875 8.15625 
Q 19.96875 7.515625 21.921875 7.515625 
Q 23.390625 7.515625 25.78125 7.859375 
" id="ArialMT-74"/>
      <path d="M 4.5 23 
L 13.421875 23.78125 
Q 14.0625 18.40625 16.375 14.96875 
Q 18.703125 11.53125 23.578125 9.40625 
Q 28.46875 7.28125 34.578125 7.28125 
Q 39.984375 7.28125 44.140625 8.890625 
Q 48.296875 10.5 50.3125 13.296875 
Q 52.34375 16.109375 52.34375 19.4375 
Q 52.34375 22.796875 50.390625 25.3125 
Q 48.4375 27.828125 43.953125 29.546875 
Q 41.0625 30.671875 31.203125 33.03125 
Q 21.34375 35.40625 17.390625 37.5 
Q 12.25 40.1875 9.734375 44.15625 
Q 7.234375 48.140625 7.234375 53.078125 
Q 7.234375 58.5 10.296875 63.203125 
Q 13.375 67.921875 19.28125 70.359375 
Q 25.203125 72.796875 32.421875 72.796875 
Q 40.375 72.796875 46.453125 70.234375 
Q 52.546875 67.671875 55.8125 62.6875 
Q 59.078125 57.71875 59.328125 51.421875 
L 50.25 50.734375 
Q 49.515625 57.515625 45.28125 60.984375 
Q 41.0625 64.453125 32.8125 64.453125 
Q 24.21875 64.453125 20.28125 61.296875 
Q 16.359375 58.15625 16.359375 53.71875 
Q 16.359375 49.859375 19.140625 47.359375 
Q 21.875 44.875 33.421875 42.265625 
Q 44.96875 39.65625 49.265625 37.703125 
Q 55.515625 34.8125 58.484375 30.390625 
Q 61.46875 25.984375 61.46875 20.21875 
Q 61.46875 14.5 58.203125 9.4375 
Q 54.9375 4.390625 48.796875 1.578125 
Q 42.671875 -1.21875 35.015625 -1.21875 
Q 25.296875 -1.21875 18.71875 1.609375 
Q 12.15625 4.4375 8.421875 10.125 
Q 4.6875 15.828125 4.5 23 
" id="ArialMT-53"/>
     </defs>
     <g style="fill:#262626;" transform="translate(355.144359375 486.848859375)scale(0.14300000000000002 -0.14300000000000002)">
      <use xlink:href="#ArialMT-53"/>
      <use x="66.69921875" xlink:href="#ArialMT-74"/>
      <use x="94.482421875" xlink:href="#ArialMT-72"/>
      <use x="127.783203125" xlink:href="#ArialMT-61"/>
      <use x="183.3984375" xlink:href="#ArialMT-74"/>
      <use x="211.181640625" xlink:href="#ArialMT-65"/>
      <use x="266.796875" xlink:href="#ArialMT-67"/>
      <use x="322.412109375" xlink:href="#ArialMT-69"/>
      <use x="344.62890625" xlink:href="#ArialMT-65"/>
     </g>
    </g>
   </g>
   <g id="matplotlib.axis_2">
    <g id="ytick_1">
     <g id="line2d_7">
      <path clip-path="url(#pc376967237)" d="M 93.6 450.45 
L 673.92 450.45 
" style="fill:none;stroke:#ffffff;stroke-linecap:round;stroke-width:1.3;"/>
     </g>
     <g id="line2d_8">
      <g>
       <use style="fill:#262626;stroke:#262626;stroke-width:1.3;" x="93.6" xlink:href="#m07c19988f5" y="450.45"/>
      </g>
     </g>
     <g id="line2d_9">
      <g>
       <use style="fill:#262626;stroke:#262626;stroke-width:1.3;" x="673.92" xlink:href="#m07c19988f5" y="450.45"/>
      </g>
     </g>
     <g id="text_5">
      <!-- 0 -->
      <defs>
       <path d="M 4.15625 35.296875 
Q 4.15625 48 6.765625 55.734375 
Q 9.375 63.484375 14.515625 67.671875 
Q 19.671875 71.875 27.484375 71.875 
Q 33.25 71.875 37.59375 69.546875 
Q 41.9375 67.234375 44.765625 62.859375 
Q 47.609375 58.5 49.21875 52.21875 
Q 50.828125 45.953125 50.828125 35.296875 
Q 50.828125 22.703125 48.234375 14.96875 
Q 45.65625 7.234375 40.5 3 
Q 35.359375 -1.21875 27.484375 -1.21875 
Q 17.140625 -1.21875 11.234375 6.203125 
Q 4.15625 15.140625 4.15625 35.296875 
M 13.1875 35.296875 
Q 13.1875 17.671875 17.3125 11.828125 
Q 21.4375 6 27.484375 6 
Q 33.546875 6 37.671875 11.859375 
Q 41.796875 17.71875 41.796875 35.296875 
Q 41.796875 52.984375 37.671875 58.78125 
Q 33.546875 64.59375 27.390625 64.59375 
Q 21.34375 64.59375 17.71875 59.46875 
Q 13.1875 52.9375 13.1875 35.296875 
" id="ArialMT-30"/>
      </defs>
      <g style="fill:#262626;" transform="translate(77.27078125 453.810703125)scale(0.13 -0.13)">
       <use xlink:href="#ArialMT-30"/>
      </g>
     </g>
    </g>
    <g id="ytick_2">
     <g id="line2d_10">
      <path clip-path="url(#pc376967237)" d="M 93.6 406.12 
L 673.92 406.12 
" style="fill:none;stroke:#ffffff;stroke-linecap:round;stroke-width:1.3;"/>
     </g>
     <g id="line2d_11">
      <g>
       <use style="fill:#262626;stroke:#262626;stroke-width:1.3;" x="93.6" xlink:href="#m07c19988f5" y="406.12"/>
      </g>
     </g>
     <g id="line2d_12">
      <g>
       <use style="fill:#262626;stroke:#262626;stroke-width:1.3;" x="673.92" xlink:href="#m07c19988f5" y="406.12"/>
      </g>
     </g>
     <g id="text_6">
      <!-- 10 -->
      <defs>
       <path d="M 37.25 0 
L 28.46875 0 
L 28.46875 56 
Q 25.296875 52.984375 20.140625 49.953125 
Q 14.984375 46.921875 10.890625 45.40625 
L 10.890625 53.90625 
Q 18.265625 57.375 23.78125 62.296875 
Q 29.296875 67.234375 31.59375 71.875 
L 37.25 71.875 
z
" id="ArialMT-31"/>
      </defs>
      <g style="fill:#262626;" transform="translate(70.0415625 409.480703125)scale(0.13 -0.13)">
       <use xlink:href="#ArialMT-31"/>
       <use x="55.615234375" xlink:href="#ArialMT-30"/>
      </g>
     </g>
    </g>
    <g id="ytick_3">
     <g id="line2d_13">
      <path clip-path="url(#pc376967237)" d="M 93.6 361.79 
L 673.92 361.79 
" style="fill:none;stroke:#ffffff;stroke-linecap:round;stroke-width:1.3;"/>
     </g>
     <g id="line2d_14">
      <g>
       <use style="fill:#262626;stroke:#262626;stroke-width:1.3;" x="93.6" xlink:href="#m07c19988f5" y="361.79"/>
      </g>
     </g>
     <g id="line2d_15">
      <g>
       <use style="fill:#262626;stroke:#262626;stroke-width:1.3;" x="673.92" xlink:href="#m07c19988f5" y="361.79"/>
      </g>
     </g>
     <g id="text_7">
      <!-- 20 -->
      <defs>
       <path d="M 50.34375 8.453125 
L 50.34375 0 
L 3.03125 0 
Q 2.9375 3.171875 4.046875 6.109375 
Q 5.859375 10.9375 9.828125 15.625 
Q 13.8125 20.3125 21.34375 26.46875 
Q 33.015625 36.03125 37.109375 41.625 
Q 41.21875 47.21875 41.21875 52.203125 
Q 41.21875 57.421875 37.46875 61 
Q 33.734375 64.59375 27.734375 64.59375 
Q 21.390625 64.59375 17.578125 60.78125 
Q 13.765625 56.984375 13.71875 50.25 
L 4.6875 51.171875 
Q 5.609375 61.28125 11.65625 66.578125 
Q 17.71875 71.875 27.9375 71.875 
Q 38.234375 71.875 44.234375 66.15625 
Q 50.25 60.453125 50.25 52 
Q 50.25 47.703125 48.484375 43.546875 
Q 46.734375 39.40625 42.65625 34.8125 
Q 38.578125 30.21875 29.109375 22.21875 
Q 21.1875 15.578125 18.9375 13.203125 
Q 16.703125 10.84375 15.234375 8.453125 
z
" id="ArialMT-32"/>
      </defs>
      <g style="fill:#262626;" transform="translate(70.0415625 365.150703125)scale(0.13 -0.13)">
       <use xlink:href="#ArialMT-32"/>
       <use x="55.615234375" xlink:href="#ArialMT-30"/>
      </g>
     </g>
    </g>
    <g id="ytick_4">
     <g id="line2d_16">
      <path clip-path="url(#pc376967237)" d="M 93.6 317.46 
L 673.92 317.46 
" style="fill:none;stroke:#ffffff;stroke-linecap:round;stroke-width:1.3;"/>
     </g>
     <g id="line2d_17">
      <g>
       <use style="fill:#262626;stroke:#262626;stroke-width:1.3;" x="93.6" xlink:href="#m07c19988f5" y="317.46"/>
      </g>
     </g>
     <g id="line2d_18">
      <g>
       <use style="fill:#262626;stroke:#262626;stroke-width:1.3;" x="673.92" xlink:href="#m07c19988f5" y="317.46"/>
      </g>
     </g>
     <g id="text_8">
      <!-- 30 -->
      <defs>
       <path d="M 4.203125 18.890625 
L 12.984375 20.0625 
Q 14.5 12.59375 18.140625 9.296875 
Q 21.78125 6 27 6 
Q 33.203125 6 37.46875 10.296875 
Q 41.75 14.59375 41.75 20.953125 
Q 41.75 27 37.796875 30.921875 
Q 33.84375 34.859375 27.734375 34.859375 
Q 25.25 34.859375 21.53125 33.890625 
L 22.515625 41.609375 
Q 23.390625 41.5 23.921875 41.5 
Q 29.546875 41.5 34.03125 44.421875 
Q 38.53125 47.359375 38.53125 53.46875 
Q 38.53125 58.296875 35.25 61.46875 
Q 31.984375 64.65625 26.8125 64.65625 
Q 21.6875 64.65625 18.265625 61.421875 
Q 14.84375 58.203125 13.875 51.765625 
L 5.078125 53.328125 
Q 6.6875 62.15625 12.390625 67.015625 
Q 18.109375 71.875 26.609375 71.875 
Q 32.46875 71.875 37.390625 69.359375 
Q 42.328125 66.84375 44.9375 62.5 
Q 47.5625 58.15625 47.5625 53.265625 
Q 47.5625 48.640625 45.0625 44.828125 
Q 42.578125 41.015625 37.703125 38.765625 
Q 44.046875 37.3125 47.5625 32.6875 
Q 51.078125 28.078125 51.078125 21.140625 
Q 51.078125 11.765625 44.234375 5.25 
Q 37.40625 -1.265625 26.953125 -1.265625 
Q 17.53125 -1.265625 11.296875 4.34375 
Q 5.078125 9.96875 4.203125 18.890625 
" id="ArialMT-33"/>
      </defs>
      <g style="fill:#262626;" transform="translate(70.0415625 320.820703125)scale(0.13 -0.13)">
       <use xlink:href="#ArialMT-33"/>
       <use x="55.615234375" xlink:href="#ArialMT-30"/>
      </g>
     </g>
    </g>
    <g id="ytick_5">
     <g id="line2d_19">
      <path clip-path="url(#pc376967237)" d="M 93.6 273.13 
L 673.92 273.13 
" style="fill:none;stroke:#ffffff;stroke-linecap:round;stroke-width:1.3;"/>
     </g>
     <g id="line2d_20">
      <g>
       <use style="fill:#262626;stroke:#262626;stroke-width:1.3;" x="93.6" xlink:href="#m07c19988f5" y="273.13"/>
      </g>
     </g>
     <g id="line2d_21">
      <g>
       <use style="fill:#262626;stroke:#262626;stroke-width:1.3;" x="673.92" xlink:href="#m07c19988f5" y="273.13"/>
      </g>
     </g>
     <g id="text_9">
      <!-- 40 -->
      <defs>
       <path d="M 32.328125 0 
L 32.328125 17.140625 
L 1.265625 17.140625 
L 1.265625 25.203125 
L 33.9375 71.578125 
L 41.109375 71.578125 
L 41.109375 25.203125 
L 50.78125 25.203125 
L 50.78125 17.140625 
L 41.109375 17.140625 
L 41.109375 0 
z
M 32.328125 25.203125 
L 32.328125 57.46875 
L 9.90625 25.203125 
z
" id="ArialMT-34"/>
      </defs>
      <g style="fill:#262626;" transform="translate(70.0415625 276.490703125)scale(0.13 -0.13)">
       <use xlink:href="#ArialMT-34"/>
       <use x="55.615234375" xlink:href="#ArialMT-30"/>
      </g>
     </g>
    </g>
    <g id="ytick_6">
     <g id="line2d_22">
      <path clip-path="url(#pc376967237)" d="M 93.6 228.8 
L 673.92 228.8 
" style="fill:none;stroke:#ffffff;stroke-linecap:round;stroke-width:1.3;"/>
     </g>
     <g id="line2d_23">
      <g>
       <use style="fill:#262626;stroke:#262626;stroke-width:1.3;" x="93.6" xlink:href="#m07c19988f5" y="228.8"/>
      </g>
     </g>
     <g id="line2d_24">
      <g>
       <use style="fill:#262626;stroke:#262626;stroke-width:1.3;" x="673.92" xlink:href="#m07c19988f5" y="228.8"/>
      </g>
     </g>
     <g id="text_10">
      <!-- 50 -->
      <defs>
       <path d="M 4.15625 18.75 
L 13.375 19.53125 
Q 14.40625 12.796875 18.140625 9.390625 
Q 21.875 6 27.15625 6 
Q 33.5 6 37.890625 10.78125 
Q 42.28125 15.578125 42.28125 23.484375 
Q 42.28125 31 38.0625 35.34375 
Q 33.84375 39.703125 27 39.703125 
Q 22.75 39.703125 19.328125 37.765625 
Q 15.921875 35.84375 13.96875 32.765625 
L 5.71875 33.84375 
L 12.640625 70.609375 
L 48.25 70.609375 
L 48.25 62.203125 
L 19.671875 62.203125 
L 15.828125 42.96875 
Q 22.265625 47.46875 29.34375 47.46875 
Q 38.71875 47.46875 45.15625 40.96875 
Q 51.609375 34.46875 51.609375 24.265625 
Q 51.609375 14.546875 45.953125 7.46875 
Q 39.0625 -1.21875 27.15625 -1.21875 
Q 17.390625 -1.21875 11.203125 4.25 
Q 5.03125 9.71875 4.15625 18.75 
" id="ArialMT-35"/>
      </defs>
      <g style="fill:#262626;" transform="translate(70.0415625 232.160703125)scale(0.13 -0.13)">
       <use xlink:href="#ArialMT-35"/>
       <use x="55.615234375" xlink:href="#ArialMT-30"/>
      </g>
     </g>
    </g>
    <g id="ytick_7">
     <g id="line2d_25">
      <path clip-path="url(#pc376967237)" d="M 93.6 184.47 
L 673.92 184.47 
" style="fill:none;stroke:#ffffff;stroke-linecap:round;stroke-width:1.3;"/>
     </g>
     <g id="line2d_26">
      <g>
       <use style="fill:#262626;stroke:#262626;stroke-width:1.3;" x="93.6" xlink:href="#m07c19988f5" y="184.47"/>
      </g>
     </g>
     <g id="line2d_27">
      <g>
       <use style="fill:#262626;stroke:#262626;stroke-width:1.3;" x="673.92" xlink:href="#m07c19988f5" y="184.47"/>
      </g>
     </g>
     <g id="text_11">
      <!-- 60 -->
      <defs>
       <path d="M 49.75 54.046875 
L 41.015625 53.375 
Q 39.84375 58.546875 37.703125 60.890625 
Q 34.125 64.65625 28.90625 64.65625 
Q 24.703125 64.65625 21.53125 62.3125 
Q 17.390625 59.28125 14.984375 53.46875 
Q 12.59375 47.65625 12.5 36.921875 
Q 15.671875 41.75 20.265625 44.09375 
Q 24.859375 46.4375 29.890625 46.4375 
Q 38.671875 46.4375 44.84375 39.96875 
Q 51.03125 33.5 51.03125 23.25 
Q 51.03125 16.5 48.125 10.71875 
Q 45.21875 4.9375 40.140625 1.859375 
Q 35.0625 -1.21875 28.609375 -1.21875 
Q 17.625 -1.21875 10.6875 6.859375 
Q 3.765625 14.9375 3.765625 33.5 
Q 3.765625 54.25 11.421875 63.671875 
Q 18.109375 71.875 29.4375 71.875 
Q 37.890625 71.875 43.28125 67.140625 
Q 48.6875 62.40625 49.75 54.046875 
M 13.875 23.1875 
Q 13.875 18.65625 15.796875 14.5 
Q 17.71875 10.359375 21.1875 8.171875 
Q 24.65625 6 28.46875 6 
Q 34.03125 6 38.03125 10.484375 
Q 42.046875 14.984375 42.046875 22.703125 
Q 42.046875 30.125 38.078125 34.390625 
Q 34.125 38.671875 28.125 38.671875 
Q 22.171875 38.671875 18.015625 34.390625 
Q 13.875 30.125 13.875 23.1875 
" id="ArialMT-36"/>
      </defs>
      <g style="fill:#262626;" transform="translate(70.0415625 187.830703125)scale(0.13 -0.13)">
       <use xlink:href="#ArialMT-36"/>
       <use x="55.615234375" xlink:href="#ArialMT-30"/>
      </g>
     </g>
    </g>
    <g id="ytick_8">
     <g id="line2d_28">
      <path clip-path="url(#pc376967237)" d="M 93.6 140.14 
L 673.92 140.14 
" style="fill:none;stroke:#ffffff;stroke-linecap:round;stroke-width:1.3;"/>
     </g>
     <g id="line2d_29">
      <g>
       <use style="fill:#262626;stroke:#262626;stroke-width:1.3;" x="93.6" xlink:href="#m07c19988f5" y="140.14"/>
      </g>
     </g>
     <g id="line2d_30">
      <g>
       <use style="fill:#262626;stroke:#262626;stroke-width:1.3;" x="673.92" xlink:href="#m07c19988f5" y="140.14"/>
      </g>
     </g>
     <g id="text_12">
      <!-- 70 -->
      <defs>
       <path d="M 4.734375 62.203125 
L 4.734375 70.65625 
L 51.078125 70.65625 
L 51.078125 63.8125 
Q 44.234375 56.546875 37.515625 44.484375 
Q 30.8125 32.421875 27.15625 19.671875 
Q 24.515625 10.6875 23.78125 0 
L 14.75 0 
Q 14.890625 8.453125 18.0625 20.40625 
Q 21.234375 32.375 27.171875 43.484375 
Q 33.109375 54.59375 39.796875 62.203125 
z
" id="ArialMT-37"/>
      </defs>
      <g style="fill:#262626;" transform="translate(70.0415625 143.500703125)scale(0.13 -0.13)">
       <use xlink:href="#ArialMT-37"/>
       <use x="55.615234375" xlink:href="#ArialMT-30"/>
      </g>
     </g>
    </g>
    <g id="ytick_9">
     <g id="line2d_31">
      <path clip-path="url(#pc376967237)" d="M 93.6 95.81 
L 673.92 95.81 
" style="fill:none;stroke:#ffffff;stroke-linecap:round;stroke-width:1.3;"/>
     </g>
     <g id="line2d_32">
      <g>
       <use style="fill:#262626;stroke:#262626;stroke-width:1.3;" x="93.6" xlink:href="#m07c19988f5" y="95.81"/>
      </g>
     </g>
     <g id="line2d_33">
      <g>
       <use style="fill:#262626;stroke:#262626;stroke-width:1.3;" x="673.92" xlink:href="#m07c19988f5" y="95.81"/>
      </g>
     </g>
     <g id="text_13">
      <!-- 80 -->
      <defs>
       <path d="M 17.671875 38.8125 
Q 12.203125 40.828125 9.5625 44.53125 
Q 6.9375 48.25 6.9375 53.421875 
Q 6.9375 61.234375 12.546875 66.546875 
Q 18.171875 71.875 27.484375 71.875 
Q 36.859375 71.875 42.578125 66.421875 
Q 48.296875 60.984375 48.296875 53.171875 
Q 48.296875 48.1875 45.671875 44.5 
Q 43.0625 40.828125 37.75 38.8125 
Q 44.34375 36.671875 47.78125 31.875 
Q 51.21875 27.09375 51.21875 20.453125 
Q 51.21875 11.28125 44.71875 5.03125 
Q 38.234375 -1.21875 27.640625 -1.21875 
Q 17.046875 -1.21875 10.546875 5.046875 
Q 4.046875 11.328125 4.046875 20.703125 
Q 4.046875 27.6875 7.59375 32.390625 
Q 11.140625 37.109375 17.671875 38.8125 
M 15.921875 53.71875 
Q 15.921875 48.640625 19.1875 45.40625 
Q 22.46875 42.1875 27.6875 42.1875 
Q 32.765625 42.1875 36.015625 45.375 
Q 39.265625 48.578125 39.265625 53.21875 
Q 39.265625 58.0625 35.90625 61.359375 
Q 32.5625 64.65625 27.59375 64.65625 
Q 22.5625 64.65625 19.234375 61.421875 
Q 15.921875 58.203125 15.921875 53.71875 
M 13.09375 20.65625 
Q 13.09375 16.890625 14.875 13.375 
Q 16.65625 9.859375 20.171875 7.921875 
Q 23.6875 6 27.734375 6 
Q 34.03125 6 38.125 10.046875 
Q 42.234375 14.109375 42.234375 20.359375 
Q 42.234375 26.703125 38.015625 30.859375 
Q 33.796875 35.015625 27.4375 35.015625 
Q 21.234375 35.015625 17.15625 30.90625 
Q 13.09375 26.8125 13.09375 20.65625 
" id="ArialMT-38"/>
      </defs>
      <g style="fill:#262626;" transform="translate(70.0415625 99.170703125)scale(0.13 -0.13)">
       <use xlink:href="#ArialMT-38"/>
       <use x="55.615234375" xlink:href="#ArialMT-30"/>
      </g>
     </g>
    </g>
    <g id="ytick_10">
     <g id="line2d_34">
      <path clip-path="url(#pc376967237)" d="M 93.6 51.48 
L 673.92 51.48 
" style="fill:none;stroke:#ffffff;stroke-linecap:round;stroke-width:1.3;"/>
     </g>
     <g id="line2d_35">
      <g>
       <use style="fill:#262626;stroke:#262626;stroke-width:1.3;" x="93.6" xlink:href="#m07c19988f5" y="51.48"/>
      </g>
     </g>
     <g id="line2d_36">
      <g>
       <use style="fill:#262626;stroke:#262626;stroke-width:1.3;" x="673.92" xlink:href="#m07c19988f5" y="51.48"/>
      </g>
     </g>
     <g id="text_14">
      <!-- 90 -->
      <defs>
       <path d="M 5.46875 16.546875 
L 13.921875 17.328125 
Q 14.984375 11.375 18.015625 8.6875 
Q 21.046875 6 25.78125 6 
Q 29.828125 6 32.875 7.859375 
Q 35.9375 9.71875 37.890625 12.8125 
Q 39.84375 15.921875 41.15625 21.1875 
Q 42.484375 26.46875 42.484375 31.9375 
Q 42.484375 32.515625 42.4375 33.6875 
Q 39.796875 29.5 35.234375 26.875 
Q 30.671875 24.265625 25.34375 24.265625 
Q 16.453125 24.265625 10.296875 30.703125 
Q 4.15625 37.15625 4.15625 47.703125 
Q 4.15625 58.59375 10.578125 65.234375 
Q 17 71.875 26.65625 71.875 
Q 33.640625 71.875 39.421875 68.109375 
Q 45.21875 64.359375 48.21875 57.390625 
Q 51.21875 50.4375 51.21875 37.25 
Q 51.21875 23.53125 48.234375 15.40625 
Q 45.265625 7.28125 39.375 3.03125 
Q 33.5 -1.21875 25.59375 -1.21875 
Q 17.1875 -1.21875 11.859375 3.4375 
Q 6.546875 8.109375 5.46875 16.546875 
M 41.453125 48.140625 
Q 41.453125 55.71875 37.421875 60.15625 
Q 33.40625 64.59375 27.734375 64.59375 
Q 21.875 64.59375 17.53125 59.8125 
Q 13.1875 55.03125 13.1875 47.40625 
Q 13.1875 40.578125 17.3125 36.296875 
Q 21.4375 32.03125 27.484375 32.03125 
Q 33.59375 32.03125 37.515625 36.296875 
Q 41.453125 40.578125 41.453125 48.140625 
" id="ArialMT-39"/>
      </defs>
      <g style="fill:#262626;" transform="translate(70.0415625 54.840703125)scale(0.13 -0.13)">
       <use xlink:href="#ArialMT-39"/>
       <use x="55.615234375" xlink:href="#ArialMT-30"/>
      </g>
     </g>
    </g>
    <g id="text_15">
     <!-- Gespielte Runden -->
     <defs>
      <path d="M 40.578125 0 
L 40.578125 7.625 
Q 34.515625 -1.171875 24.125 -1.171875 
Q 19.53125 -1.171875 15.546875 0.578125 
Q 11.578125 2.34375 9.640625 5 
Q 7.71875 7.671875 6.9375 11.53125 
Q 6.390625 14.109375 6.390625 19.734375 
L 6.390625 51.859375 
L 15.1875 51.859375 
L 15.1875 23.09375 
Q 15.1875 16.21875 15.71875 13.8125 
Q 16.546875 10.359375 19.234375 8.375 
Q 21.921875 6.390625 25.875 6.390625 
Q 29.828125 6.390625 33.296875 8.421875 
Q 36.765625 10.453125 38.203125 13.9375 
Q 39.65625 17.4375 39.65625 24.078125 
L 39.65625 51.859375 
L 48.4375 51.859375 
L 48.4375 0 
z
" id="ArialMT-75"/>
      <path d="M 7.859375 0 
L 7.859375 71.578125 
L 39.59375 71.578125 
Q 49.171875 71.578125 54.140625 69.640625 
Q 59.125 67.71875 62.109375 62.828125 
Q 65.09375 57.953125 65.09375 52.046875 
Q 65.09375 44.4375 60.15625 39.203125 
Q 55.21875 33.984375 44.921875 32.5625 
Q 48.6875 30.765625 50.640625 29 
Q 54.78125 25.203125 58.5 19.484375 
L 70.953125 0 
L 59.03125 0 
L 49.5625 14.890625 
Q 45.40625 21.34375 42.71875 24.75 
Q 40.046875 28.171875 37.921875 29.53125 
Q 35.796875 30.90625 33.59375 31.453125 
Q 31.984375 31.78125 28.328125 31.78125 
L 17.328125 31.78125 
L 17.328125 0 
z
M 17.328125 39.984375 
L 37.703125 39.984375 
Q 44.1875 39.984375 47.84375 41.328125 
Q 51.515625 42.671875 53.421875 45.625 
Q 55.328125 48.578125 55.328125 52.046875 
Q 55.328125 57.125 51.640625 60.390625 
Q 47.953125 63.671875 39.984375 63.671875 
L 17.328125 63.671875 
z
" id="ArialMT-52"/>
      <path id="ArialMT-20"/>
      <path d="M 6.390625 0 
L 6.390625 71.578125 
L 15.1875 71.578125 
L 15.1875 0 
z
" id="ArialMT-6c"/>
      <path d="M 41.21875 28.078125 
L 41.21875 36.46875 
L 71.53125 36.53125 
L 71.53125 9.96875 
Q 64.546875 4.390625 57.125 1.578125 
Q 49.703125 -1.21875 41.890625 -1.21875 
Q 31.34375 -1.21875 22.71875 3.296875 
Q 14.109375 7.8125 9.71875 16.359375 
Q 5.328125 24.90625 5.328125 35.453125 
Q 5.328125 45.90625 9.6875 54.953125 
Q 14.0625 64.015625 22.265625 68.40625 
Q 30.46875 72.796875 41.15625 72.796875 
Q 48.921875 72.796875 55.1875 70.28125 
Q 61.46875 67.78125 65.03125 63.28125 
Q 68.609375 58.796875 70.453125 51.5625 
L 61.921875 49.21875 
Q 60.296875 54.6875 57.90625 57.8125 
Q 55.515625 60.9375 51.0625 62.8125 
Q 46.625 64.703125 41.21875 64.703125 
Q 34.71875 64.703125 29.984375 62.71875 
Q 25.25 60.75 22.34375 57.515625 
Q 19.4375 54.296875 17.828125 50.4375 
Q 15.09375 43.796875 15.09375 36.03125 
Q 15.09375 26.46875 18.390625 20.015625 
Q 21.6875 13.578125 27.984375 10.453125 
Q 34.28125 7.328125 41.359375 7.328125 
Q 47.515625 7.328125 53.375 9.6875 
Q 59.234375 12.0625 62.25 14.75 
L 62.25 28.078125 
z
" id="ArialMT-47"/>
      <path d="M 6.59375 -19.875 
L 6.59375 51.859375 
L 14.59375 51.859375 
L 14.59375 45.125 
Q 17.4375 49.078125 21 51.046875 
Q 24.5625 53.03125 29.640625 53.03125 
Q 36.28125 53.03125 41.359375 49.609375 
Q 46.4375 46.1875 49.015625 39.953125 
Q 51.609375 33.734375 51.609375 26.3125 
Q 51.609375 18.359375 48.75 11.984375 
Q 45.90625 5.609375 40.453125 2.21875 
Q 35.015625 -1.171875 29 -1.171875 
Q 24.609375 -1.171875 21.109375 0.6875 
Q 17.625 2.546875 15.375 5.375 
L 15.375 -19.875 
z
M 14.546875 25.640625 
Q 14.546875 15.625 18.59375 10.84375 
Q 22.65625 6.0625 28.421875 6.0625 
Q 34.28125 6.0625 38.453125 11.015625 
Q 42.625 15.96875 42.625 26.375 
Q 42.625 36.28125 38.546875 41.203125 
Q 34.46875 46.140625 28.8125 46.140625 
Q 23.1875 46.140625 18.859375 40.890625 
Q 14.546875 35.640625 14.546875 25.640625 
" id="ArialMT-70"/>
      <path d="M 3.078125 15.484375 
L 11.765625 16.84375 
Q 12.5 11.625 15.84375 8.84375 
Q 19.1875 6.0625 25.203125 6.0625 
Q 31.25 6.0625 34.171875 8.515625 
Q 37.109375 10.984375 37.109375 14.3125 
Q 37.109375 17.28125 34.515625 19 
Q 32.71875 20.171875 25.53125 21.96875 
Q 15.875 24.421875 12.140625 26.203125 
Q 8.40625 27.984375 6.46875 31.125 
Q 4.546875 34.28125 4.546875 38.09375 
Q 4.546875 41.546875 6.125 44.5 
Q 7.71875 47.46875 10.453125 49.421875 
Q 12.5 50.921875 16.03125 51.96875 
Q 19.578125 53.03125 23.640625 53.03125 
Q 29.734375 53.03125 34.34375 51.265625 
Q 38.96875 49.515625 41.15625 46.5 
Q 43.359375 43.5 44.1875 38.484375 
L 35.59375 37.3125 
Q 35.015625 41.3125 32.203125 43.546875 
Q 29.390625 45.796875 24.265625 45.796875 
Q 18.21875 45.796875 15.625 43.796875 
Q 13.03125 41.796875 13.03125 39.109375 
Q 13.03125 37.40625 14.109375 36.03125 
Q 15.1875 34.625 17.484375 33.6875 
Q 18.796875 33.203125 25.25 31.453125 
Q 34.578125 28.953125 38.25 27.359375 
Q 41.9375 25.78125 44.03125 22.75 
Q 46.140625 19.734375 46.140625 15.234375 
Q 46.140625 10.84375 43.578125 6.953125 
Q 41.015625 3.078125 36.171875 0.953125 
Q 31.34375 -1.171875 25.25 -1.171875 
Q 15.140625 -1.171875 9.84375 3.03125 
Q 4.546875 7.234375 3.078125 15.484375 
" id="ArialMT-73"/>
     </defs>
     <g style="fill:#262626;" transform="translate(62.1994375 308.199632813)rotate(-90.0)scale(0.14300000000000002 -0.14300000000000002)">
      <use xlink:href="#ArialMT-47"/>
      <use x="77.783203125" xlink:href="#ArialMT-65"/>
      <use x="133.3984375" xlink:href="#ArialMT-73"/>
      <use x="183.3984375" xlink:href="#ArialMT-70"/>
      <use x="239.013671875" xlink:href="#ArialMT-69"/>
      <use x="261.23046875" xlink:href="#ArialMT-65"/>
      <use x="316.845703125" xlink:href="#ArialMT-6c"/>
      <use x="339.0625" xlink:href="#ArialMT-74"/>
      <use x="366.845703125" xlink:href="#ArialMT-65"/>
      <use x="422.4609375" xlink:href="#ArialMT-20"/>
      <use x="450.244140625" xlink:href="#ArialMT-52"/>
      <use x="522.4609375" xlink:href="#ArialMT-75"/>
      <use x="578.076171875" xlink:href="#ArialMT-6e"/>
      <use x="633.69140625" xlink:href="#ArialMT-64"/>
      <use x="689.306640625" xlink:href="#ArialMT-65"/>
      <use x="744.921875" xlink:href="#ArialMT-6e"/>
     </g>
    </g>
   </g>
   <g id="PolyCollection_1">
    <defs>
     <path d="M 151.632782 -105.691702 
L 151.631218 -105.691702 
L 151.629446 -108.214849 
L 151.626407 -110.737997 
L 151.623223 -113.261144 
L 151.62086 -115.784291 
L 151.617917 -118.307439 
L 151.610442 -120.830586 
L 151.595122 -123.353734 
L 151.573254 -125.876881 
L 151.546481 -128.400029 
L 151.508745 -130.923176 
L 151.450032 -133.446324 
L 151.366794 -135.969471 
L 151.2664 -138.492618 
L 151.16144 -141.015766 
L 151.05626 -143.538913 
L 150.942286 -146.062061 
L 150.807015 -148.585208 
L 150.647548 -151.108356 
L 150.463957 -153.631503 
L 150.224975 -156.154651 
L 149.88594 -158.677798 
L 149.471827 -161.200945 
L 149.060637 -163.724093 
L 148.671711 -166.24724 
L 148.250867 -168.770388 
L 147.743295 -171.293535 
L 147.155583 -173.816683 
L 146.549904 -176.33983 
L 145.969439 -178.862977 
L 145.403537 -181.386125 
L 144.815007 -183.909272 
L 144.168109 -186.43242 
L 143.441772 -188.955567 
L 142.639883 -191.478715 
L 141.793715 -194.001862 
L 140.942028 -196.52501 
L 140.089826 -199.048157 
L 139.199953 -201.571304 
L 138.306577 -204.094452 
L 137.558087 -206.617599 
L 136.962209 -209.140747 
L 136.292716 -211.663894 
L 135.448423 -214.187042 
L 134.543355 -216.710189 
L 133.604012 -219.233337 
L 132.60799 -221.756484 
L 131.699337 -224.279631 
L 130.985134 -226.802779 
L 130.361001 -229.325926 
L 129.792315 -231.849074 
L 129.394007 -234.372221 
L 129.146407 -236.895369 
L 128.948563 -239.418516 
L 128.899271 -241.941663 
L 129.195506 -244.464811 
L 129.870592 -246.987958 
L 130.778661 -249.511106 
L 131.780517 -252.034253 
L 132.943419 -254.557401 
L 134.430714 -257.080548 
L 136.225936 -259.603696 
L 138.134177 -262.126843 
L 139.952228 -264.64999 
L 141.581125 -267.173138 
L 143.023928 -269.696285 
L 144.308692 -272.219433 
L 145.443477 -274.74258 
L 146.427137 -277.265728 
L 147.275017 -279.788875 
L 148.017853 -282.312023 
L 148.661268 -284.83517 
L 149.187535 -287.358317 
L 149.614641 -289.881465 
L 149.98149 -292.404612 
L 150.284439 -294.92776 
L 150.512813 -297.450907 
L 150.706093 -299.974055 
L 150.90644 -302.497202 
L 151.108343 -305.020349 
L 151.281941 -307.543497 
L 151.405064 -310.066644 
L 151.473223 -312.589792 
L 151.496868 -315.112939 
L 151.496336 -317.636087 
L 151.495498 -320.159234 
L 151.51066 -322.682382 
L 151.538155 -325.205529 
L 151.562239 -327.728676 
L 151.577414 -330.251824 
L 151.589532 -332.774971 
L 151.602615 -335.298119 
L 151.61443 -337.821266 
L 151.620265 -340.344414 
L 151.618739 -342.867561 
L 151.613977 -345.390709 
L 151.612555 -347.913856 
L 151.617455 -350.437003 
L 151.624825 -352.960151 
L 151.629721 -355.483298 
L 151.634279 -355.483298 
L 151.634279 -355.483298 
L 151.639175 -352.960151 
L 151.646545 -350.437003 
L 151.651445 -347.913856 
L 151.650023 -345.390709 
L 151.645261 -342.867561 
L 151.643735 -340.344414 
L 151.64957 -337.821266 
L 151.661385 -335.298119 
L 151.674468 -332.774971 
L 151.686586 -330.251824 
L 151.701761 -327.728676 
L 151.725845 -325.205529 
L 151.75334 -322.682382 
L 151.768502 -320.159234 
L 151.767664 -317.636087 
L 151.767132 -315.112939 
L 151.790777 -312.589792 
L 151.858936 -310.066644 
L 151.982059 -307.543497 
L 152.155657 -305.020349 
L 152.35756 -302.497202 
L 152.557907 -299.974055 
L 152.751187 -297.450907 
L 152.979561 -294.92776 
L 153.28251 -292.404612 
L 153.649359 -289.881465 
L 154.076465 -287.358317 
L 154.602732 -284.83517 
L 155.246147 -282.312023 
L 155.988983 -279.788875 
L 156.836863 -277.265728 
L 157.820523 -274.74258 
L 158.955308 -272.219433 
L 160.240072 -269.696285 
L 161.682875 -267.173138 
L 163.311772 -264.64999 
L 165.129823 -262.126843 
L 167.038064 -259.603696 
L 168.833286 -257.080548 
L 170.320581 -254.557401 
L 171.483483 -252.034253 
L 172.485339 -249.511106 
L 173.393408 -246.987958 
L 174.068494 -244.464811 
L 174.364729 -241.941663 
L 174.315437 -239.418516 
L 174.117593 -236.895369 
L 173.869993 -234.372221 
L 173.471685 -231.849074 
L 172.902999 -229.325926 
L 172.278866 -226.802779 
L 171.564663 -224.279631 
L 170.65601 -221.756484 
L 169.659988 -219.233337 
L 168.720645 -216.710189 
L 167.815577 -214.187042 
L 166.971284 -211.663894 
L 166.301791 -209.140747 
L 165.705913 -206.617599 
L 164.957423 -204.094452 
L 164.064047 -201.571304 
L 163.174174 -199.048157 
L 162.321972 -196.52501 
L 161.470285 -194.001862 
L 160.624117 -191.478715 
L 159.822228 -188.955567 
L 159.095891 -186.43242 
L 158.448993 -183.909272 
L 157.860463 -181.386125 
L 157.294561 -178.862977 
L 156.714096 -176.33983 
L 156.108417 -173.816683 
L 155.520705 -171.293535 
L 155.013133 -168.770388 
L 154.592289 -166.24724 
L 154.203363 -163.724093 
L 153.792173 -161.200945 
L 153.37806 -158.677798 
L 153.039025 -156.154651 
L 152.800043 -153.631503 
L 152.616452 -151.108356 
L 152.456985 -148.585208 
L 152.321714 -146.062061 
L 152.20774 -143.538913 
L 152.10256 -141.015766 
L 151.9976 -138.492618 
L 151.897206 -135.969471 
L 151.813968 -133.446324 
L 151.755255 -130.923176 
L 151.717519 -128.400029 
L 151.690746 -125.876881 
L 151.668878 -123.353734 
L 151.653558 -120.830586 
L 151.646083 -118.307439 
L 151.64314 -115.784291 
L 151.640777 -113.261144 
L 151.637593 -110.737997 
L 151.634554 -108.214849 
L 151.632782 -105.691702 
z
" id="m1b4e861cf3" style="stroke:#5875a4;stroke-width:2.275;"/>
    </defs>
    <g clip-path="url(#pc376967237)">
     <use style="fill:#5875a4;stroke:#5875a4;stroke-width:2.275;" x="0.0" xlink:href="#m1b4e861cf3" y="514.8"/>
    </g>
   </g>
   <g id="PolyCollection_2">
    <defs>
     <path d="M 229.011274 -184.539421 
L 229.004726 -184.539421 
L 228.994886 -186.275685 
L 228.982106 -188.011949 
L 228.973678 -189.748213 
L 228.957368 -191.484478 
L 228.933165 -193.220742 
L 228.885322 -194.957006 
L 228.802798 -196.69327 
L 228.722973 -198.429534 
L 228.558932 -200.165799 
L 228.359473 -201.902063 
L 228.11155 -203.638327 
L 227.627194 -205.374591 
L 227.217083 -207.110856 
L 226.475749 -208.84712 
L 225.524036 -210.583384 
L 224.870994 -212.319648 
L 223.363677 -214.055913 
L 222.185056 -215.792177 
L 220.637824 -217.528441 
L 218.119657 -219.264705 
L 217.335265 -221.000969 
L 215.035451 -222.737234 
L 212.919272 -224.473498 
L 211.339565 -226.209762 
L 207.107626 -227.946026 
L 206.055901 -229.682291 
L 203.094962 -231.418555 
L 199.759018 -233.154819 
L 199.983739 -234.891083 
L 195.798008 -236.627348 
L 195.287886 -238.363612 
L 193.977602 -240.099876 
L 190.331898 -241.83614 
L 192.712747 -243.572404 
L 190.32 -245.308669 
L 190.822148 -247.044933 
L 193.261695 -248.781197 
L 191.459498 -250.517461 
L 195.601923 -252.253726 
L 196.644387 -253.98999 
L 197.785475 -255.726254 
L 201.763256 -257.462518 
L 201.608653 -259.198783 
L 204.925007 -260.935047 
L 206.896093 -262.671311 
L 207.753841 -264.407575 
L 211.143176 -266.143839 
L 211.693695 -267.880104 
L 213.777933 -269.616368 
L 215.614535 -271.352632 
L 216.189236 -273.088896 
L 218.573362 -274.825161 
L 219.445875 -276.561425 
L 220.750073 -278.297689 
L 222.393235 -280.033953 
L 222.926455 -281.770217 
L 223.993154 -283.506482 
L 224.371445 -285.242746 
L 224.850424 -286.97901 
L 225.644071 -288.715274 
L 225.880193 -290.451539 
L 226.468718 -292.187803 
L 226.825557 -293.924067 
L 227.061464 -295.660331 
L 227.464875 -297.396596 
L 227.592802 -299.13286 
L 227.846482 -300.869124 
L 228.037998 -302.605388 
L 228.135435 -304.341652 
L 228.325334 -306.077917 
L 228.396097 -307.814181 
L 228.502462 -309.550445 
L 228.603944 -311.286709 
L 228.645673 -313.022974 
L 228.722269 -314.759238 
L 228.751837 -316.495502 
L 228.784989 -318.231766 
L 228.817779 -319.968031 
L 228.828697 -321.704295 
L 228.872942 -323.440559 
L 228.901994 -325.176823 
L 228.91668 -326.913087 
L 228.926427 -328.649352 
L 228.927071 -330.385616 
L 228.947806 -332.12188 
L 228.966797 -333.858144 
L 228.97496 -335.594409 
L 228.98002 -337.330673 
L 228.980272 -339.066937 
L 228.985282 -340.803201 
L 228.989864 -342.539466 
L 228.993413 -344.27573 
L 229.000963 -346.011994 
L 229.006117 -347.748258 
L 229.00633 -349.484522 
L 229.004076 -351.220787 
L 229.003302 -352.957051 
L 229.005413 -354.693315 
L 229.007346 -356.429579 
L 229.008654 -356.429579 
L 229.008654 -356.429579 
L 229.010587 -354.693315 
L 229.012698 -352.957051 
L 229.011924 -351.220787 
L 229.00967 -349.484522 
L 229.009883 -347.748258 
L 229.015037 -346.011994 
L 229.022587 -344.27573 
L 229.026136 -342.539466 
L 229.030718 -340.803201 
L 229.035728 -339.066937 
L 229.03598 -337.330673 
L 229.04104 -335.594409 
L 229.049203 -333.858144 
L 229.068194 -332.12188 
L 229.088929 -330.385616 
L 229.089573 -328.649352 
L 229.09932 -326.913087 
L 229.114006 -325.176823 
L 229.143058 -323.440559 
L 229.187303 -321.704295 
L 229.198221 -319.968031 
L 229.231011 -318.231766 
L 229.264163 -316.495502 
L 229.293731 -314.759238 
L 229.370327 -313.022974 
L 229.412056 -311.286709 
L 229.513538 -309.550445 
L 229.619903 -307.814181 
L 229.690666 -306.077917 
L 229.880565 -304.341652 
L 229.978002 -302.605388 
L 230.169518 -300.869124 
L 230.423198 -299.13286 
L 230.551125 -297.396596 
L 230.954536 -295.660331 
L 231.190443 -293.924067 
L 231.547282 -292.187803 
L 232.135807 -290.451539 
L 232.371929 -288.715274 
L 233.165576 -286.97901 
L 233.644555 -285.242746 
L 234.022846 -283.506482 
L 235.089545 -281.770217 
L 235.622765 -280.033953 
L 237.265927 -278.297689 
L 238.570125 -276.561425 
L 239.442638 -274.825161 
L 241.826764 -273.088896 
L 242.401465 -271.352632 
L 244.238067 -269.616368 
L 246.322305 -267.880104 
L 246.872824 -266.143839 
L 250.262159 -264.407575 
L 251.119907 -262.671311 
L 253.090993 -260.935047 
L 256.407347 -259.198783 
L 256.252744 -257.462518 
L 260.230525 -255.726254 
L 261.371613 -253.98999 
L 262.414077 -252.253726 
L 266.556502 -250.517461 
L 264.754305 -248.781197 
L 267.193852 -247.044933 
L 267.696 -245.308669 
L 265.303253 -243.572404 
L 267.684102 -241.83614 
L 264.038398 -240.099876 
L 262.728114 -238.363612 
L 262.217992 -236.627348 
L 258.032261 -234.891083 
L 258.256982 -233.154819 
L 254.921038 -231.418555 
L 251.960099 -229.682291 
L 250.908374 -227.946026 
L 246.676435 -226.209762 
L 245.096728 -224.473498 
L 242.980549 -222.737234 
L 240.680735 -221.000969 
L 239.896343 -219.264705 
L 237.378176 -217.528441 
L 235.830944 -215.792177 
L 234.652323 -214.055913 
L 233.145006 -212.319648 
L 232.491964 -210.583384 
L 231.540251 -208.84712 
L 230.798917 -207.110856 
L 230.388806 -205.374591 
L 229.90445 -203.638327 
L 229.656527 -201.902063 
L 229.457068 -200.165799 
L 229.293027 -198.429534 
L 229.213202 -196.69327 
L 229.130678 -194.957006 
L 229.082835 -193.220742 
L 229.058632 -191.484478 
L 229.042322 -189.748213 
L 229.033894 -188.011949 
L 229.021114 -186.275685 
L 229.011274 -184.539421 
z
" id="m5b5cb93c0a" style="stroke:#5f9e6e;stroke-width:2.275;"/>
    </defs>
    <g clip-path="url(#pc376967237)">
     <use style="fill:#5f9e6e;stroke:#5f9e6e;stroke-width:2.275;" x="0.0" xlink:href="#m5b5cb93c0a" y="514.8"/>
    </g>
   </g>
   <g id="PolyCollection_3">
    <defs>
     <path d="M 345.07344 -105.285783 
L 345.07056 -105.285783 
L 345.067189 -108.175353 
L 345.062606 -111.064924 
L 345.060848 -113.954494 
L 345.062095 -116.844064 
L 345.060147 -119.733634 
L 345.049246 -122.623204 
L 345.025275 -125.512774 
L 344.985869 -128.402344 
L 344.935203 -131.291914 
L 344.880295 -134.181484 
L 344.822082 -137.071054 
L 344.752035 -139.960624 
L 344.651315 -142.850194 
L 344.496059 -145.739764 
L 344.27061 -148.629334 
L 343.973322 -151.518904 
L 343.622991 -154.408474 
L 343.266313 -157.298044 
L 342.935003 -160.187614 
L 342.596156 -163.077184 
L 342.193555 -165.966754 
L 341.702634 -168.856324 
L 341.129865 -171.745894 
L 340.49257 -174.635464 
L 339.809461 -177.525034 
L 339.09726 -180.414604 
L 338.358061 -183.304174 
L 337.572693 -186.193744 
L 336.728956 -189.083314 
L 335.867904 -191.972884 
L 335.044481 -194.862454 
L 334.220063 -197.752024 
L 333.304927 -200.641594 
L 332.264241 -203.531165 
L 331.125118 -206.420735 
L 329.9982 -209.310305 
L 329.009746 -212.199875 
L 328.079727 -215.089445 
L 326.999114 -217.979015 
L 325.751374 -220.868585 
L 324.550306 -223.758155 
L 323.595655 -226.647725 
L 322.890718 -229.537295 
L 322.334984 -232.426865 
L 321.795128 -235.316435 
L 321.15797 -238.206005 
L 320.594186 -241.095575 
L 320.406218 -243.985145 
L 320.549406 -246.874715 
L 320.925391 -249.764285 
L 321.690922 -252.653855 
L 322.865028 -255.543425 
L 324.223457 -258.432995 
L 325.601851 -261.322565 
L 327.025998 -264.212135 
L 328.561064 -267.101705 
L 330.189442 -269.991275 
L 331.884218 -272.880845 
L 333.584192 -275.770415 
L 335.14735 -278.659985 
L 336.509543 -281.549555 
L 337.722935 -284.439125 
L 338.825039 -287.328695 
L 339.822162 -290.218265 
L 340.721906 -293.107835 
L 341.514123 -295.997406 
L 342.167219 -298.886976 
L 342.687726 -301.776546 
L 343.151306 -304.666116 
L 343.593475 -307.555686 
L 343.954097 -310.445256 
L 344.185124 -313.334826 
L 344.319377 -316.224396 
L 344.425536 -319.113966 
L 344.533802 -322.003536 
L 344.635498 -324.893106 
L 344.724024 -327.782676 
L 344.803117 -330.672246 
L 344.871604 -333.561816 
L 344.919923 -336.451386 
L 344.947468 -339.340956 
L 344.968992 -342.230526 
L 344.997718 -345.120096 
L 345.027896 -348.009666 
L 345.046248 -350.899236 
L 345.053498 -353.788806 
L 345.057024 -356.678376 
L 345.05905 -359.567946 
L 345.05932 -362.457516 
L 345.058084 -365.347086 
L 345.057049 -368.236656 
L 345.059256 -371.126226 
L 345.064449 -374.015796 
L 345.068151 -376.905366 
L 345.068078 -379.794936 
L 345.066735 -382.684506 
L 345.067356 -385.574076 
L 345.0696 -388.463647 
L 345.07128 -391.353217 
L 345.07272 -391.353217 
L 345.07272 -391.353217 
L 345.0744 -388.463647 
L 345.076644 -385.574076 
L 345.077265 -382.684506 
L 345.075922 -379.794936 
L 345.075849 -376.905366 
L 345.079551 -374.015796 
L 345.084744 -371.126226 
L 345.086951 -368.236656 
L 345.085916 -365.347086 
L 345.08468 -362.457516 
L 345.08495 -359.567946 
L 345.086976 -356.678376 
L 345.090502 -353.788806 
L 345.097752 -350.899236 
L 345.116104 -348.009666 
L 345.146282 -345.120096 
L 345.175008 -342.230526 
L 345.196532 -339.340956 
L 345.224077 -336.451386 
L 345.272396 -333.561816 
L 345.340883 -330.672246 
L 345.419976 -327.782676 
L 345.508502 -324.893106 
L 345.610198 -322.003536 
L 345.718464 -319.113966 
L 345.824623 -316.224396 
L 345.958876 -313.334826 
L 346.189903 -310.445256 
L 346.550525 -307.555686 
L 346.992694 -304.666116 
L 347.456274 -301.776546 
L 347.976781 -298.886976 
L 348.629877 -295.997406 
L 349.422094 -293.107835 
L 350.321838 -290.218265 
L 351.318961 -287.328695 
L 352.421065 -284.439125 
L 353.634457 -281.549555 
L 354.99665 -278.659985 
L 356.559808 -275.770415 
L 358.259782 -272.880845 
L 359.954558 -269.991275 
L 361.582936 -267.101705 
L 363.118002 -264.212135 
L 364.542149 -261.322565 
L 365.920543 -258.432995 
L 367.278972 -255.543425 
L 368.453078 -252.653855 
L 369.218609 -249.764285 
L 369.594594 -246.874715 
L 369.737782 -243.985145 
L 369.549814 -241.095575 
L 368.98603 -238.206005 
L 368.348872 -235.316435 
L 367.809016 -232.426865 
L 367.253282 -229.537295 
L 366.548345 -226.647725 
L 365.593694 -223.758155 
L 364.392626 -220.868585 
L 363.144886 -217.979015 
L 362.064273 -215.089445 
L 361.134254 -212.199875 
L 360.1458 -209.310305 
L 359.018882 -206.420735 
L 357.879759 -203.531165 
L 356.839073 -200.641594 
L 355.923937 -197.752024 
L 355.099519 -194.862454 
L 354.276096 -191.972884 
L 353.415044 -189.083314 
L 352.571307 -186.193744 
L 351.785939 -183.304174 
L 351.04674 -180.414604 
L 350.334539 -177.525034 
L 349.65143 -174.635464 
L 349.014135 -171.745894 
L 348.441366 -168.856324 
L 347.950445 -165.966754 
L 347.547844 -163.077184 
L 347.208997 -160.187614 
L 346.877687 -157.298044 
L 346.521009 -154.408474 
L 346.170678 -151.518904 
L 345.87339 -148.629334 
L 345.647941 -145.739764 
L 345.492685 -142.850194 
L 345.391965 -139.960624 
L 345.321918 -137.071054 
L 345.263705 -134.181484 
L 345.208797 -131.291914 
L 345.158131 -128.402344 
L 345.118725 -125.512774 
L 345.094754 -122.623204 
L 345.083853 -119.733634 
L 345.081905 -116.844064 
L 345.083152 -113.954494 
L 345.081394 -111.064924 
L 345.076811 -108.175353 
L 345.07344 -105.285783 
z
" id="m53522c1c1f" style="stroke:#5875a4;stroke-width:2.275;"/>
    </defs>
    <g clip-path="url(#pc376967237)">
     <use style="fill:#5875a4;stroke:#5875a4;stroke-width:2.275;" x="0.0" xlink:href="#m53522c1c1f" y="514.8"/>
    </g>
   </g>
   <g id="PolyCollection_4">
    <defs>
     <path d="M 422.453831 -188.346702 
L 422.442169 -188.346702 
L 422.425058 -190.274718 
L 422.39754 -192.202734 
L 422.364322 -194.13075 
L 422.313528 -196.058766 
L 422.248694 -197.986782 
L 422.147337 -199.914798 
L 422.002446 -201.842815 
L 421.790079 -203.770831 
L 421.505221 -205.698847 
L 421.25232 -207.626863 
L 420.88349 -209.554879 
L 420.355928 -211.482895 
L 419.492764 -213.410911 
L 418.477918 -215.338927 
L 417.332612 -217.266944 
L 415.871236 -219.19496 
L 414.631606 -221.122976 
L 412.871804 -223.050992 
L 411.061366 -224.979008 
L 408.577224 -226.907024 
L 406.021259 -228.83504 
L 403.696582 -230.763056 
L 400.6936 -232.691073 
L 398.646257 -234.619089 
L 395.62808 -236.547105 
L 393.807683 -238.475121 
L 391.698551 -240.403137 
L 389.705712 -242.331153 
L 388.427786 -244.259169 
L 386.194621 -246.187186 
L 385.708153 -248.115202 
L 383.948993 -250.043218 
L 384.026884 -251.971234 
L 383.76 -253.89925 
L 383.951156 -255.827266 
L 385.180258 -257.755282 
L 385.549596 -259.683298 
L 387.850809 -261.611315 
L 388.880886 -263.539331 
L 391.177799 -265.467347 
L 392.881062 -267.395363 
L 394.854009 -269.323379 
L 397.336629 -271.251395 
L 398.942864 -273.179411 
L 401.273454 -275.107427 
L 402.656285 -277.035444 
L 404.894344 -278.96346 
L 406.648401 -280.891476 
L 408.332306 -282.819492 
L 409.934358 -284.747508 
L 411.069219 -286.675524 
L 412.454872 -288.60354 
L 413.342943 -290.531556 
L 414.58227 -292.459573 
L 415.477785 -294.387589 
L 416.302557 -296.315605 
L 416.989079 -298.243621 
L 417.646169 -300.171637 
L 418.542029 -302.099653 
L 419.135056 -304.027669 
L 419.641548 -305.955685 
L 419.946429 -307.883702 
L 420.295399 -309.811718 
L 420.599664 -311.739734 
L 420.859571 -313.66775 
L 421.132461 -315.595766 
L 421.319928 -317.523782 
L 421.519169 -319.451798 
L 421.645245 -321.379814 
L 421.751921 -323.307831 
L 421.824259 -325.235847 
L 421.920892 -327.163863 
L 422.039732 -329.091879 
L 422.113989 -331.019895 
L 422.164895 -332.947911 
L 422.195844 -334.875927 
L 422.242131 -336.803944 
L 422.278086 -338.73196 
L 422.29706 -340.659976 
L 422.303427 -342.587992 
L 422.313985 -344.516008 
L 422.336206 -346.444024 
L 422.356844 -348.37204 
L 422.386304 -350.300056 
L 422.408149 -352.228073 
L 422.411494 -354.156089 
L 422.404936 -356.084105 
L 422.404403 -358.012121 
L 422.410303 -359.940137 
L 422.418384 -361.868153 
L 422.432511 -363.796169 
L 422.443698 -365.724185 
L 422.447359 -367.652202 
L 422.447513 -369.580218 
L 422.445945 -371.508234 
L 422.443378 -373.43625 
L 422.442911 -375.364266 
L 422.445259 -377.292282 
L 422.447278 -379.220298 
L 422.448722 -379.220298 
L 422.448722 -379.220298 
L 422.450741 -377.292282 
L 422.453089 -375.364266 
L 422.452622 -373.43625 
L 422.450055 -371.508234 
L 422.448487 -369.580218 
L 422.448641 -367.652202 
L 422.452302 -365.724185 
L 422.463489 -363.796169 
L 422.477616 -361.868153 
L 422.485697 -359.940137 
L 422.491597 -358.012121 
L 422.491064 -356.084105 
L 422.484506 -354.156089 
L 422.487851 -352.228073 
L 422.509696 -350.300056 
L 422.539156 -348.37204 
L 422.559794 -346.444024 
L 422.582015 -344.516008 
L 422.592573 -342.587992 
L 422.59894 -340.659976 
L 422.617914 -338.73196 
L 422.653869 -336.803944 
L 422.700156 -334.875927 
L 422.731105 -332.947911 
L 422.782011 -331.019895 
L 422.856268 -329.091879 
L 422.975108 -327.163863 
L 423.071741 -325.235847 
L 423.144079 -323.307831 
L 423.250755 -321.379814 
L 423.376831 -319.451798 
L 423.576072 -317.523782 
L 423.763539 -315.595766 
L 424.036429 -313.66775 
L 424.296336 -311.739734 
L 424.600601 -309.811718 
L 424.949571 -307.883702 
L 425.254452 -305.955685 
L 425.760944 -304.027669 
L 426.353971 -302.099653 
L 427.249831 -300.171637 
L 427.906921 -298.243621 
L 428.593443 -296.315605 
L 429.418215 -294.387589 
L 430.31373 -292.459573 
L 431.553057 -290.531556 
L 432.441128 -288.60354 
L 433.826781 -286.675524 
L 434.961642 -284.747508 
L 436.563694 -282.819492 
L 438.247599 -280.891476 
L 440.001656 -278.96346 
L 442.239715 -277.035444 
L 443.622546 -275.107427 
L 445.953136 -273.179411 
L 447.559371 -271.251395 
L 450.041991 -269.323379 
L 452.014938 -267.395363 
L 453.718201 -265.467347 
L 456.015114 -263.539331 
L 457.045191 -261.611315 
L 459.346404 -259.683298 
L 459.715742 -257.755282 
L 460.944844 -255.827266 
L 461.136 -253.89925 
L 460.869116 -251.971234 
L 460.947007 -250.043218 
L 459.187847 -248.115202 
L 458.701379 -246.187186 
L 456.468214 -244.259169 
L 455.190288 -242.331153 
L 453.197449 -240.403137 
L 451.088317 -238.475121 
L 449.26792 -236.547105 
L 446.249743 -234.619089 
L 444.2024 -232.691073 
L 441.199418 -230.763056 
L 438.874741 -228.83504 
L 436.318776 -226.907024 
L 433.834634 -224.979008 
L 432.024196 -223.050992 
L 430.264394 -221.122976 
L 429.024764 -219.19496 
L 427.563388 -217.266944 
L 426.418082 -215.338927 
L 425.403236 -213.410911 
L 424.540072 -211.482895 
L 424.01251 -209.554879 
L 423.64368 -207.626863 
L 423.390779 -205.698847 
L 423.105921 -203.770831 
L 422.893554 -201.842815 
L 422.748663 -199.914798 
L 422.647306 -197.986782 
L 422.582472 -196.058766 
L 422.531678 -194.13075 
L 422.49846 -192.202734 
L 422.470942 -190.274718 
L 422.453831 -188.346702 
z
" id="m2291f0de6d" style="stroke:#5f9e6e;stroke-width:2.275;"/>
    </defs>
    <g clip-path="url(#pc376967237)">
     <use style="fill:#5f9e6e;stroke:#5f9e6e;stroke-width:2.275;" x="0.0" xlink:href="#m2291f0de6d" y="514.8"/>
    </g>
   </g>
   <g id="PolyCollection_5">
    <defs>
     <path d="M 538.512604 -104.702697 
L 538.511396 -104.702697 
L 538.509925 -107.827935 
L 538.507514 -110.953174 
L 538.504267 -114.078412 
L 538.497207 -117.203651 
L 538.482506 -120.328889 
L 538.45994 -123.454128 
L 538.427739 -126.579366 
L 538.381719 -129.704605 
L 538.323966 -132.829843 
L 538.258932 -135.955081 
L 538.174229 -139.08032 
L 538.046289 -142.205558 
L 537.877321 -145.330797 
L 537.6993 -148.456035 
L 537.525351 -151.581274 
L 537.30891 -154.706512 
L 536.986219 -157.831751 
L 536.577358 -160.956989 
L 536.173004 -164.082227 
L 535.781472 -167.207466 
L 535.315758 -170.332704 
L 534.756901 -173.457943 
L 534.179586 -176.583181 
L 533.558117 -179.70842 
L 532.787049 -182.833658 
L 531.891357 -185.958897 
L 530.977687 -189.084135 
L 530.085648 -192.209373 
L 529.165962 -195.334612 
L 528.173646 -198.45985 
L 527.191126 -201.585089 
L 526.317936 -204.710327 
L 525.498059 -207.835566 
L 524.657341 -210.960804 
L 523.752946 -214.086043 
L 522.724463 -217.211281 
L 521.615577 -220.336519 
L 520.490204 -223.461758 
L 519.39179 -226.586996 
L 518.501314 -229.712235 
L 517.918057 -232.837473 
L 517.4561 -235.962712 
L 516.886547 -239.08795 
L 516.164709 -242.213189 
L 515.373615 -245.338427 
L 514.66243 -248.463665 
L 514.274494 -251.588904 
L 514.346336 -254.714142 
L 514.698035 -257.839381 
L 515.059018 -260.964619 
L 515.462457 -264.089858 
L 516.129926 -267.215096 
L 517.096906 -270.340335 
L 518.261825 -273.465573 
L 519.573137 -276.590811 
L 521.035541 -279.71605 
L 522.605497 -282.841288 
L 524.11765 -285.966527 
L 525.465492 -289.091765 
L 526.760799 -292.217004 
L 528.11528 -295.342242 
L 529.537687 -298.467481 
L 530.973461 -301.592719 
L 532.238401 -304.717957 
L 533.211174 -307.843196 
L 533.988582 -310.968434 
L 534.697337 -314.093673 
L 535.386994 -317.218911 
L 536.023006 -320.34415 
L 536.519287 -323.469388 
L 536.875578 -326.594627 
L 537.167964 -329.719865 
L 537.428943 -332.845103 
L 537.649172 -335.970342 
L 537.823845 -339.09558 
L 537.962362 -342.220819 
L 538.078835 -345.346057 
L 538.178904 -348.471296 
L 538.26365 -351.596534 
L 538.336865 -354.721773 
L 538.396071 -357.847011 
L 538.434092 -360.972249 
L 538.451226 -364.097488 
L 538.456547 -367.222726 
L 538.460646 -370.347965 
L 538.46767 -373.473203 
L 538.475884 -376.598442 
L 538.485812 -379.72368 
L 538.497468 -382.848919 
L 538.505583 -385.974157 
L 538.507586 -389.099395 
L 538.506966 -392.224634 
L 538.506662 -395.349872 
L 538.505865 -398.475111 
L 538.504418 -401.600349 
L 538.504468 -404.725588 
L 538.506814 -407.850826 
L 538.509681 -410.976065 
L 538.511358 -414.101303 
L 538.512642 -414.101303 
L 538.512642 -414.101303 
L 538.514319 -410.976065 
L 538.517186 -407.850826 
L 538.519532 -404.725588 
L 538.519582 -401.600349 
L 538.518135 -398.475111 
L 538.517338 -395.349872 
L 538.517034 -392.224634 
L 538.516414 -389.099395 
L 538.518417 -385.974157 
L 538.526532 -382.848919 
L 538.538188 -379.72368 
L 538.548116 -376.598442 
L 538.55633 -373.473203 
L 538.563354 -370.347965 
L 538.567453 -367.222726 
L 538.572774 -364.097488 
L 538.589908 -360.972249 
L 538.627929 -357.847011 
L 538.687135 -354.721773 
L 538.76035 -351.596534 
L 538.845096 -348.471296 
L 538.945165 -345.346057 
L 539.061638 -342.220819 
L 539.200155 -339.09558 
L 539.374828 -335.970342 
L 539.595057 -332.845103 
L 539.856036 -329.719865 
L 540.148422 -326.594627 
L 540.504713 -323.469388 
L 541.000994 -320.34415 
L 541.637006 -317.218911 
L 542.326663 -314.093673 
L 543.035418 -310.968434 
L 543.812826 -307.843196 
L 544.785599 -304.717957 
L 546.050539 -301.592719 
L 547.486313 -298.467481 
L 548.90872 -295.342242 
L 550.263201 -292.217004 
L 551.558508 -289.091765 
L 552.90635 -285.966527 
L 554.418503 -282.841288 
L 555.988459 -279.71605 
L 557.450863 -276.590811 
L 558.762175 -273.465573 
L 559.927094 -270.340335 
L 560.894074 -267.215096 
L 561.561543 -264.089858 
L 561.964982 -260.964619 
L 562.325965 -257.839381 
L 562.677664 -254.714142 
L 562.749506 -251.588904 
L 562.36157 -248.463665 
L 561.650385 -245.338427 
L 560.859291 -242.213189 
L 560.137453 -239.08795 
L 559.5679 -235.962712 
L 559.105943 -232.837473 
L 558.522686 -229.712235 
L 557.63221 -226.586996 
L 556.533796 -223.461758 
L 555.408423 -220.336519 
L 554.299537 -217.211281 
L 553.271054 -214.086043 
L 552.366659 -210.960804 
L 551.525941 -207.835566 
L 550.706064 -204.710327 
L 549.832874 -201.585089 
L 548.850354 -198.45985 
L 547.858038 -195.334612 
L 546.938352 -192.209373 
L 546.046313 -189.084135 
L 545.132643 -185.958897 
L 544.236951 -182.833658 
L 543.465883 -179.70842 
L 542.844414 -176.583181 
L 542.267099 -173.457943 
L 541.708242 -170.332704 
L 541.242528 -167.207466 
L 540.850996 -164.082227 
L 540.446642 -160.956989 
L 540.037781 -157.831751 
L 539.71509 -154.706512 
L 539.498649 -151.581274 
L 539.3247 -148.456035 
L 539.146679 -145.330797 
L 538.977711 -142.205558 
L 538.849771 -139.08032 
L 538.765068 -135.955081 
L 538.700034 -132.829843 
L 538.642281 -129.704605 
L 538.596261 -126.579366 
L 538.56406 -123.454128 
L 538.541494 -120.328889 
L 538.526793 -117.203651 
L 538.519733 -114.078412 
L 538.516486 -110.953174 
L 538.514075 -107.827935 
L 538.512604 -104.702697 
z
" id="m6af6febc06" style="stroke:#5875a4;stroke-width:2.275;"/>
    </defs>
    <g clip-path="url(#pc376967237)">
     <use style="fill:#5875a4;stroke:#5875a4;stroke-width:2.275;" x="0.0" xlink:href="#m6af6febc06" y="514.8"/>
    </g>
   </g>
   <g id="PolyCollection_6">
    <defs>
     <path d="M 615.888839 -183.147986 
L 615.887161 -183.147986 
L 615.884809 -185.404916 
L 615.882074 -187.661845 
L 615.88252 -189.918775 
L 615.884658 -192.175704 
L 615.883517 -194.432634 
L 615.877774 -196.689564 
L 615.866589 -198.946493 
L 615.846432 -201.203423 
L 615.811976 -203.460352 
L 615.764293 -205.717282 
L 615.707588 -207.974211 
L 615.622732 -210.231141 
L 615.480095 -212.488071 
L 615.258267 -214.745 
L 614.937783 -217.00193 
L 614.50251 -219.258859 
L 613.946536 -221.515789 
L 613.219223 -223.772718 
L 612.301348 -226.029648 
L 611.19735 -228.286578 
L 609.983291 -230.543507 
L 608.546103 -232.800437 
L 606.892987 -235.057366 
L 605.033994 -237.314296 
L 603.148401 -239.571225 
L 601.025212 -241.828155 
L 598.711022 -244.085085 
L 596.155131 -246.342014 
L 593.605447 -248.598944 
L 590.858639 -250.855873 
L 588.147036 -253.112803 
L 585.481912 -255.369732 
L 583.297395 -257.626662 
L 581.257024 -259.883592 
L 579.652035 -262.140521 
L 578.303076 -264.397451 
L 577.616095 -266.65438 
L 577.2 -268.91131 
L 577.348531 -271.168239 
L 577.719134 -273.425169 
L 578.58515 -275.682099 
L 579.526963 -277.939028 
L 580.825777 -280.195958 
L 582.42831 -282.452887 
L 584.544856 -284.709817 
L 586.479082 -286.966746 
L 588.357225 -289.223676 
L 590.390076 -291.480606 
L 592.794748 -293.737535 
L 595.104924 -295.994465 
L 597.286839 -298.251394 
L 599.102923 -300.508324 
L 600.618764 -302.765254 
L 601.845955 -305.022183 
L 602.988102 -307.279113 
L 604.362046 -309.536042 
L 605.917926 -311.792972 
L 607.273085 -314.049901 
L 608.396918 -316.306831 
L 609.368698 -318.563761 
L 610.253304 -320.82069 
L 611.099493 -323.07762 
L 611.876753 -325.334549 
L 612.510559 -327.591479 
L 613.013527 -329.848408 
L 613.433125 -332.105338 
L 613.791159 -334.362268 
L 614.118588 -336.619197 
L 614.404504 -338.876127 
L 614.644492 -341.133056 
L 614.838573 -343.389986 
L 615.00291 -345.646915 
L 615.141162 -347.903845 
L 615.266947 -350.160775 
L 615.371645 -352.417704 
L 615.455296 -354.674634 
L 615.524657 -356.931563 
L 615.594375 -359.188493 
L 615.656059 -361.445422 
L 615.706572 -363.702352 
L 615.746828 -365.959282 
L 615.779789 -368.216211 
L 615.796551 -370.473141 
L 615.793971 -372.73007 
L 615.794304 -374.987 
L 615.814095 -377.243929 
L 615.834963 -379.500859 
L 615.845941 -381.757789 
L 615.851458 -384.014718 
L 615.855619 -386.271648 
L 615.856861 -388.528577 
L 615.856132 -390.785507 
L 615.86083 -393.042436 
L 615.873411 -395.299366 
L 615.88183 -397.556296 
L 615.882138 -399.813225 
L 615.882049 -402.070155 
L 615.884808 -404.327084 
L 615.887161 -406.584014 
L 615.888839 -406.584014 
L 615.888839 -406.584014 
L 615.891192 -404.327084 
L 615.893951 -402.070155 
L 615.893862 -399.813225 
L 615.89417 -397.556296 
L 615.902589 -395.299366 
L 615.91517 -393.042436 
L 615.919868 -390.785507 
L 615.919139 -388.528577 
L 615.920381 -386.271648 
L 615.924542 -384.014718 
L 615.930059 -381.757789 
L 615.941037 -379.500859 
L 615.961905 -377.243929 
L 615.981696 -374.987 
L 615.982029 -372.73007 
L 615.979449 -370.473141 
L 615.996211 -368.216211 
L 616.029172 -365.959282 
L 616.069428 -363.702352 
L 616.119941 -361.445422 
L 616.181625 -359.188493 
L 616.251343 -356.931563 
L 616.320704 -354.674634 
L 616.404355 -352.417704 
L 616.509053 -350.160775 
L 616.634838 -347.903845 
L 616.77309 -345.646915 
L 616.937427 -343.389986 
L 617.131508 -341.133056 
L 617.371496 -338.876127 
L 617.657412 -336.619197 
L 617.984841 -334.362268 
L 618.342875 -332.105338 
L 618.762473 -329.848408 
L 619.265441 -327.591479 
L 619.899247 -325.334549 
L 620.676507 -323.07762 
L 621.522696 -320.82069 
L 622.407302 -318.563761 
L 623.379082 -316.306831 
L 624.502915 -314.049901 
L 625.858074 -311.792972 
L 627.413954 -309.536042 
L 628.787898 -307.279113 
L 629.930045 -305.022183 
L 631.157236 -302.765254 
L 632.673077 -300.508324 
L 634.489161 -298.251394 
L 636.671076 -295.994465 
L 638.981252 -293.737535 
L 641.385924 -291.480606 
L 643.418775 -289.223676 
L 645.296918 -286.966746 
L 647.231144 -284.709817 
L 649.34769 -282.452887 
L 650.950223 -280.195958 
L 652.249037 -277.939028 
L 653.19085 -275.682099 
L 654.056866 -273.425169 
L 654.427469 -271.168239 
L 654.576 -268.91131 
L 654.159905 -266.65438 
L 653.472924 -264.397451 
L 652.123965 -262.140521 
L 650.518976 -259.883592 
L 648.478605 -257.626662 
L 646.294088 -255.369732 
L 643.628964 -253.112803 
L 640.917361 -250.855873 
L 638.170553 -248.598944 
L 635.620869 -246.342014 
L 633.064978 -244.085085 
L 630.750788 -241.828155 
L 628.627599 -239.571225 
L 626.742006 -237.314296 
L 624.883013 -235.057366 
L 623.229897 -232.800437 
L 621.792709 -230.543507 
L 620.57865 -228.286578 
L 619.474652 -226.029648 
L 618.556777 -223.772718 
L 617.829464 -221.515789 
L 617.27349 -219.258859 
L 616.838217 -217.00193 
L 616.517733 -214.745 
L 616.295905 -212.488071 
L 616.153268 -210.231141 
L 616.068412 -207.974211 
L 616.011707 -205.717282 
L 615.964024 -203.460352 
L 615.929568 -201.203423 
L 615.909411 -198.946493 
L 615.898226 -196.689564 
L 615.892483 -194.432634 
L 615.891342 -192.175704 
L 615.89348 -189.918775 
L 615.893926 -187.661845 
L 615.891191 -185.404916 
L 615.888839 -183.147986 
z
" id="m06c0c2c7f0" style="stroke:#5f9e6e;stroke-width:2.275;"/>
    </defs>
    <g clip-path="url(#pc376967237)">
     <use style="fill:#5f9e6e;stroke:#5f9e6e;stroke-width:2.275;" x="0.0" xlink:href="#m06c0c2c7f0" y="514.8"/>
    </g>
   </g>
   <g id="patch_3">
    <path clip-path="url(#pc376967237)" d="M 190.32 450.45 
L 190.32 450.45 
L 190.32 450.45 
L 190.32 450.45 
z
" style="fill:#5875a4;stroke:#4c4c4c;stroke-linejoin:miter;stroke-width:1.1375;"/>
   </g>
   <g id="patch_4">
    <path clip-path="url(#pc376967237)" d="M 190.32 450.45 
L 190.32 450.45 
L 190.32 450.45 
L 190.32 450.45 
z
" style="fill:#5f9e6e;stroke:#4c4c4c;stroke-linejoin:miter;stroke-width:1.1375;"/>
   </g>
   <g id="line2d_37">
    <path clip-path="url(#pc376967237)" d="M 151.632 361.79 
L 151.632 206.635 
" style="fill:none;stroke:#4c4c4c;stroke-linecap:round;stroke-width:2.275;"/>
   </g>
   <g id="line2d_38">
    <path clip-path="url(#pc376967237)" d="M 151.632 304.161 
L 151.632 264.264 
" style="fill:none;stroke:#4c4c4c;stroke-linecap:round;stroke-width:6.824999999999999;"/>
   </g>
   <g id="line2d_39">
    <path clip-path="url(#pc376967237)" d="M 229.008 308.594 
L 229.008 224.367 
" style="fill:none;stroke:#4c4c4c;stroke-linecap:round;stroke-width:2.275;"/>
   </g>
   <g id="line2d_40">
    <path clip-path="url(#pc376967237)" d="M 229.008 277.563 
L 229.008 255.398 
" style="fill:none;stroke:#4c4c4c;stroke-linecap:round;stroke-width:6.824999999999999;"/>
   </g>
   <g id="line2d_41">
    <path clip-path="url(#pc376967237)" d="M 345.072 366.223 
L 345.072 188.903 
" style="fill:none;stroke:#4c4c4c;stroke-linecap:round;stroke-width:2.275;"/>
   </g>
   <g id="line2d_42">
    <path clip-path="url(#pc376967237)" d="M 345.072 299.728 
L 345.072 255.398 
" style="fill:none;stroke:#4c4c4c;stroke-linecap:round;stroke-width:6.824999999999999;"/>
   </g>
   <g id="line2d_43">
    <path clip-path="url(#pc376967237)" d="M 422.448 313.027 
L 422.448 206.635 
" style="fill:none;stroke:#4c4c4c;stroke-linecap:round;stroke-width:2.275;"/>
   </g>
   <g id="line2d_44">
    <path clip-path="url(#pc376967237)" d="M 422.448 273.13 
L 422.448 246.532 
" style="fill:none;stroke:#4c4c4c;stroke-linecap:round;stroke-width:6.824999999999999;"/>
   </g>
   <g id="line2d_45">
    <path clip-path="url(#pc376967237)" d="M 538.512 361.79 
L 538.512 171.171 
" style="fill:none;stroke:#4c4c4c;stroke-linecap:round;stroke-width:2.275;"/>
   </g>
   <g id="line2d_46">
    <path clip-path="url(#pc376967237)" d="M 538.512 290.862 
L 538.512 242.099 
" style="fill:none;stroke:#4c4c4c;stroke-linecap:round;stroke-width:6.824999999999999;"/>
   </g>
   <g id="line2d_47">
    <path clip-path="url(#pc376967237)" d="M 615.888 299.728 
L 615.888 180.037 
" style="fill:none;stroke:#4c4c4c;stroke-linecap:round;stroke-width:2.275;"/>
   </g>
   <g id="line2d_48">
    <path clip-path="url(#pc376967237)" d="M 615.888 255.398 
L 615.888 224.367 
" style="fill:none;stroke:#4c4c4c;stroke-linecap:round;stroke-width:6.824999999999999;"/>
   </g>
   <g id="patch_5">
    <path d="M 93.6 450.45 
L 93.6 51.48 
" style="fill:none;"/>
   </g>
   <g id="patch_6">
    <path d="M 673.92 450.45 
L 673.92 51.48 
" style="fill:none;"/>
   </g>
   <g id="patch_7">
    <path d="M 93.6 51.48 
L 673.92 51.48 
" style="fill:none;"/>
   </g>
   <g id="patch_8">
    <path d="M 93.6 450.45 
L 673.92 450.45 
" style="fill:none;"/>
   </g>
   <g id="PathCollection_1">
    <defs>
     <path d="M 0 2.275 
C 0.603337 2.275 1.182044 2.035292 1.608668 1.608668 
C 2.035292 1.182044 2.275 0.603337 2.275 0 
C 2.275 -0.603337 2.035292 -1.182044 1.608668 -1.608668 
C 1.182044 -2.035292 0.603337 -2.275 0 -2.275 
C -0.603337 -2.275 -1.182044 -2.035292 -1.608668 -1.608668 
C -2.035292 -1.182044 -2.275 -0.603337 -2.275 0 
C -2.275 0.603337 -2.035292 1.182044 -1.608668 1.608668 
C -1.182044 2.035292 -0.603337 2.275 0 2.275 
z
" id="m1910306d8c" style="stroke:#4c4c4c;stroke-width:0.39;"/>
    </defs>
    <g clip-path="url(#pc376967237)">
     <use style="fill:#ffffff;stroke:#4c4c4c;stroke-width:0.39;" x="151.632" xlink:href="#m1910306d8c" y="281.996"/>
    </g>
   </g>
   <g id="PathCollection_2">
    <g clip-path="url(#pc376967237)">
     <use style="fill:#ffffff;stroke:#4c4c4c;stroke-width:0.39;" x="229.008" xlink:href="#m1910306d8c" y="268.697"/>
    </g>
   </g>
   <g id="PathCollection_3">
    <g clip-path="url(#pc376967237)">
     <use style="fill:#ffffff;stroke:#4c4c4c;stroke-width:0.39;" x="345.072" xlink:href="#m1910306d8c" y="277.563"/>
    </g>
   </g>
   <g id="PathCollection_4">
    <g clip-path="url(#pc376967237)">
     <use style="fill:#ffffff;stroke:#4c4c4c;stroke-width:0.39;" x="422.448" xlink:href="#m1910306d8c" y="259.831"/>
    </g>
   </g>
   <g id="PathCollection_5">
    <g clip-path="url(#pc376967237)">
     <use style="fill:#ffffff;stroke:#4c4c4c;stroke-width:0.39;" x="538.512" xlink:href="#m1910306d8c" y="268.697"/>
    </g>
   </g>
   <g id="PathCollection_6">
    <g clip-path="url(#pc376967237)">
     <use style="fill:#ffffff;stroke:#4c4c4c;stroke-width:0.39;" x="615.888" xlink:href="#m1910306d8c" y="242.099"/>
    </g>
   </g>
   <g id="text_16">
    <!-- Anzahl gespielter Runden je Strategie und Ergebnis -->
    <defs>
     <path d="M 14.703125 0 
L 6.546875 0 
L 6.546875 71.578125 
L 15.328125 71.578125 
L 15.328125 46.046875 
Q 20.90625 53.03125 29.546875 53.03125 
Q 34.328125 53.03125 38.59375 51.09375 
Q 42.875 49.171875 45.625 45.671875 
Q 48.390625 42.1875 49.953125 37.25 
Q 51.515625 32.328125 51.515625 26.703125 
Q 51.515625 13.375 44.921875 6.09375 
Q 38.328125 -1.171875 29.109375 -1.171875 
Q 19.921875 -1.171875 14.703125 6.5 
z
M 14.59375 26.3125 
Q 14.59375 17 17.140625 12.84375 
Q 21.296875 6.0625 28.375 6.0625 
Q 34.125 6.0625 38.328125 11.0625 
Q 42.53125 16.0625 42.53125 25.984375 
Q 42.53125 36.140625 38.5 40.96875 
Q 34.46875 45.796875 28.765625 45.796875 
Q 23 45.796875 18.796875 40.796875 
Q 14.59375 35.796875 14.59375 26.3125 
" id="ArialMT-62"/>
     <path d="M 7.90625 0 
L 7.90625 71.578125 
L 59.671875 71.578125 
L 59.671875 63.140625 
L 17.390625 63.140625 
L 17.390625 41.21875 
L 56.984375 41.21875 
L 56.984375 32.8125 
L 17.390625 32.8125 
L 17.390625 8.453125 
L 61.328125 8.453125 
L 61.328125 0 
z
" id="ArialMT-45"/>
     <path d="M 1.953125 0 
L 1.953125 7.125 
L 34.96875 45.015625 
Q 29.34375 44.734375 25.046875 44.734375 
L 3.90625 44.734375 
L 3.90625 51.859375 
L 46.296875 51.859375 
L 46.296875 46.046875 
L 18.21875 13.140625 
L 12.796875 7.125 
Q 18.703125 7.5625 23.875 7.5625 
L 47.859375 7.5625 
L 47.859375 0 
z
" id="ArialMT-7a"/>
     <path d="M -0.140625 0 
L 27.34375 71.578125 
L 37.546875 71.578125 
L 66.84375 0 
L 56.0625 0 
L 47.703125 21.6875 
L 17.78125 21.6875 
L 9.90625 0 
z
M 20.515625 29.390625 
L 44.78125 29.390625 
L 37.3125 49.21875 
Q 33.890625 58.25 32.234375 64.0625 
Q 30.859375 57.171875 28.375 50.390625 
z
" id="ArialMT-41"/>
     <path d="M 6.59375 0 
L 6.59375 71.578125 
L 15.375 71.578125 
L 15.375 45.90625 
Q 21.53125 53.03125 30.90625 53.03125 
Q 36.671875 53.03125 40.921875 50.75 
Q 45.171875 48.484375 47 44.484375 
Q 48.828125 40.484375 48.828125 32.859375 
L 48.828125 0 
L 40.046875 0 
L 40.046875 32.859375 
Q 40.046875 39.453125 37.1875 42.453125 
Q 34.328125 45.453125 29.109375 45.453125 
Q 25.203125 45.453125 21.75 43.421875 
Q 18.3125 41.40625 16.84375 37.9375 
Q 15.375 34.46875 15.375 28.375 
L 15.375 0 
z
" id="ArialMT-68"/>
     <path d="M 6.546875 61.375 
L 6.546875 71.578125 
L 15.328125 71.578125 
L 15.328125 61.375 
z
M -4.59375 -20.125 
L -2.9375 -12.640625 
Q -0.296875 -13.328125 1.21875 -13.328125 
Q 3.90625 -13.328125 5.21875 -11.546875 
Q 6.546875 -9.765625 6.546875 -2.640625 
L 6.546875 51.859375 
L 15.328125 51.859375 
L 15.328125 -2.828125 
Q 15.328125 -12.40625 12.84375 -16.15625 
Q 9.671875 -21.046875 2.296875 -21.046875 
Q -1.265625 -21.046875 -4.59375 -20.125 
" id="ArialMT-6a"/>
    </defs>
    <g style="fill:#262626;" transform="translate(177.13828125 46.48)scale(0.18 -0.18)">
     <use xlink:href="#ArialMT-41"/>
     <use x="66.69921875" xlink:href="#ArialMT-6e"/>
     <use x="122.314453125" xlink:href="#ArialMT-7a"/>
     <use x="172.314453125" xlink:href="#ArialMT-61"/>
     <use x="227.9296875" xlink:href="#ArialMT-68"/>
     <use x="283.544921875" xlink:href="#ArialMT-6c"/>
     <use x="305.76171875" xlink:href="#ArialMT-20"/>
     <use x="333.544921875" xlink:href="#ArialMT-67"/>
     <use x="389.16015625" xlink:href="#ArialMT-65"/>
     <use x="444.775390625" xlink:href="#ArialMT-73"/>
     <use x="494.775390625" xlink:href="#ArialMT-70"/>
     <use x="550.390625" xlink:href="#ArialMT-69"/>
     <use x="572.607421875" xlink:href="#ArialMT-65"/>
     <use x="628.22265625" xlink:href="#ArialMT-6c"/>
     <use x="650.439453125" xlink:href="#ArialMT-74"/>
     <use x="678.22265625" xlink:href="#ArialMT-65"/>
     <use x="733.837890625" xlink:href="#ArialMT-72"/>
     <use x="767.138671875" xlink:href="#ArialMT-20"/>
     <use x="794.921875" xlink:href="#ArialMT-52"/>
     <use x="867.138671875" xlink:href="#ArialMT-75"/>
     <use x="922.75390625" xlink:href="#ArialMT-6e"/>
     <use x="978.369140625" xlink:href="#ArialMT-64"/>
     <use x="1033.984375" xlink:href="#ArialMT-65"/>
     <use x="1089.599609375" xlink:href="#ArialMT-6e"/>
     <use x="1145.21484375" xlink:href="#ArialMT-20"/>
     <use x="1172.998046875" xlink:href="#ArialMT-6a"/>
     <use x="1195.21484375" xlink:href="#ArialMT-65"/>
     <use x="1250.830078125" xlink:href="#ArialMT-20"/>
     <use x="1278.61328125" xlink:href="#ArialMT-53"/>
     <use x="1345.3125" xlink:href="#ArialMT-74"/>
     <use x="1373.095703125" xlink:href="#ArialMT-72"/>
     <use x="1406.396484375" xlink:href="#ArialMT-61"/>
     <use x="1462.01171875" xlink:href="#ArialMT-74"/>
     <use x="1489.794921875" xlink:href="#ArialMT-65"/>
     <use x="1545.41015625" xlink:href="#ArialMT-67"/>
     <use x="1601.025390625" xlink:href="#ArialMT-69"/>
     <use x="1623.2421875" xlink:href="#ArialMT-65"/>
     <use x="1678.857421875" xlink:href="#ArialMT-20"/>
     <use x="1706.640625" xlink:href="#ArialMT-75"/>
     <use x="1762.255859375" xlink:href="#ArialMT-6e"/>
     <use x="1817.87109375" xlink:href="#ArialMT-64"/>
     <use x="1873.486328125" xlink:href="#ArialMT-20"/>
     <use x="1901.26953125" xlink:href="#ArialMT-45"/>
     <use x="1967.96875" xlink:href="#ArialMT-72"/>
     <use x="2001.26953125" xlink:href="#ArialMT-67"/>
     <use x="2056.884765625" xlink:href="#ArialMT-65"/>
     <use x="2112.5" xlink:href="#ArialMT-62"/>
     <use x="2168.115234375" xlink:href="#ArialMT-6e"/>
     <use x="2223.73046875" xlink:href="#ArialMT-69"/>
     <use x="2245.947265625" xlink:href="#ArialMT-73"/>
    </g>
   </g>
   <g id="legend_1">
    <g id="text_17">
     <!-- Ergebnis -->
     <g style="fill:#262626;" transform="translate(588.597110156 71.8803210938)scale(0.12155 -0.12155)">
      <use xlink:href="#ArialMT-45"/>
      <use x="66.69921875" xlink:href="#ArialMT-72"/>
      <use x="100.0" xlink:href="#ArialMT-67"/>
      <use x="155.615234375" xlink:href="#ArialMT-65"/>
      <use x="211.23046875" xlink:href="#ArialMT-62"/>
      <use x="266.845703125" xlink:href="#ArialMT-6e"/>
      <use x="322.4609375" xlink:href="#ArialMT-69"/>
      <use x="344.677734375" xlink:href="#ArialMT-73"/>
     </g>
    </g>
    <g id="patch_9">
     <path d="M 562.944688 90.243725 
L 588.944688 90.243725 
L 588.944688 81.143725 
L 562.944688 81.143725 
z
" style="fill:#5875a4;stroke:#4c4c4c;stroke-linejoin:miter;stroke-width:1.1375;"/>
    </g>
    <g id="text_18">
     <!-- Verloren -->
     <defs>
      <path d="M 28.171875 0 
L 0.4375 71.578125 
L 10.6875 71.578125 
L 29.296875 19.578125 
Q 31.546875 13.328125 33.0625 7.859375 
Q 34.71875 13.71875 36.921875 19.578125 
L 56.25 71.578125 
L 65.921875 71.578125 
L 37.890625 0 
z
" id="ArialMT-56"/>
      <path d="M 3.328125 25.921875 
Q 3.328125 40.328125 11.328125 47.265625 
Q 18.015625 53.03125 27.640625 53.03125 
Q 38.328125 53.03125 45.109375 46.015625 
Q 51.90625 39.015625 51.90625 26.65625 
Q 51.90625 16.65625 48.90625 10.90625 
Q 45.90625 5.171875 40.15625 2 
Q 34.421875 -1.171875 27.640625 -1.171875 
Q 16.75 -1.171875 10.03125 5.8125 
Q 3.328125 12.796875 3.328125 25.921875 
M 12.359375 25.921875 
Q 12.359375 15.96875 16.703125 11.015625 
Q 21.046875 6.0625 27.640625 6.0625 
Q 34.1875 6.0625 38.53125 11.03125 
Q 42.875 16.015625 42.875 26.21875 
Q 42.875 35.84375 38.5 40.796875 
Q 34.125 45.75 27.640625 45.75 
Q 21.046875 45.75 16.703125 40.8125 
Q 12.359375 35.890625 12.359375 25.921875 
" id="ArialMT-6f"/>
     </defs>
     <g style="fill:#262626;" transform="translate(599.3446875 90.243725)scale(0.13 -0.13)">
      <use xlink:href="#ArialMT-56"/>
      <use x="66.62109375" xlink:href="#ArialMT-65"/>
      <use x="122.236328125" xlink:href="#ArialMT-72"/>
      <use x="155.537109375" xlink:href="#ArialMT-6c"/>
      <use x="177.75390625" xlink:href="#ArialMT-6f"/>
      <use x="233.369140625" xlink:href="#ArialMT-72"/>
      <use x="266.669921875" xlink:href="#ArialMT-65"/>
      <use x="322.28515625" xlink:href="#ArialMT-6e"/>
     </g>
    </g>
    <g id="patch_10">
     <path d="M 562.944688 108.632631 
L 588.944688 108.632631 
L 588.944688 99.532631 
L 562.944688 99.532631 
z
" style="fill:#5f9e6e;stroke:#4c4c4c;stroke-linejoin:miter;stroke-width:1.1375;"/>
    </g>
    <g id="text_19">
     <!-- Gewonnen -->
     <defs>
      <path d="M 16.15625 0 
L 0.296875 51.859375 
L 9.375 51.859375 
L 17.625 21.921875 
L 20.703125 10.796875 
Q 20.90625 11.625 23.390625 21.484375 
L 31.640625 51.859375 
L 40.671875 51.859375 
L 48.4375 21.78125 
L 51.03125 11.859375 
L 54 21.875 
L 62.890625 51.859375 
L 71.4375 51.859375 
L 55.21875 0 
L 46.09375 0 
L 37.84375 31.0625 
L 35.84375 39.890625 
L 25.34375 0 
z
" id="ArialMT-77"/>
     </defs>
     <g style="fill:#262626;" transform="translate(599.3446875 108.63263125)scale(0.13 -0.13)">
      <use xlink:href="#ArialMT-47"/>
      <use x="77.783203125" xlink:href="#ArialMT-65"/>
      <use x="133.3984375" xlink:href="#ArialMT-77"/>
      <use x="205.615234375" xlink:href="#ArialMT-6f"/>
      <use x="261.23046875" xlink:href="#ArialMT-6e"/>
      <use x="316.845703125" xlink:href="#ArialMT-6e"/>
      <use x="372.4609375" xlink:href="#ArialMT-65"/>
      <use x="428.076171875" xlink:href="#ArialMT-6e"/>
     </g>
    </g>
   </g>
  </g>
 </g>
 <defs>
  <clipPath id="pc376967237">
   <rect height="398.97" width="580.32" x="93.6" y="51.48"/>
  </clipPath>
 </defs>
</svg>
