<?xml version="1.0" encoding="utf-8" standalone="no"?>
<!DOCTYPE svg PUBLIC "-//W3C//DTD SVG 1.1//EN"
  "http://www.w3.org/Graphics/SVG/1.1/DTD/svg11.dtd">
<!-- Created with matplotlib (http://matplotlib.org/) -->
<svg height="514pt" version="1.1" viewBox="0 0 748 514" width="748pt" xmlns="http://www.w3.org/2000/svg" xmlns:xlink="http://www.w3.org/1999/xlink">
 <defs>
  <style type="text/css">
*{stroke-linecap:butt;stroke-linejoin:round;stroke-miterlimit:100000;}
  </style>
 </defs>
 <g id="figure_1">
  <g id="patch_1">
   <path d="M 0 514.8 
L 748.8 514.8 
L 748.8 0 
L 0 0 
z
" style="fill:#ffffff;"/>
  </g>
  <g id="axes_1">
   <g id="patch_2">
    <path d="M 93.6 450.45 
L 673.92 450.45 
L 673.92 51.48 
L 93.6 51.48 
z
" style="fill:#eaeaf2;"/>
   </g>
   <g id="matplotlib.axis_1">
    <g id="xtick_1">
     <g id="line2d_1">
      <defs>
       <path d="M 0 0 
L 0 0 
" id="m4c0a2fee3c" style="stroke:#262626;stroke-width:1.3;"/>
      </defs>
      <g>
       <use style="fill:#262626;stroke:#262626;stroke-width:1.3;" x="99.7736170213" xlink:href="#m4c0a2fee3c" y="450.45"/>
      </g>
     </g>
     <g id="line2d_2">
      <g>
       <use style="fill:#262626;stroke:#262626;stroke-width:1.3;" x="99.7736170213" xlink:href="#m4c0a2fee3c" y="51.48"/>
      </g>
     </g>
     <g id="text_1">
      <!-- -38 -->
      <defs>
       <path d="M 17.671875 38.8125 
Q 12.203125 40.828125 9.5625 44.53125 
Q 6.9375 48.25 6.9375 53.421875 
Q 6.9375 61.234375 12.546875 66.546875 
Q 18.171875 71.875 27.484375 71.875 
Q 36.859375 71.875 42.578125 66.421875 
Q 48.296875 60.984375 48.296875 53.171875 
Q 48.296875 48.1875 45.671875 44.5 
Q 43.0625 40.828125 37.75 38.8125 
Q 44.34375 36.671875 47.78125 31.875 
Q 51.21875 27.09375 51.21875 20.453125 
Q 51.21875 11.28125 44.71875 5.03125 
Q 38.234375 -1.21875 27.640625 -1.21875 
Q 17.046875 -1.21875 10.546875 5.046875 
Q 4.046875 11.328125 4.046875 20.703125 
Q 4.046875 27.6875 7.59375 32.390625 
Q 11.140625 37.109375 17.671875 38.8125 
M 15.921875 53.71875 
Q 15.921875 48.640625 19.1875 45.40625 
Q 22.46875 42.1875 27.6875 42.1875 
Q 32.765625 42.1875 36.015625 45.375 
Q 39.265625 48.578125 39.265625 53.21875 
Q 39.265625 58.0625 35.90625 61.359375 
Q 32.5625 64.65625 27.59375 64.65625 
Q 22.5625 64.65625 19.234375 61.421875 
Q 15.921875 58.203125 15.921875 53.71875 
M 13.09375 20.65625 
Q 13.09375 16.890625 14.875 13.375 
Q 16.65625 9.859375 20.171875 7.921875 
Q 23.6875 6 27.734375 6 
Q 34.03125 6 38.125 10.046875 
Q 42.234375 14.109375 42.234375 20.359375 
Q 42.234375 26.703125 38.015625 30.859375 
Q 33.796875 35.015625 27.4375 35.015625 
Q 21.234375 35.015625 17.15625 30.90625 
Q 13.09375 26.8125 13.09375 20.65625 
" id="ArialMT-38"/>
       <path d="M 3.171875 21.484375 
L 3.171875 30.328125 
L 30.171875 30.328125 
L 30.171875 21.484375 
z
" id="ArialMT-2d"/>
       <path d="M 4.203125 18.890625 
L 12.984375 20.0625 
Q 14.5 12.59375 18.140625 9.296875 
Q 21.78125 6 27 6 
Q 33.203125 6 37.46875 10.296875 
Q 41.75 14.59375 41.75 20.953125 
Q 41.75 27 37.796875 30.921875 
Q 33.84375 34.859375 27.734375 34.859375 
Q 25.25 34.859375 21.53125 33.890625 
L 22.515625 41.609375 
Q 23.390625 41.5 23.921875 41.5 
Q 29.546875 41.5 34.03125 44.421875 
Q 38.53125 47.359375 38.53125 53.46875 
Q 38.53125 58.296875 35.25 61.46875 
Q 31.984375 64.65625 26.8125 64.65625 
Q 21.6875 64.65625 18.265625 61.421875 
Q 14.84375 58.203125 13.875 51.765625 
L 5.078125 53.328125 
Q 6.6875 62.15625 12.390625 67.015625 
Q 18.109375 71.875 26.609375 71.875 
Q 32.46875 71.875 37.390625 69.359375 
Q 42.328125 66.84375 44.9375 62.5 
Q 47.5625 58.15625 47.5625 53.265625 
Q 47.5625 48.640625 45.0625 44.828125 
Q 42.578125 41.015625 37.703125 38.765625 
Q 44.046875 37.3125 47.5625 32.6875 
Q 51.078125 28.078125 51.078125 21.140625 
Q 51.078125 11.765625 44.234375 5.25 
Q 37.40625 -1.265625 26.953125 -1.265625 
Q 17.53125 -1.265625 11.296875 4.34375 
Q 5.078125 9.96875 4.203125 18.890625 
" id="ArialMT-33"/>
      </defs>
      <g style="fill:#262626;" transform="translate(90.3801013963 468.85515625)scale(0.13 -0.13)">
       <use xlink:href="#ArialMT-2d"/>
       <use x="33.30078125" xlink:href="#ArialMT-33"/>
       <use x="88.916015625" xlink:href="#ArialMT-38"/>
      </g>
     </g>
    </g>
    <g id="xtick_2">
     <g id="line2d_3">
      <g>
       <use style="fill:#262626;stroke:#262626;stroke-width:1.3;" x="112.120851064" xlink:href="#m4c0a2fee3c" y="450.45"/>
      </g>
     </g>
     <g id="line2d_4">
      <g>
       <use style="fill:#262626;stroke:#262626;stroke-width:1.3;" x="112.120851064" xlink:href="#m4c0a2fee3c" y="51.48"/>
      </g>
     </g>
    </g>
    <g id="xtick_3">
     <g id="line2d_5">
      <g>
       <use style="fill:#262626;stroke:#262626;stroke-width:1.3;" x="124.468085106" xlink:href="#m4c0a2fee3c" y="450.45"/>
      </g>
     </g>
     <g id="line2d_6">
      <g>
       <use style="fill:#262626;stroke:#262626;stroke-width:1.3;" x="124.468085106" xlink:href="#m4c0a2fee3c" y="51.48"/>
      </g>
     </g>
     <g id="text_2">
      <!-- -36 -->
      <defs>
       <path d="M 49.75 54.046875 
L 41.015625 53.375 
Q 39.84375 58.546875 37.703125 60.890625 
Q 34.125 64.65625 28.90625 64.65625 
Q 24.703125 64.65625 21.53125 62.3125 
Q 17.390625 59.28125 14.984375 53.46875 
Q 12.59375 47.65625 12.5 36.921875 
Q 15.671875 41.75 20.265625 44.09375 
Q 24.859375 46.4375 29.890625 46.4375 
Q 38.671875 46.4375 44.84375 39.96875 
Q 51.03125 33.5 51.03125 23.25 
Q 51.03125 16.5 48.125 10.71875 
Q 45.21875 4.9375 40.140625 1.859375 
Q 35.0625 -1.21875 28.609375 -1.21875 
Q 17.625 -1.21875 10.6875 6.859375 
Q 3.765625 14.9375 3.765625 33.5 
Q 3.765625 54.25 11.421875 63.671875 
Q 18.109375 71.875 29.4375 71.875 
Q 37.890625 71.875 43.28125 67.140625 
Q 48.6875 62.40625 49.75 54.046875 
M 13.875 23.1875 
Q 13.875 18.65625 15.796875 14.5 
Q 17.71875 10.359375 21.1875 8.171875 
Q 24.65625 6 28.46875 6 
Q 34.03125 6 38.03125 10.484375 
Q 42.046875 14.984375 42.046875 22.703125 
Q 42.046875 30.125 38.078125 34.390625 
Q 34.125 38.671875 28.125 38.671875 
Q 22.171875 38.671875 18.015625 34.390625 
Q 13.875 30.125 13.875 23.1875 
" id="ArialMT-36"/>
      </defs>
      <g style="fill:#262626;" transform="translate(115.074569481 468.85515625)scale(0.13 -0.13)">
       <use xlink:href="#ArialMT-2d"/>
       <use x="33.30078125" xlink:href="#ArialMT-33"/>
       <use x="88.916015625" xlink:href="#ArialMT-36"/>
      </g>
     </g>
    </g>
    <g id="xtick_4">
     <g id="line2d_7">
      <g>
       <use style="fill:#262626;stroke:#262626;stroke-width:1.3;" x="136.815319149" xlink:href="#m4c0a2fee3c" y="450.45"/>
      </g>
     </g>
     <g id="line2d_8">
      <g>
       <use style="fill:#262626;stroke:#262626;stroke-width:1.3;" x="136.815319149" xlink:href="#m4c0a2fee3c" y="51.48"/>
      </g>
     </g>
    </g>
    <g id="xtick_5">
     <g id="line2d_9">
      <g>
       <use style="fill:#262626;stroke:#262626;stroke-width:1.3;" x="149.162553191" xlink:href="#m4c0a2fee3c" y="450.45"/>
      </g>
     </g>
     <g id="line2d_10">
      <g>
       <use style="fill:#262626;stroke:#262626;stroke-width:1.3;" x="149.162553191" xlink:href="#m4c0a2fee3c" y="51.48"/>
      </g>
     </g>
     <g id="text_3">
      <!-- -34 -->
      <defs>
       <path d="M 32.328125 0 
L 32.328125 17.140625 
L 1.265625 17.140625 
L 1.265625 25.203125 
L 33.9375 71.578125 
L 41.109375 71.578125 
L 41.109375 25.203125 
L 50.78125 25.203125 
L 50.78125 17.140625 
L 41.109375 17.140625 
L 41.109375 0 
z
M 32.328125 25.203125 
L 32.328125 57.46875 
L 9.90625 25.203125 
z
" id="ArialMT-34"/>
      </defs>
      <g style="fill:#262626;" transform="translate(139.769037566 468.85515625)scale(0.13 -0.13)">
       <use xlink:href="#ArialMT-2d"/>
       <use x="33.30078125" xlink:href="#ArialMT-33"/>
       <use x="88.916015625" xlink:href="#ArialMT-34"/>
      </g>
     </g>
    </g>
    <g id="xtick_6">
     <g id="line2d_11">
      <g>
       <use style="fill:#262626;stroke:#262626;stroke-width:1.3;" x="161.509787234" xlink:href="#m4c0a2fee3c" y="450.45"/>
      </g>
     </g>
     <g id="line2d_12">
      <g>
       <use style="fill:#262626;stroke:#262626;stroke-width:1.3;" x="161.509787234" xlink:href="#m4c0a2fee3c" y="51.48"/>
      </g>
     </g>
    </g>
    <g id="xtick_7">
     <g id="line2d_13">
      <g>
       <use style="fill:#262626;stroke:#262626;stroke-width:1.3;" x="173.857021277" xlink:href="#m4c0a2fee3c" y="450.45"/>
      </g>
     </g>
     <g id="line2d_14">
      <g>
       <use style="fill:#262626;stroke:#262626;stroke-width:1.3;" x="173.857021277" xlink:href="#m4c0a2fee3c" y="51.48"/>
      </g>
     </g>
     <g id="text_4">
      <!-- -32 -->
      <defs>
       <path d="M 50.34375 8.453125 
L 50.34375 0 
L 3.03125 0 
Q 2.9375 3.171875 4.046875 6.109375 
Q 5.859375 10.9375 9.828125 15.625 
Q 13.8125 20.3125 21.34375 26.46875 
Q 33.015625 36.03125 37.109375 41.625 
Q 41.21875 47.21875 41.21875 52.203125 
Q 41.21875 57.421875 37.46875 61 
Q 33.734375 64.59375 27.734375 64.59375 
Q 21.390625 64.59375 17.578125 60.78125 
Q 13.765625 56.984375 13.71875 50.25 
L 4.6875 51.171875 
Q 5.609375 61.28125 11.65625 66.578125 
Q 17.71875 71.875 27.9375 71.875 
Q 38.234375 71.875 44.234375 66.15625 
Q 50.25 60.453125 50.25 52 
Q 50.25 47.703125 48.484375 43.546875 
Q 46.734375 39.40625 42.65625 34.8125 
Q 38.578125 30.21875 29.109375 22.21875 
Q 21.1875 15.578125 18.9375 13.203125 
Q 16.703125 10.84375 15.234375 8.453125 
z
" id="ArialMT-32"/>
      </defs>
      <g style="fill:#262626;" transform="translate(164.463505652 468.85515625)scale(0.13 -0.13)">
       <use xlink:href="#ArialMT-2d"/>
       <use x="33.30078125" xlink:href="#ArialMT-33"/>
       <use x="88.916015625" xlink:href="#ArialMT-32"/>
      </g>
     </g>
    </g>
    <g id="xtick_8">
     <g id="line2d_15">
      <g>
       <use style="fill:#262626;stroke:#262626;stroke-width:1.3;" x="186.204255319" xlink:href="#m4c0a2fee3c" y="450.45"/>
      </g>
     </g>
     <g id="line2d_16">
      <g>
       <use style="fill:#262626;stroke:#262626;stroke-width:1.3;" x="186.204255319" xlink:href="#m4c0a2fee3c" y="51.48"/>
      </g>
     </g>
    </g>
    <g id="xtick_9">
     <g id="line2d_17">
      <g>
       <use style="fill:#262626;stroke:#262626;stroke-width:1.3;" x="198.551489362" xlink:href="#m4c0a2fee3c" y="450.45"/>
      </g>
     </g>
     <g id="line2d_18">
      <g>
       <use style="fill:#262626;stroke:#262626;stroke-width:1.3;" x="198.551489362" xlink:href="#m4c0a2fee3c" y="51.48"/>
      </g>
     </g>
     <g id="text_5">
      <!-- -30 -->
      <defs>
       <path d="M 4.15625 35.296875 
Q 4.15625 48 6.765625 55.734375 
Q 9.375 63.484375 14.515625 67.671875 
Q 19.671875 71.875 27.484375 71.875 
Q 33.25 71.875 37.59375 69.546875 
Q 41.9375 67.234375 44.765625 62.859375 
Q 47.609375 58.5 49.21875 52.21875 
Q 50.828125 45.953125 50.828125 35.296875 
Q 50.828125 22.703125 48.234375 14.96875 
Q 45.65625 7.234375 40.5 3 
Q 35.359375 -1.21875 27.484375 -1.21875 
Q 17.140625 -1.21875 11.234375 6.203125 
Q 4.15625 15.140625 4.15625 35.296875 
M 13.1875 35.296875 
Q 13.1875 17.671875 17.3125 11.828125 
Q 21.4375 6 27.484375 6 
Q 33.546875 6 37.671875 11.859375 
Q 41.796875 17.71875 41.796875 35.296875 
Q 41.796875 52.984375 37.671875 58.78125 
Q 33.546875 64.59375 27.390625 64.59375 
Q 21.34375 64.59375 17.71875 59.46875 
Q 13.1875 52.9375 13.1875 35.296875 
" id="ArialMT-30"/>
      </defs>
      <g style="fill:#262626;" transform="translate(189.157973737 468.85515625)scale(0.13 -0.13)">
       <use xlink:href="#ArialMT-2d"/>
       <use x="33.30078125" xlink:href="#ArialMT-33"/>
       <use x="88.916015625" xlink:href="#ArialMT-30"/>
      </g>
     </g>
    </g>
    <g id="xtick_10">
     <g id="line2d_19">
      <g>
       <use style="fill:#262626;stroke:#262626;stroke-width:1.3;" x="210.898723404" xlink:href="#m4c0a2fee3c" y="450.45"/>
      </g>
     </g>
     <g id="line2d_20">
      <g>
       <use style="fill:#262626;stroke:#262626;stroke-width:1.3;" x="210.898723404" xlink:href="#m4c0a2fee3c" y="51.48"/>
      </g>
     </g>
    </g>
    <g id="xtick_11">
     <g id="line2d_21">
      <g>
       <use style="fill:#262626;stroke:#262626;stroke-width:1.3;" x="223.245957447" xlink:href="#m4c0a2fee3c" y="450.45"/>
      </g>
     </g>
     <g id="line2d_22">
      <g>
       <use style="fill:#262626;stroke:#262626;stroke-width:1.3;" x="223.245957447" xlink:href="#m4c0a2fee3c" y="51.48"/>
      </g>
     </g>
     <g id="text_6">
      <!-- -28 -->
      <g style="fill:#262626;" transform="translate(213.852441822 468.85515625)scale(0.13 -0.13)">
       <use xlink:href="#ArialMT-2d"/>
       <use x="33.30078125" xlink:href="#ArialMT-32"/>
       <use x="88.916015625" xlink:href="#ArialMT-38"/>
      </g>
     </g>
    </g>
    <g id="xtick_12">
     <g id="line2d_23">
      <g>
       <use style="fill:#262626;stroke:#262626;stroke-width:1.3;" x="235.593191489" xlink:href="#m4c0a2fee3c" y="450.45"/>
      </g>
     </g>
     <g id="line2d_24">
      <g>
       <use style="fill:#262626;stroke:#262626;stroke-width:1.3;" x="235.593191489" xlink:href="#m4c0a2fee3c" y="51.48"/>
      </g>
     </g>
    </g>
    <g id="xtick_13">
     <g id="line2d_25">
      <g>
       <use style="fill:#262626;stroke:#262626;stroke-width:1.3;" x="247.940425532" xlink:href="#m4c0a2fee3c" y="450.45"/>
      </g>
     </g>
     <g id="line2d_26">
      <g>
       <use style="fill:#262626;stroke:#262626;stroke-width:1.3;" x="247.940425532" xlink:href="#m4c0a2fee3c" y="51.48"/>
      </g>
     </g>
     <g id="text_7">
      <!-- -26 -->
      <g style="fill:#262626;" transform="translate(238.546909907 468.85515625)scale(0.13 -0.13)">
       <use xlink:href="#ArialMT-2d"/>
       <use x="33.30078125" xlink:href="#ArialMT-32"/>
       <use x="88.916015625" xlink:href="#ArialMT-36"/>
      </g>
     </g>
    </g>
    <g id="xtick_14">
     <g id="line2d_27">
      <g>
       <use style="fill:#262626;stroke:#262626;stroke-width:1.3;" x="260.287659574" xlink:href="#m4c0a2fee3c" y="450.45"/>
      </g>
     </g>
     <g id="line2d_28">
      <g>
       <use style="fill:#262626;stroke:#262626;stroke-width:1.3;" x="260.287659574" xlink:href="#m4c0a2fee3c" y="51.48"/>
      </g>
     </g>
    </g>
    <g id="xtick_15">
     <g id="line2d_29">
      <g>
       <use style="fill:#262626;stroke:#262626;stroke-width:1.3;" x="272.634893617" xlink:href="#m4c0a2fee3c" y="450.45"/>
      </g>
     </g>
     <g id="line2d_30">
      <g>
       <use style="fill:#262626;stroke:#262626;stroke-width:1.3;" x="272.634893617" xlink:href="#m4c0a2fee3c" y="51.48"/>
      </g>
     </g>
     <g id="text_8">
      <!-- -24 -->
      <g style="fill:#262626;" transform="translate(263.241377992 468.85515625)scale(0.13 -0.13)">
       <use xlink:href="#ArialMT-2d"/>
       <use x="33.30078125" xlink:href="#ArialMT-32"/>
       <use x="88.916015625" xlink:href="#ArialMT-34"/>
      </g>
     </g>
    </g>
    <g id="xtick_16">
     <g id="line2d_31">
      <g>
       <use style="fill:#262626;stroke:#262626;stroke-width:1.3;" x="284.98212766" xlink:href="#m4c0a2fee3c" y="450.45"/>
      </g>
     </g>
     <g id="line2d_32">
      <g>
       <use style="fill:#262626;stroke:#262626;stroke-width:1.3;" x="284.98212766" xlink:href="#m4c0a2fee3c" y="51.48"/>
      </g>
     </g>
    </g>
    <g id="xtick_17">
     <g id="line2d_33">
      <g>
       <use style="fill:#262626;stroke:#262626;stroke-width:1.3;" x="297.329361702" xlink:href="#m4c0a2fee3c" y="450.45"/>
      </g>
     </g>
     <g id="line2d_34">
      <g>
       <use style="fill:#262626;stroke:#262626;stroke-width:1.3;" x="297.329361702" xlink:href="#m4c0a2fee3c" y="51.48"/>
      </g>
     </g>
     <g id="text_9">
      <!-- -22 -->
      <g style="fill:#262626;" transform="translate(287.935846077 468.85515625)scale(0.13 -0.13)">
       <use xlink:href="#ArialMT-2d"/>
       <use x="33.30078125" xlink:href="#ArialMT-32"/>
       <use x="88.916015625" xlink:href="#ArialMT-32"/>
      </g>
     </g>
    </g>
    <g id="xtick_18">
     <g id="line2d_35">
      <g>
       <use style="fill:#262626;stroke:#262626;stroke-width:1.3;" x="309.676595745" xlink:href="#m4c0a2fee3c" y="450.45"/>
      </g>
     </g>
     <g id="line2d_36">
      <g>
       <use style="fill:#262626;stroke:#262626;stroke-width:1.3;" x="309.676595745" xlink:href="#m4c0a2fee3c" y="51.48"/>
      </g>
     </g>
    </g>
    <g id="xtick_19">
     <g id="line2d_37">
      <g>
       <use style="fill:#262626;stroke:#262626;stroke-width:1.3;" x="322.023829787" xlink:href="#m4c0a2fee3c" y="450.45"/>
      </g>
     </g>
     <g id="line2d_38">
      <g>
       <use style="fill:#262626;stroke:#262626;stroke-width:1.3;" x="322.023829787" xlink:href="#m4c0a2fee3c" y="51.48"/>
      </g>
     </g>
     <g id="text_10">
      <!-- -20 -->
      <g style="fill:#262626;" transform="translate(312.630314162 468.85515625)scale(0.13 -0.13)">
       <use xlink:href="#ArialMT-2d"/>
       <use x="33.30078125" xlink:href="#ArialMT-32"/>
       <use x="88.916015625" xlink:href="#ArialMT-30"/>
      </g>
     </g>
    </g>
    <g id="xtick_20">
     <g id="line2d_39">
      <g>
       <use style="fill:#262626;stroke:#262626;stroke-width:1.3;" x="334.37106383" xlink:href="#m4c0a2fee3c" y="450.45"/>
      </g>
     </g>
     <g id="line2d_40">
      <g>
       <use style="fill:#262626;stroke:#262626;stroke-width:1.3;" x="334.37106383" xlink:href="#m4c0a2fee3c" y="51.48"/>
      </g>
     </g>
    </g>
    <g id="xtick_21">
     <g id="line2d_41">
      <g>
       <use style="fill:#262626;stroke:#262626;stroke-width:1.3;" x="346.718297872" xlink:href="#m4c0a2fee3c" y="450.45"/>
      </g>
     </g>
     <g id="line2d_42">
      <g>
       <use style="fill:#262626;stroke:#262626;stroke-width:1.3;" x="346.718297872" xlink:href="#m4c0a2fee3c" y="51.48"/>
      </g>
     </g>
     <g id="text_11">
      <!-- -18 -->
      <defs>
       <path d="M 37.25 0 
L 28.46875 0 
L 28.46875 56 
Q 25.296875 52.984375 20.140625 49.953125 
Q 14.984375 46.921875 10.890625 45.40625 
L 10.890625 53.90625 
Q 18.265625 57.375 23.78125 62.296875 
Q 29.296875 67.234375 31.59375 71.875 
L 37.25 71.875 
z
" id="ArialMT-31"/>
      </defs>
      <g style="fill:#262626;" transform="translate(337.324782247 468.85515625)scale(0.13 -0.13)">
       <use xlink:href="#ArialMT-2d"/>
       <use x="33.30078125" xlink:href="#ArialMT-31"/>
       <use x="88.916015625" xlink:href="#ArialMT-38"/>
      </g>
     </g>
    </g>
    <g id="xtick_22">
     <g id="line2d_43">
      <g>
       <use style="fill:#262626;stroke:#262626;stroke-width:1.3;" x="359.065531915" xlink:href="#m4c0a2fee3c" y="450.45"/>
      </g>
     </g>
     <g id="line2d_44">
      <g>
       <use style="fill:#262626;stroke:#262626;stroke-width:1.3;" x="359.065531915" xlink:href="#m4c0a2fee3c" y="51.48"/>
      </g>
     </g>
    </g>
    <g id="xtick_23">
     <g id="line2d_45">
      <g>
       <use style="fill:#262626;stroke:#262626;stroke-width:1.3;" x="371.412765957" xlink:href="#m4c0a2fee3c" y="450.45"/>
      </g>
     </g>
     <g id="line2d_46">
      <g>
       <use style="fill:#262626;stroke:#262626;stroke-width:1.3;" x="371.412765957" xlink:href="#m4c0a2fee3c" y="51.48"/>
      </g>
     </g>
     <g id="text_12">
      <!-- -16 -->
      <g style="fill:#262626;" transform="translate(362.019250332 468.85515625)scale(0.13 -0.13)">
       <use xlink:href="#ArialMT-2d"/>
       <use x="33.30078125" xlink:href="#ArialMT-31"/>
       <use x="88.916015625" xlink:href="#ArialMT-36"/>
      </g>
     </g>
    </g>
    <g id="xtick_24">
     <g id="line2d_47">
      <g>
       <use style="fill:#262626;stroke:#262626;stroke-width:1.3;" x="383.76" xlink:href="#m4c0a2fee3c" y="450.45"/>
      </g>
     </g>
     <g id="line2d_48">
      <g>
       <use style="fill:#262626;stroke:#262626;stroke-width:1.3;" x="383.76" xlink:href="#m4c0a2fee3c" y="51.48"/>
      </g>
     </g>
    </g>
    <g id="xtick_25">
     <g id="line2d_49">
      <g>
       <use style="fill:#262626;stroke:#262626;stroke-width:1.3;" x="396.107234043" xlink:href="#m4c0a2fee3c" y="450.45"/>
      </g>
     </g>
     <g id="line2d_50">
      <g>
       <use style="fill:#262626;stroke:#262626;stroke-width:1.3;" x="396.107234043" xlink:href="#m4c0a2fee3c" y="51.48"/>
      </g>
     </g>
     <g id="text_13">
      <!-- -14 -->
      <g style="fill:#262626;" transform="translate(386.713718418 468.85515625)scale(0.13 -0.13)">
       <use xlink:href="#ArialMT-2d"/>
       <use x="33.30078125" xlink:href="#ArialMT-31"/>
       <use x="88.916015625" xlink:href="#ArialMT-34"/>
      </g>
     </g>
    </g>
    <g id="xtick_26">
     <g id="line2d_51">
      <g>
       <use style="fill:#262626;stroke:#262626;stroke-width:1.3;" x="408.454468085" xlink:href="#m4c0a2fee3c" y="450.45"/>
      </g>
     </g>
     <g id="line2d_52">
      <g>
       <use style="fill:#262626;stroke:#262626;stroke-width:1.3;" x="408.454468085" xlink:href="#m4c0a2fee3c" y="51.48"/>
      </g>
     </g>
    </g>
    <g id="xtick_27">
     <g id="line2d_53">
      <g>
       <use style="fill:#262626;stroke:#262626;stroke-width:1.3;" x="420.801702128" xlink:href="#m4c0a2fee3c" y="450.45"/>
      </g>
     </g>
     <g id="line2d_54">
      <g>
       <use style="fill:#262626;stroke:#262626;stroke-width:1.3;" x="420.801702128" xlink:href="#m4c0a2fee3c" y="51.48"/>
      </g>
     </g>
     <g id="text_14">
      <!-- -12 -->
      <g style="fill:#262626;" transform="translate(411.408186503 468.85515625)scale(0.13 -0.13)">
       <use xlink:href="#ArialMT-2d"/>
       <use x="33.30078125" xlink:href="#ArialMT-31"/>
       <use x="88.916015625" xlink:href="#ArialMT-32"/>
      </g>
     </g>
    </g>
    <g id="xtick_28">
     <g id="line2d_55">
      <g>
       <use style="fill:#262626;stroke:#262626;stroke-width:1.3;" x="433.14893617" xlink:href="#m4c0a2fee3c" y="450.45"/>
      </g>
     </g>
     <g id="line2d_56">
      <g>
       <use style="fill:#262626;stroke:#262626;stroke-width:1.3;" x="433.14893617" xlink:href="#m4c0a2fee3c" y="51.48"/>
      </g>
     </g>
    </g>
    <g id="xtick_29">
     <g id="line2d_57">
      <g>
       <use style="fill:#262626;stroke:#262626;stroke-width:1.3;" x="445.496170213" xlink:href="#m4c0a2fee3c" y="450.45"/>
      </g>
     </g>
     <g id="line2d_58">
      <g>
       <use style="fill:#262626;stroke:#262626;stroke-width:1.3;" x="445.496170213" xlink:href="#m4c0a2fee3c" y="51.48"/>
      </g>
     </g>
     <g id="text_15">
      <!-- -10 -->
      <g style="fill:#262626;" transform="translate(436.102654588 468.85515625)scale(0.13 -0.13)">
       <use xlink:href="#ArialMT-2d"/>
       <use x="33.30078125" xlink:href="#ArialMT-31"/>
       <use x="88.916015625" xlink:href="#ArialMT-30"/>
      </g>
     </g>
    </g>
    <g id="xtick_30">
     <g id="line2d_59">
      <g>
       <use style="fill:#262626;stroke:#262626;stroke-width:1.3;" x="457.843404255" xlink:href="#m4c0a2fee3c" y="450.45"/>
      </g>
     </g>
     <g id="line2d_60">
      <g>
       <use style="fill:#262626;stroke:#262626;stroke-width:1.3;" x="457.843404255" xlink:href="#m4c0a2fee3c" y="51.48"/>
      </g>
     </g>
    </g>
    <g id="xtick_31">
     <g id="line2d_61">
      <g>
       <use style="fill:#262626;stroke:#262626;stroke-width:1.3;" x="470.190638298" xlink:href="#m4c0a2fee3c" y="450.45"/>
      </g>
     </g>
     <g id="line2d_62">
      <g>
       <use style="fill:#262626;stroke:#262626;stroke-width:1.3;" x="470.190638298" xlink:href="#m4c0a2fee3c" y="51.48"/>
      </g>
     </g>
     <g id="text_16">
      <!-- -8 -->
      <g style="fill:#262626;" transform="translate(464.411732048 468.85515625)scale(0.13 -0.13)">
       <use xlink:href="#ArialMT-2d"/>
       <use x="33.30078125" xlink:href="#ArialMT-38"/>
      </g>
     </g>
    </g>
    <g id="xtick_32">
     <g id="line2d_63">
      <g>
       <use style="fill:#262626;stroke:#262626;stroke-width:1.3;" x="482.53787234" xlink:href="#m4c0a2fee3c" y="450.45"/>
      </g>
     </g>
     <g id="line2d_64">
      <g>
       <use style="fill:#262626;stroke:#262626;stroke-width:1.3;" x="482.53787234" xlink:href="#m4c0a2fee3c" y="51.48"/>
      </g>
     </g>
    </g>
    <g id="xtick_33">
     <g id="line2d_65">
      <g>
       <use style="fill:#262626;stroke:#262626;stroke-width:1.3;" x="494.885106383" xlink:href="#m4c0a2fee3c" y="450.45"/>
      </g>
     </g>
     <g id="line2d_66">
      <g>
       <use style="fill:#262626;stroke:#262626;stroke-width:1.3;" x="494.885106383" xlink:href="#m4c0a2fee3c" y="51.48"/>
      </g>
     </g>
     <g id="text_17">
      <!-- -6 -->
      <g style="fill:#262626;" transform="translate(489.106200133 468.85515625)scale(0.13 -0.13)">
       <use xlink:href="#ArialMT-2d"/>
       <use x="33.30078125" xlink:href="#ArialMT-36"/>
      </g>
     </g>
    </g>
    <g id="xtick_34">
     <g id="line2d_67">
      <g>
       <use style="fill:#262626;stroke:#262626;stroke-width:1.3;" x="507.232340426" xlink:href="#m4c0a2fee3c" y="450.45"/>
      </g>
     </g>
     <g id="line2d_68">
      <g>
       <use style="fill:#262626;stroke:#262626;stroke-width:1.3;" x="507.232340426" xlink:href="#m4c0a2fee3c" y="51.48"/>
      </g>
     </g>
    </g>
    <g id="xtick_35">
     <g id="line2d_69">
      <g>
       <use style="fill:#262626;stroke:#262626;stroke-width:1.3;" x="519.579574468" xlink:href="#m4c0a2fee3c" y="450.45"/>
      </g>
     </g>
     <g id="line2d_70">
      <g>
       <use style="fill:#262626;stroke:#262626;stroke-width:1.3;" x="519.579574468" xlink:href="#m4c0a2fee3c" y="51.48"/>
      </g>
     </g>
     <g id="text_18">
      <!-- -4 -->
      <g style="fill:#262626;" transform="translate(513.800668218 468.85515625)scale(0.13 -0.13)">
       <use xlink:href="#ArialMT-2d"/>
       <use x="33.30078125" xlink:href="#ArialMT-34"/>
      </g>
     </g>
    </g>
    <g id="xtick_36">
     <g id="line2d_71">
      <g>
       <use style="fill:#262626;stroke:#262626;stroke-width:1.3;" x="531.926808511" xlink:href="#m4c0a2fee3c" y="450.45"/>
      </g>
     </g>
     <g id="line2d_72">
      <g>
       <use style="fill:#262626;stroke:#262626;stroke-width:1.3;" x="531.926808511" xlink:href="#m4c0a2fee3c" y="51.48"/>
      </g>
     </g>
    </g>
    <g id="xtick_37">
     <g id="line2d_73">
      <g>
       <use style="fill:#262626;stroke:#262626;stroke-width:1.3;" x="544.274042553" xlink:href="#m4c0a2fee3c" y="450.45"/>
      </g>
     </g>
     <g id="line2d_74">
      <g>
       <use style="fill:#262626;stroke:#262626;stroke-width:1.3;" x="544.274042553" xlink:href="#m4c0a2fee3c" y="51.48"/>
      </g>
     </g>
     <g id="text_19">
      <!-- -2 -->
      <g style="fill:#262626;" transform="translate(538.495136303 468.85515625)scale(0.13 -0.13)">
       <use xlink:href="#ArialMT-2d"/>
       <use x="33.30078125" xlink:href="#ArialMT-32"/>
      </g>
     </g>
    </g>
    <g id="xtick_38">
     <g id="line2d_75">
      <g>
       <use style="fill:#262626;stroke:#262626;stroke-width:1.3;" x="556.621276596" xlink:href="#m4c0a2fee3c" y="450.45"/>
      </g>
     </g>
     <g id="line2d_76">
      <g>
       <use style="fill:#262626;stroke:#262626;stroke-width:1.3;" x="556.621276596" xlink:href="#m4c0a2fee3c" y="51.48"/>
      </g>
     </g>
    </g>
    <g id="xtick_39">
     <g id="line2d_77">
      <g>
       <use style="fill:#262626;stroke:#262626;stroke-width:1.3;" x="568.968510638" xlink:href="#m4c0a2fee3c" y="450.45"/>
      </g>
     </g>
     <g id="line2d_78">
      <g>
       <use style="fill:#262626;stroke:#262626;stroke-width:1.3;" x="568.968510638" xlink:href="#m4c0a2fee3c" y="51.48"/>
      </g>
     </g>
     <g id="text_20">
      <!-- 1 -->
      <g style="fill:#262626;" transform="translate(565.353901263 468.85515625)scale(0.13 -0.13)">
       <use xlink:href="#ArialMT-31"/>
      </g>
     </g>
    </g>
    <g id="xtick_40">
     <g id="line2d_79">
      <g>
       <use style="fill:#262626;stroke:#262626;stroke-width:1.3;" x="581.315744681" xlink:href="#m4c0a2fee3c" y="450.45"/>
      </g>
     </g>
     <g id="line2d_80">
      <g>
       <use style="fill:#262626;stroke:#262626;stroke-width:1.3;" x="581.315744681" xlink:href="#m4c0a2fee3c" y="51.48"/>
      </g>
     </g>
    </g>
    <g id="xtick_41">
     <g id="line2d_81">
      <g>
       <use style="fill:#262626;stroke:#262626;stroke-width:1.3;" x="593.662978723" xlink:href="#m4c0a2fee3c" y="450.45"/>
      </g>
     </g>
     <g id="line2d_82">
      <g>
       <use style="fill:#262626;stroke:#262626;stroke-width:1.3;" x="593.662978723" xlink:href="#m4c0a2fee3c" y="51.48"/>
      </g>
     </g>
     <g id="text_21">
      <!-- 3 -->
      <g style="fill:#262626;" transform="translate(590.048369348 468.85515625)scale(0.13 -0.13)">
       <use xlink:href="#ArialMT-33"/>
      </g>
     </g>
    </g>
    <g id="xtick_42">
     <g id="line2d_83">
      <g>
       <use style="fill:#262626;stroke:#262626;stroke-width:1.3;" x="606.010212766" xlink:href="#m4c0a2fee3c" y="450.45"/>
      </g>
     </g>
     <g id="line2d_84">
      <g>
       <use style="fill:#262626;stroke:#262626;stroke-width:1.3;" x="606.010212766" xlink:href="#m4c0a2fee3c" y="51.48"/>
      </g>
     </g>
    </g>
    <g id="xtick_43">
     <g id="line2d_85">
      <g>
       <use style="fill:#262626;stroke:#262626;stroke-width:1.3;" x="618.357446809" xlink:href="#m4c0a2fee3c" y="450.45"/>
      </g>
     </g>
     <g id="line2d_86">
      <g>
       <use style="fill:#262626;stroke:#262626;stroke-width:1.3;" x="618.357446809" xlink:href="#m4c0a2fee3c" y="51.48"/>
      </g>
     </g>
     <g id="text_22">
      <!-- 5 -->
      <defs>
       <path d="M 4.15625 18.75 
L 13.375 19.53125 
Q 14.40625 12.796875 18.140625 9.390625 
Q 21.875 6 27.15625 6 
Q 33.5 6 37.890625 10.78125 
Q 42.28125 15.578125 42.28125 23.484375 
Q 42.28125 31 38.0625 35.34375 
Q 33.84375 39.703125 27 39.703125 
Q 22.75 39.703125 19.328125 37.765625 
Q 15.921875 35.84375 13.96875 32.765625 
L 5.71875 33.84375 
L 12.640625 70.609375 
L 48.25 70.609375 
L 48.25 62.203125 
L 19.671875 62.203125 
L 15.828125 42.96875 
Q 22.265625 47.46875 29.34375 47.46875 
Q 38.71875 47.46875 45.15625 40.96875 
Q 51.609375 34.46875 51.609375 24.265625 
Q 51.609375 14.546875 45.953125 7.46875 
Q 39.0625 -1.21875 27.15625 -1.21875 
Q 17.390625 -1.21875 11.203125 4.25 
Q 5.03125 9.71875 4.15625 18.75 
" id="ArialMT-35"/>
      </defs>
      <g style="fill:#262626;" transform="translate(614.742837434 468.85515625)scale(0.13 -0.13)">
       <use xlink:href="#ArialMT-35"/>
      </g>
     </g>
    </g>
    <g id="xtick_44">
     <g id="line2d_87">
      <g>
       <use style="fill:#262626;stroke:#262626;stroke-width:1.3;" x="630.704680851" xlink:href="#m4c0a2fee3c" y="450.45"/>
      </g>
     </g>
     <g id="line2d_88">
      <g>
       <use style="fill:#262626;stroke:#262626;stroke-width:1.3;" x="630.704680851" xlink:href="#m4c0a2fee3c" y="51.48"/>
      </g>
     </g>
    </g>
    <g id="xtick_45">
     <g id="line2d_89">
      <g>
       <use style="fill:#262626;stroke:#262626;stroke-width:1.3;" x="643.051914894" xlink:href="#m4c0a2fee3c" y="450.45"/>
      </g>
     </g>
     <g id="line2d_90">
      <g>
       <use style="fill:#262626;stroke:#262626;stroke-width:1.3;" x="643.051914894" xlink:href="#m4c0a2fee3c" y="51.48"/>
      </g>
     </g>
     <g id="text_23">
      <!-- 7 -->
      <defs>
       <path d="M 4.734375 62.203125 
L 4.734375 70.65625 
L 51.078125 70.65625 
L 51.078125 63.8125 
Q 44.234375 56.546875 37.515625 44.484375 
Q 30.8125 32.421875 27.15625 19.671875 
Q 24.515625 10.6875 23.78125 0 
L 14.75 0 
Q 14.890625 8.453125 18.0625 20.40625 
Q 21.234375 32.375 27.171875 43.484375 
Q 33.109375 54.59375 39.796875 62.203125 
z
" id="ArialMT-37"/>
      </defs>
      <g style="fill:#262626;" transform="translate(639.437305519 468.85515625)scale(0.13 -0.13)">
       <use xlink:href="#ArialMT-37"/>
      </g>
     </g>
    </g>
    <g id="xtick_46">
     <g id="line2d_91">
      <g>
       <use style="fill:#262626;stroke:#262626;stroke-width:1.3;" x="655.399148936" xlink:href="#m4c0a2fee3c" y="450.45"/>
      </g>
     </g>
     <g id="line2d_92">
      <g>
       <use style="fill:#262626;stroke:#262626;stroke-width:1.3;" x="655.399148936" xlink:href="#m4c0a2fee3c" y="51.48"/>
      </g>
     </g>
    </g>
    <g id="xtick_47">
     <g id="line2d_93">
      <g>
       <use style="fill:#262626;stroke:#262626;stroke-width:1.3;" x="667.746382979" xlink:href="#m4c0a2fee3c" y="450.45"/>
      </g>
     </g>
     <g id="line2d_94">
      <g>
       <use style="fill:#262626;stroke:#262626;stroke-width:1.3;" x="667.746382979" xlink:href="#m4c0a2fee3c" y="51.48"/>
      </g>
     </g>
     <g id="text_24">
      <!-- 9 -->
      <defs>
       <path d="M 5.46875 16.546875 
L 13.921875 17.328125 
Q 14.984375 11.375 18.015625 8.6875 
Q 21.046875 6 25.78125 6 
Q 29.828125 6 32.875 7.859375 
Q 35.9375 9.71875 37.890625 12.8125 
Q 39.84375 15.921875 41.15625 21.1875 
Q 42.484375 26.46875 42.484375 31.9375 
Q 42.484375 32.515625 42.4375 33.6875 
Q 39.796875 29.5 35.234375 26.875 
Q 30.671875 24.265625 25.34375 24.265625 
Q 16.453125 24.265625 10.296875 30.703125 
Q 4.15625 37.15625 4.15625 47.703125 
Q 4.15625 58.59375 10.578125 65.234375 
Q 17 71.875 26.65625 71.875 
Q 33.640625 71.875 39.421875 68.109375 
Q 45.21875 64.359375 48.21875 57.390625 
Q 51.21875 50.4375 51.21875 37.25 
Q 51.21875 23.53125 48.234375 15.40625 
Q 45.265625 7.28125 39.375 3.03125 
Q 33.5 -1.21875 25.59375 -1.21875 
Q 17.1875 -1.21875 11.859375 3.4375 
Q 6.546875 8.109375 5.46875 16.546875 
M 41.453125 48.140625 
Q 41.453125 55.71875 37.421875 60.15625 
Q 33.40625 64.59375 27.734375 64.59375 
Q 21.875 64.59375 17.53125 59.8125 
Q 13.1875 55.03125 13.1875 47.40625 
Q 13.1875 40.578125 17.3125 36.296875 
Q 21.4375 32.03125 27.484375 32.03125 
Q 33.59375 32.03125 37.515625 36.296875 
Q 41.453125 40.578125 41.453125 48.140625 
" id="ArialMT-39"/>
      </defs>
      <g style="fill:#262626;" transform="translate(664.131773604 468.85515625)scale(0.13 -0.13)">
       <use xlink:href="#ArialMT-39"/>
      </g>
     </g>
    </g>
    <g id="text_25">
     <!-- Punkte -->
     <defs>
      <path d="M 6.59375 0 
L 6.59375 51.859375 
L 14.5 51.859375 
L 14.5 44.484375 
Q 20.21875 53.03125 31 53.03125 
Q 35.6875 53.03125 39.625 51.34375 
Q 43.5625 49.65625 45.515625 46.921875 
Q 47.46875 44.1875 48.25 40.4375 
Q 48.734375 37.984375 48.734375 31.890625 
L 48.734375 0 
L 39.9375 0 
L 39.9375 31.546875 
Q 39.9375 36.921875 38.90625 39.578125 
Q 37.890625 42.234375 35.28125 43.8125 
Q 32.671875 45.40625 29.15625 45.40625 
Q 23.53125 45.40625 19.453125 41.84375 
Q 15.375 38.28125 15.375 28.328125 
L 15.375 0 
z
" id="ArialMT-6e"/>
      <path d="M 40.578125 0 
L 40.578125 7.625 
Q 34.515625 -1.171875 24.125 -1.171875 
Q 19.53125 -1.171875 15.546875 0.578125 
Q 11.578125 2.34375 9.640625 5 
Q 7.71875 7.671875 6.9375 11.53125 
Q 6.390625 14.109375 6.390625 19.734375 
L 6.390625 51.859375 
L 15.1875 51.859375 
L 15.1875 23.09375 
Q 15.1875 16.21875 15.71875 13.8125 
Q 16.546875 10.359375 19.234375 8.375 
Q 21.921875 6.390625 25.875 6.390625 
Q 29.828125 6.390625 33.296875 8.421875 
Q 36.765625 10.453125 38.203125 13.9375 
Q 39.65625 17.4375 39.65625 24.078125 
L 39.65625 51.859375 
L 48.4375 51.859375 
L 48.4375 0 
z
" id="ArialMT-75"/>
      <path d="M 42.09375 16.703125 
L 51.171875 15.578125 
Q 49.03125 7.625 43.21875 3.21875 
Q 37.40625 -1.171875 28.375 -1.171875 
Q 17 -1.171875 10.328125 5.828125 
Q 3.65625 12.84375 3.65625 25.484375 
Q 3.65625 38.578125 10.390625 45.796875 
Q 17.140625 53.03125 27.875 53.03125 
Q 38.28125 53.03125 44.875 45.953125 
Q 51.46875 38.875 51.46875 26.03125 
Q 51.46875 25.25 51.421875 23.6875 
L 12.75 23.6875 
Q 13.234375 15.140625 17.578125 10.59375 
Q 21.921875 6.0625 28.421875 6.0625 
Q 33.25 6.0625 36.671875 8.59375 
Q 40.09375 11.140625 42.09375 16.703125 
M 13.234375 30.90625 
L 42.1875 30.90625 
Q 41.609375 37.453125 38.875 40.71875 
Q 34.671875 45.796875 27.984375 45.796875 
Q 21.921875 45.796875 17.796875 41.75 
Q 13.671875 37.703125 13.234375 30.90625 
" id="ArialMT-65"/>
      <path d="M 6.640625 0 
L 6.640625 71.578125 
L 15.4375 71.578125 
L 15.4375 30.765625 
L 36.234375 51.859375 
L 47.609375 51.859375 
L 27.78125 32.625 
L 49.609375 0 
L 38.765625 0 
L 21.625 26.515625 
L 15.4375 20.5625 
L 15.4375 0 
z
" id="ArialMT-6b"/>
      <path d="M 7.71875 0 
L 7.71875 71.578125 
L 34.71875 71.578125 
Q 41.84375 71.578125 45.609375 70.90625 
Q 50.875 70.015625 54.4375 67.546875 
Q 58.015625 65.09375 60.1875 60.640625 
Q 62.359375 56.203125 62.359375 50.875 
Q 62.359375 41.75 56.546875 35.421875 
Q 50.734375 29.109375 35.546875 29.109375 
L 17.1875 29.109375 
L 17.1875 0 
z
M 17.1875 37.546875 
L 35.6875 37.546875 
Q 44.875 37.546875 48.734375 40.96875 
Q 52.59375 44.390625 52.59375 50.59375 
Q 52.59375 55.078125 50.3125 58.265625 
Q 48.046875 61.46875 44.34375 62.5 
Q 41.9375 63.140625 35.5 63.140625 
L 17.1875 63.140625 
z
" id="ArialMT-50"/>
      <path d="M 25.78125 7.859375 
L 27.046875 0.09375 
Q 23.34375 -0.6875 20.40625 -0.6875 
Q 15.625 -0.6875 12.984375 0.828125 
Q 10.359375 2.34375 9.28125 4.8125 
Q 8.203125 7.28125 8.203125 15.1875 
L 8.203125 45.015625 
L 1.765625 45.015625 
L 1.765625 51.859375 
L 8.203125 51.859375 
L 8.203125 64.703125 
L 16.9375 69.96875 
L 16.9375 51.859375 
L 25.78125 51.859375 
L 25.78125 45.015625 
L 16.9375 45.015625 
L 16.9375 14.703125 
Q 16.9375 10.9375 17.40625 9.859375 
Q 17.875 8.796875 18.921875 8.15625 
Q 19.96875 7.515625 21.921875 7.515625 
Q 23.390625 7.515625 25.78125 7.859375 
" id="ArialMT-74"/>
     </defs>
     <g style="fill:#262626;" transform="translate(361.50115625 486.674578125)scale(0.14300000000000002 -0.14300000000000002)">
      <use xlink:href="#ArialMT-50"/>
      <use x="66.69921875" xlink:href="#ArialMT-75"/>
      <use x="122.314453125" xlink:href="#ArialMT-6e"/>
      <use x="177.9296875" xlink:href="#ArialMT-6b"/>
      <use x="227.9296875" xlink:href="#ArialMT-74"/>
      <use x="255.712890625" xlink:href="#ArialMT-65"/>
     </g>
    </g>
   </g>
   <g id="matplotlib.axis_2">
    <g id="ytick_1">
     <g id="line2d_95">
      <path clip-path="url(#p102f31a645)" d="M 93.6 450.45 
L 673.92 450.45 
" style="fill:none;stroke:#ffffff;stroke-linecap:round;stroke-width:1.3;"/>
     </g>
     <g id="line2d_96">
      <g>
       <use style="fill:#262626;stroke:#262626;stroke-width:1.3;" x="93.6" xlink:href="#m4c0a2fee3c" y="450.45"/>
      </g>
     </g>
     <g id="line2d_97">
      <g>
       <use style="fill:#262626;stroke:#262626;stroke-width:1.3;" x="673.92" xlink:href="#m4c0a2fee3c" y="450.45"/>
      </g>
     </g>
     <g id="text_26">
      <!-- 0 -->
      <g style="fill:#262626;" transform="translate(77.27078125 453.810703125)scale(0.13 -0.13)">
       <use xlink:href="#ArialMT-30"/>
      </g>
     </g>
    </g>
    <g id="ytick_2">
     <g id="line2d_98">
      <path clip-path="url(#p102f31a645)" d="M 93.6 393.454286 
L 673.92 393.454286 
" style="fill:none;stroke:#ffffff;stroke-linecap:round;stroke-width:1.3;"/>
     </g>
     <g id="line2d_99">
      <g>
       <use style="fill:#262626;stroke:#262626;stroke-width:1.3;" x="93.6" xlink:href="#m4c0a2fee3c" y="393.454285714"/>
      </g>
     </g>
     <g id="line2d_100">
      <g>
       <use style="fill:#262626;stroke:#262626;stroke-width:1.3;" x="673.92" xlink:href="#m4c0a2fee3c" y="393.454285714"/>
      </g>
     </g>
     <g id="text_27">
      <!-- 2 -->
      <g style="fill:#262626;" transform="translate(77.27078125 396.814988839)scale(0.13 -0.13)">
       <use xlink:href="#ArialMT-32"/>
      </g>
     </g>
    </g>
    <g id="ytick_3">
     <g id="line2d_101">
      <path clip-path="url(#p102f31a645)" d="M 93.6 336.458571 
L 673.92 336.458571 
" style="fill:none;stroke:#ffffff;stroke-linecap:round;stroke-width:1.3;"/>
     </g>
     <g id="line2d_102">
      <g>
       <use style="fill:#262626;stroke:#262626;stroke-width:1.3;" x="93.6" xlink:href="#m4c0a2fee3c" y="336.458571429"/>
      </g>
     </g>
     <g id="line2d_103">
      <g>
       <use style="fill:#262626;stroke:#262626;stroke-width:1.3;" x="673.92" xlink:href="#m4c0a2fee3c" y="336.458571429"/>
      </g>
     </g>
     <g id="text_28">
      <!-- 4 -->
      <g style="fill:#262626;" transform="translate(77.27078125 339.819274554)scale(0.13 -0.13)">
       <use xlink:href="#ArialMT-34"/>
      </g>
     </g>
    </g>
    <g id="ytick_4">
     <g id="line2d_104">
      <path clip-path="url(#p102f31a645)" d="M 93.6 279.462857 
L 673.92 279.462857 
" style="fill:none;stroke:#ffffff;stroke-linecap:round;stroke-width:1.3;"/>
     </g>
     <g id="line2d_105">
      <g>
       <use style="fill:#262626;stroke:#262626;stroke-width:1.3;" x="93.6" xlink:href="#m4c0a2fee3c" y="279.462857143"/>
      </g>
     </g>
     <g id="line2d_106">
      <g>
       <use style="fill:#262626;stroke:#262626;stroke-width:1.3;" x="673.92" xlink:href="#m4c0a2fee3c" y="279.462857143"/>
      </g>
     </g>
     <g id="text_29">
      <!-- 6 -->
      <g style="fill:#262626;" transform="translate(77.27078125 282.823560268)scale(0.13 -0.13)">
       <use xlink:href="#ArialMT-36"/>
      </g>
     </g>
    </g>
    <g id="ytick_5">
     <g id="line2d_107">
      <path clip-path="url(#p102f31a645)" d="M 93.6 222.467143 
L 673.92 222.467143 
" style="fill:none;stroke:#ffffff;stroke-linecap:round;stroke-width:1.3;"/>
     </g>
     <g id="line2d_108">
      <g>
       <use style="fill:#262626;stroke:#262626;stroke-width:1.3;" x="93.6" xlink:href="#m4c0a2fee3c" y="222.467142857"/>
      </g>
     </g>
     <g id="line2d_109">
      <g>
       <use style="fill:#262626;stroke:#262626;stroke-width:1.3;" x="673.92" xlink:href="#m4c0a2fee3c" y="222.467142857"/>
      </g>
     </g>
     <g id="text_30">
      <!-- 8 -->
      <g style="fill:#262626;" transform="translate(77.27078125 225.827845982)scale(0.13 -0.13)">
       <use xlink:href="#ArialMT-38"/>
      </g>
     </g>
    </g>
    <g id="ytick_6">
     <g id="line2d_110">
      <path clip-path="url(#p102f31a645)" d="M 93.6 165.471429 
L 673.92 165.471429 
" style="fill:none;stroke:#ffffff;stroke-linecap:round;stroke-width:1.3;"/>
     </g>
     <g id="line2d_111">
      <g>
       <use style="fill:#262626;stroke:#262626;stroke-width:1.3;" x="93.6" xlink:href="#m4c0a2fee3c" y="165.471428571"/>
      </g>
     </g>
     <g id="line2d_112">
      <g>
       <use style="fill:#262626;stroke:#262626;stroke-width:1.3;" x="673.92" xlink:href="#m4c0a2fee3c" y="165.471428571"/>
      </g>
     </g>
     <g id="text_31">
      <!-- 10 -->
      <g style="fill:#262626;" transform="translate(70.0415625 168.832131696)scale(0.13 -0.13)">
       <use xlink:href="#ArialMT-31"/>
       <use x="55.615234375" xlink:href="#ArialMT-30"/>
      </g>
     </g>
    </g>
    <g id="ytick_7">
     <g id="line2d_113">
      <path clip-path="url(#p102f31a645)" d="M 93.6 108.475714 
L 673.92 108.475714 
" style="fill:none;stroke:#ffffff;stroke-linecap:round;stroke-width:1.3;"/>
     </g>
     <g id="line2d_114">
      <g>
       <use style="fill:#262626;stroke:#262626;stroke-width:1.3;" x="93.6" xlink:href="#m4c0a2fee3c" y="108.475714286"/>
      </g>
     </g>
     <g id="line2d_115">
      <g>
       <use style="fill:#262626;stroke:#262626;stroke-width:1.3;" x="673.92" xlink:href="#m4c0a2fee3c" y="108.475714286"/>
      </g>
     </g>
     <g id="text_32">
      <!-- 12 -->
      <g style="fill:#262626;" transform="translate(70.0415625 111.836417411)scale(0.13 -0.13)">
       <use xlink:href="#ArialMT-31"/>
       <use x="55.615234375" xlink:href="#ArialMT-32"/>
      </g>
     </g>
    </g>
    <g id="ytick_8">
     <g id="line2d_116">
      <path clip-path="url(#p102f31a645)" d="M 93.6 51.48 
L 673.92 51.48 
" style="fill:none;stroke:#ffffff;stroke-linecap:round;stroke-width:1.3;"/>
     </g>
     <g id="line2d_117">
      <g>
       <use style="fill:#262626;stroke:#262626;stroke-width:1.3;" x="93.6" xlink:href="#m4c0a2fee3c" y="51.48"/>
      </g>
     </g>
     <g id="line2d_118">
      <g>
       <use style="fill:#262626;stroke:#262626;stroke-width:1.3;" x="673.92" xlink:href="#m4c0a2fee3c" y="51.48"/>
      </g>
     </g>
     <g id="text_33">
      <!-- 14 -->
      <g style="fill:#262626;" transform="translate(70.0415625 54.840703125)scale(0.13 -0.13)">
       <use xlink:href="#ArialMT-31"/>
       <use x="55.615234375" xlink:href="#ArialMT-34"/>
      </g>
     </g>
    </g>
    <g id="text_34">
     <!-- Häufigkeit [%] -->
     <defs>
      <path d="M 8.015625 0 
L 8.015625 71.578125 
L 17.484375 71.578125 
L 17.484375 42.1875 
L 54.6875 42.1875 
L 54.6875 71.578125 
L 64.15625 71.578125 
L 64.15625 0 
L 54.6875 0 
L 54.6875 33.734375 
L 17.484375 33.734375 
L 17.484375 0 
z
" id="ArialMT-48"/>
      <path d="M 40.4375 6.390625 
Q 35.546875 2.25 31.03125 0.53125 
Q 26.515625 -1.171875 21.34375 -1.171875 
Q 12.796875 -1.171875 8.203125 3 
Q 3.609375 7.171875 3.609375 13.671875 
Q 3.609375 17.484375 5.34375 20.625 
Q 7.078125 23.78125 9.890625 25.6875 
Q 12.703125 27.59375 16.21875 28.5625 
Q 18.796875 29.25 24.03125 29.890625 
Q 34.671875 31.15625 39.703125 32.90625 
Q 39.75 34.71875 39.75 35.203125 
Q 39.75 40.578125 37.25 42.78125 
Q 33.890625 45.75 27.25 45.75 
Q 21.046875 45.75 18.09375 43.578125 
Q 15.140625 41.40625 13.71875 35.890625 
L 5.125 37.0625 
Q 6.296875 42.578125 8.984375 45.96875 
Q 11.671875 49.359375 16.75 51.1875 
Q 21.828125 53.03125 28.515625 53.03125 
Q 35.15625 53.03125 39.296875 51.46875 
Q 43.453125 49.90625 45.40625 47.53125 
Q 47.359375 45.171875 48.140625 41.546875 
Q 48.578125 39.3125 48.578125 33.453125 
L 48.578125 21.734375 
Q 48.578125 9.46875 49.140625 6.21875 
Q 49.703125 2.984375 51.375 0 
L 42.1875 0 
Q 40.828125 2.734375 40.4375 6.390625 
M 39.703125 26.03125 
Q 34.90625 24.078125 25.34375 22.703125 
Q 19.921875 21.921875 17.671875 20.9375 
Q 15.4375 19.96875 14.203125 18.09375 
Q 12.984375 16.21875 12.984375 13.921875 
Q 12.984375 10.40625 15.640625 8.0625 
Q 18.3125 5.71875 23.4375 5.71875 
Q 28.515625 5.71875 32.46875 7.9375 
Q 36.421875 10.15625 38.28125 14.015625 
Q 39.703125 17 39.703125 22.796875 
z
M 13.859375 62.015625 
L 13.859375 72.015625 
L 23.03125 72.015625 
L 23.03125 62.015625 
z
M 32.0625 62.015625 
L 32.0625 72.015625 
L 41.25 72.015625 
L 41.25 62.015625 
z
" id="ArialMT-e4"/>
      <path d="M 8.6875 0 
L 8.6875 45.015625 
L 0.921875 45.015625 
L 0.921875 51.859375 
L 8.6875 51.859375 
L 8.6875 57.375 
Q 8.6875 62.59375 9.625 65.140625 
Q 10.890625 68.5625 14.078125 70.671875 
Q 17.28125 72.796875 23.046875 72.796875 
Q 26.765625 72.796875 31.25 71.921875 
L 29.9375 64.265625 
Q 27.203125 64.75 24.75 64.75 
Q 20.75 64.75 19.09375 63.03125 
Q 17.4375 61.328125 17.4375 56.640625 
L 17.4375 51.859375 
L 27.546875 51.859375 
L 27.546875 45.015625 
L 17.4375 45.015625 
L 17.4375 0 
z
" id="ArialMT-66"/>
      <path id="ArialMT-20"/>
      <path d="M 4.984375 -4.296875 
L 13.53125 -5.5625 
Q 14.0625 -9.515625 16.5 -11.328125 
Q 19.78125 -13.765625 25.4375 -13.765625 
Q 31.546875 -13.765625 34.859375 -11.328125 
Q 38.1875 -8.890625 39.359375 -4.5 
Q 40.046875 -1.8125 39.984375 6.78125 
Q 34.234375 0 25.640625 0 
Q 14.9375 0 9.078125 7.71875 
Q 3.21875 15.4375 3.21875 26.21875 
Q 3.21875 33.640625 5.90625 39.90625 
Q 8.59375 46.1875 13.6875 49.609375 
Q 18.796875 53.03125 25.6875 53.03125 
Q 34.859375 53.03125 40.828125 45.609375 
L 40.828125 51.859375 
L 48.921875 51.859375 
L 48.921875 7.03125 
Q 48.921875 -5.078125 46.453125 -10.125 
Q 44 -15.1875 38.640625 -18.109375 
Q 33.296875 -21.046875 25.484375 -21.046875 
Q 16.21875 -21.046875 10.5 -16.875 
Q 4.78125 -12.703125 4.984375 -4.296875 
M 12.25 26.859375 
Q 12.25 16.65625 16.296875 11.96875 
Q 20.359375 7.28125 26.46875 7.28125 
Q 32.515625 7.28125 36.609375 11.9375 
Q 40.71875 16.609375 40.71875 26.5625 
Q 40.71875 36.078125 36.5 40.90625 
Q 32.28125 45.75 26.3125 45.75 
Q 20.453125 45.75 16.34375 40.984375 
Q 12.25 36.234375 12.25 26.859375 
" id="ArialMT-67"/>
      <path d="M 5.8125 54.390625 
Q 5.8125 62.0625 9.671875 67.421875 
Q 13.53125 72.796875 20.84375 72.796875 
Q 27.59375 72.796875 32 67.984375 
Q 36.421875 63.1875 36.421875 53.859375 
Q 36.421875 44.78125 31.953125 39.875 
Q 27.484375 34.96875 20.953125 34.96875 
Q 14.453125 34.96875 10.125 39.796875 
Q 5.8125 44.625 5.8125 54.390625 
M 21.09375 66.75 
Q 17.828125 66.75 15.65625 63.90625 
Q 13.484375 61.078125 13.484375 53.515625 
Q 13.484375 46.625 15.671875 43.8125 
Q 17.875 41.015625 21.09375 41.015625 
Q 24.421875 41.015625 26.59375 43.84375 
Q 28.765625 46.6875 28.765625 54.203125 
Q 28.765625 61.140625 26.5625 63.9375 
Q 24.359375 66.75 21.09375 66.75 
M 21.140625 -2.640625 
L 60.296875 72.796875 
L 67.4375 72.796875 
L 28.421875 -2.640625 
z
M 52.09375 16.796875 
Q 52.09375 24.515625 55.953125 29.859375 
Q 59.8125 35.203125 67.1875 35.203125 
Q 73.921875 35.203125 78.34375 30.390625 
Q 82.765625 25.59375 82.765625 16.265625 
Q 82.765625 7.171875 78.296875 2.265625 
Q 73.828125 -2.640625 67.234375 -2.640625 
Q 60.75 -2.640625 56.421875 2.21875 
Q 52.09375 7.078125 52.09375 16.796875 
M 67.4375 29.15625 
Q 64.109375 29.15625 61.9375 26.3125 
Q 59.765625 23.484375 59.765625 15.921875 
Q 59.765625 9.078125 61.953125 6.25 
Q 64.15625 3.421875 67.390625 3.421875 
Q 70.75 3.421875 72.921875 6.25 
Q 75.09375 9.078125 75.09375 16.609375 
Q 75.09375 23.53125 72.890625 26.34375 
Q 70.703125 29.15625 67.4375 29.15625 
" id="ArialMT-25"/>
      <path d="M 6.78125 -19.875 
L 6.78125 71.578125 
L 26.171875 71.578125 
L 26.171875 64.3125 
L 15.578125 64.3125 
L 15.578125 -12.59375 
L 26.171875 -12.59375 
L 26.171875 -19.875 
z
" id="ArialMT-5b"/>
      <path d="M 21.296875 -19.875 
L 1.90625 -19.875 
L 1.90625 -12.59375 
L 12.5 -12.59375 
L 12.5 64.3125 
L 1.90625 64.3125 
L 1.90625 71.578125 
L 21.296875 71.578125 
z
" id="ArialMT-5d"/>
      <path d="M 6.640625 61.46875 
L 6.640625 71.578125 
L 15.4375 71.578125 
L 15.4375 61.46875 
z
M 6.640625 0 
L 6.640625 51.859375 
L 15.4375 51.859375 
L 15.4375 0 
z
" id="ArialMT-69"/>
     </defs>
     <g style="fill:#262626;" transform="translate(62.031859375 295.074914063)rotate(-90.0)scale(0.14300000000000002 -0.14300000000000002)">
      <use xlink:href="#ArialMT-48"/>
      <use x="72.216796875" xlink:href="#ArialMT-e4"/>
      <use x="127.83203125" xlink:href="#ArialMT-75"/>
      <use x="183.447265625" xlink:href="#ArialMT-66"/>
      <use x="211.23046875" xlink:href="#ArialMT-69"/>
      <use x="233.447265625" xlink:href="#ArialMT-67"/>
      <use x="289.0625" xlink:href="#ArialMT-6b"/>
      <use x="339.0625" xlink:href="#ArialMT-65"/>
      <use x="394.677734375" xlink:href="#ArialMT-69"/>
      <use x="416.89453125" xlink:href="#ArialMT-74"/>
      <use x="444.677734375" xlink:href="#ArialMT-20"/>
      <use x="472.4609375" xlink:href="#ArialMT-5b"/>
      <use x="500.244140625" xlink:href="#ArialMT-25"/>
      <use x="589.16015625" xlink:href="#ArialMT-5d"/>
     </g>
    </g>
   </g>
   <g id="patch_3">
    <path clip-path="url(#p102f31a645)" d="M 94.834723 450.45 
L 104.712511 450.45 
L 104.712511 450.421502 
L 94.834723 450.421502 
z
" style="fill:#df2020;stroke:#000000;stroke-linejoin:miter;stroke-width:0.39;"/>
   </g>
   <g id="patch_4">
    <path clip-path="url(#p102f31a645)" d="M 107.181957 450.45 
L 117.059745 450.45 
L 117.059745 450.421502 
L 107.181957 450.421502 
z
" style="fill:#e02525;stroke:#000000;stroke-linejoin:miter;stroke-width:0.39;"/>
   </g>
   <g id="patch_5">
    <path clip-path="url(#p102f31a645)" d="M 119.529191 450.45 
L 129.406979 450.45 
L 129.406979 450.421502 
L 119.529191 450.421502 
z
" style="fill:#e12a2a;stroke:#000000;stroke-linejoin:miter;stroke-width:0.39;"/>
   </g>
   <g id="patch_6">
    <path clip-path="url(#p102f31a645)" d="z
" style="fill:#e13030;stroke:#000000;stroke-linejoin:miter;stroke-width:0.39;"/>
   </g>
   <g id="patch_7">
    <path clip-path="url(#p102f31a645)" d="M 144.22366 450.45 
L 154.101447 450.45 
L 154.101447 450.336009 
L 144.22366 450.336009 
z
" style="fill:#e23535;stroke:#000000;stroke-linejoin:miter;stroke-width:0.39;"/>
   </g>
   <g id="patch_8">
    <path clip-path="url(#p102f31a645)" d="M 156.570894 450.45 
L 166.448681 450.45 
L 166.448681 450.222017 
L 156.570894 450.222017 
z
" style="fill:#e33b3b;stroke:#000000;stroke-linejoin:miter;stroke-width:0.39;"/>
   </g>
   <g id="patch_9">
    <path clip-path="url(#p102f31a645)" d="M 168.918128 450.45 
L 178.795915 450.45 
L 178.795915 449.965536 
L 168.918128 449.965536 
z
" style="fill:#e44040;stroke:#000000;stroke-linejoin:miter;stroke-width:0.39;"/>
   </g>
   <g id="patch_10">
    <path clip-path="url(#p102f31a645)" d="M 181.265362 450.45 
L 191.143149 450.45 
L 191.143149 449.794549 
L 181.265362 449.794549 
z
" style="fill:#e54646;stroke:#000000;stroke-linejoin:miter;stroke-width:0.39;"/>
   </g>
   <g id="patch_11">
    <path clip-path="url(#p102f31a645)" d="M 193.612596 450.45 
L 203.490383 450.45 
L 203.490383 449.424077 
L 193.612596 449.424077 
z
" style="fill:#e54b4b;stroke:#000000;stroke-linejoin:miter;stroke-width:0.39;"/>
   </g>
   <g id="patch_12">
    <path clip-path="url(#p102f31a645)" d="M 205.95983 450.45 
L 215.837617 450.45 
L 215.837617 449.281588 
L 205.95983 449.281588 
z
" style="fill:#e65151;stroke:#000000;stroke-linejoin:miter;stroke-width:0.39;"/>
   </g>
   <g id="patch_13">
    <path clip-path="url(#p102f31a645)" d="M 218.307064 450.45 
L 228.184851 450.45 
L 228.184851 448.255665 
L 218.307064 448.255665 
z
" style="fill:#e75656;stroke:#000000;stroke-linejoin:miter;stroke-width:0.39;"/>
   </g>
   <g id="patch_14">
    <path clip-path="url(#p102f31a645)" d="M 230.654298 450.45 
L 240.532085 450.45 
L 240.532085 447.999184 
L 230.654298 447.999184 
z
" style="fill:#e85c5c;stroke:#000000;stroke-linejoin:miter;stroke-width:0.39;"/>
   </g>
   <g id="patch_15">
    <path clip-path="url(#p102f31a645)" d="M 243.001532 450.45 
L 252.879319 450.45 
L 252.879319 447.486223 
L 243.001532 447.486223 
z
" style="fill:#e86161;stroke:#000000;stroke-linejoin:miter;stroke-width:0.39;"/>
   </g>
   <g id="patch_16">
    <path clip-path="url(#p102f31a645)" d="M 255.348766 450.45 
L 265.226553 450.45 
L 265.226553 446.773776 
L 255.348766 446.773776 
z
" style="fill:#e96666;stroke:#000000;stroke-linejoin:miter;stroke-width:0.39;"/>
   </g>
   <g id="patch_17">
    <path clip-path="url(#p102f31a645)" d="M 267.696 450.45 
L 277.573787 450.45 
L 277.573787 444.921416 
L 267.696 444.921416 
z
" style="fill:#ea6b6b;stroke:#000000;stroke-linejoin:miter;stroke-width:0.39;"/>
   </g>
   <g id="patch_18">
    <path clip-path="url(#p102f31a645)" d="M 280.043234 450.45 
L 289.921021 450.45 
L 289.921021 443.639012 
L 280.043234 443.639012 
z
" style="fill:#eb7171;stroke:#000000;stroke-linejoin:miter;stroke-width:0.39;"/>
   </g>
   <g id="patch_19">
    <path clip-path="url(#p102f31a645)" d="M 292.390468 450.45 
L 302.268255 450.45 
L 302.268255 442.328111 
L 292.390468 442.328111 
z
" style="fill:#ec7676;stroke:#000000;stroke-linejoin:miter;stroke-width:0.39;"/>
   </g>
   <g id="patch_20">
    <path clip-path="url(#p102f31a645)" d="M 304.737702 450.45 
L 314.615489 450.45 
L 314.615489 440.87472 
L 304.737702 440.87472 
z
" style="fill:#ec7c7c;stroke:#000000;stroke-linejoin:miter;stroke-width:0.39;"/>
   </g>
   <g id="patch_21">
    <path clip-path="url(#p102f31a645)" d="M 317.084936 450.45 
L 326.962723 450.45 
L 326.962723 438.309913 
L 317.084936 438.309913 
z
" style="fill:#ed8282;stroke:#000000;stroke-linejoin:miter;stroke-width:0.39;"/>
   </g>
   <g id="patch_22">
    <path clip-path="url(#p102f31a645)" d="M 329.43217 450.45 
L 339.309957 450.45 
L 339.309957 436.657037 
L 329.43217 436.657037 
z
" style="fill:#ee8787;stroke:#000000;stroke-linejoin:miter;stroke-width:0.39;"/>
   </g>
   <g id="patch_23">
    <path clip-path="url(#p102f31a645)" d="M 341.779404 450.45 
L 351.657191 450.45 
L 351.657191 435.716608 
L 341.779404 435.716608 
z
" style="fill:#ef8d8d;stroke:#000000;stroke-linejoin:miter;stroke-width:0.39;"/>
   </g>
   <g id="patch_24">
    <path clip-path="url(#p102f31a645)" d="M 354.126638 450.45 
L 364.004426 450.45 
L 364.004426 432.752831 
L 354.126638 432.752831 
z
" style="fill:#ef9292;stroke:#000000;stroke-linejoin:miter;stroke-width:0.39;"/>
   </g>
   <g id="patch_25">
    <path clip-path="url(#p102f31a645)" d="M 366.473872 450.45 
L 376.35166 450.45 
L 376.35166 431.726908 
L 366.473872 431.726908 
z
" style="fill:#f09898;stroke:#000000;stroke-linejoin:miter;stroke-width:0.39;"/>
   </g>
   <g id="patch_26">
    <path clip-path="url(#p102f31a645)" d="M 378.821106 450.45 
L 388.698894 450.45 
L 388.698894 427.224246 
L 378.821106 427.224246 
z
" style="fill:#f19d9d;stroke:#000000;stroke-linejoin:miter;stroke-width:0.39;"/>
   </g>
   <g id="patch_27">
    <path clip-path="url(#p102f31a645)" d="M 391.16834 450.45 
L 401.046128 450.45 
L 401.046128 424.260469 
L 391.16834 424.260469 
z
" style="fill:#f2a3a3;stroke:#000000;stroke-linejoin:miter;stroke-width:0.39;"/>
   </g>
   <g id="patch_28">
    <path clip-path="url(#p102f31a645)" d="M 403.515574 450.45 
L 413.393362 450.45 
L 413.393362 423.861499 
L 403.515574 423.861499 
z
" style="fill:#f2a7a7;stroke:#000000;stroke-linejoin:miter;stroke-width:0.39;"/>
   </g>
   <g id="patch_29">
    <path clip-path="url(#p102f31a645)" d="M 415.862809 450.45 
L 425.740596 450.45 
L 425.740596 418.93137 
L 415.862809 418.93137 
z
" style="fill:#f3adad;stroke:#000000;stroke-linejoin:miter;stroke-width:0.39;"/>
   </g>
   <g id="patch_30">
    <path clip-path="url(#p102f31a645)" d="M 428.210043 450.45 
L 438.08783 450.45 
L 438.08783 416.366563 
L 428.210043 416.366563 
z
" style="fill:#f4b2b2;stroke:#000000;stroke-linejoin:miter;stroke-width:0.39;"/>
   </g>
   <g id="patch_31">
    <path clip-path="url(#p102f31a645)" d="M 440.557277 450.45 
L 450.435064 450.45 
L 450.435064 413.34579 
L 440.557277 413.34579 
z
" style="fill:#f5b8b8;stroke:#000000;stroke-linejoin:miter;stroke-width:0.39;"/>
   </g>
   <g id="patch_32">
    <path clip-path="url(#p102f31a645)" d="M 452.904511 450.45 
L 462.782298 450.45 
L 462.782298 409.840554 
L 452.904511 409.840554 
z
" style="fill:#f6bdbd;stroke:#000000;stroke-linejoin:miter;stroke-width:0.39;"/>
   </g>
   <g id="patch_33">
    <path clip-path="url(#p102f31a645)" d="M 465.251745 450.45 
L 475.129532 450.45 
L 475.129532 406.506304 
L 465.251745 406.506304 
z
" style="fill:#f6c3c3;stroke:#000000;stroke-linejoin:miter;stroke-width:0.39;"/>
   </g>
   <g id="patch_34">
    <path clip-path="url(#p102f31a645)" d="M 477.598979 450.45 
L 487.476766 450.45 
L 487.476766 402.630596 
L 477.598979 402.630596 
z
" style="fill:#f7c8c8;stroke:#000000;stroke-linejoin:miter;stroke-width:0.39;"/>
   </g>
   <g id="patch_35">
    <path clip-path="url(#p102f31a645)" d="M 489.946213 450.45 
L 499.824 450.45 
L 499.824 395.078664 
L 489.946213 395.078664 
z
" style="fill:#f8cece;stroke:#000000;stroke-linejoin:miter;stroke-width:0.39;"/>
   </g>
   <g id="patch_36">
    <path clip-path="url(#p102f31a645)" d="M 502.293447 450.45 
L 512.171234 450.45 
L 512.171234 391.174457 
L 502.293447 391.174457 
z
" style="fill:#f9d3d3;stroke:#000000;stroke-linejoin:miter;stroke-width:0.39;"/>
   </g>
   <g id="patch_37">
    <path clip-path="url(#p102f31a645)" d="M 514.640681 450.45 
L 524.518468 450.45 
L 524.518468 384.705444 
L 514.640681 384.705444 
z
" style="fill:#fad9d9;stroke:#000000;stroke-linejoin:miter;stroke-width:0.39;"/>
   </g>
   <g id="patch_38">
    <path clip-path="url(#p102f31a645)" d="M 526.987915 450.45 
L 536.865702 450.45 
L 536.865702 376.612052 
L 526.987915 376.612052 
z
" style="fill:#fadede;stroke:#000000;stroke-linejoin:miter;stroke-width:0.39;"/>
   </g>
   <g id="patch_39">
    <path clip-path="url(#p102f31a645)" d="M 539.335149 450.45 
L 549.212936 450.45 
L 549.212936 358.800891 
L 539.335149 358.800891 
z
" style="fill:#fbe4e4;stroke:#000000;stroke-linejoin:miter;stroke-width:0.39;"/>
   </g>
   <g id="patch_40">
    <path clip-path="url(#p102f31a645)" d="M 551.682383 450.45 
L 561.56017 450.45 
L 561.56017 327.681231 
L 551.682383 327.681231 
z
" style="fill:#fce9e9;stroke:#000000;stroke-linejoin:miter;stroke-width:0.39;"/>
   </g>
   <g id="patch_41">
    <path clip-path="url(#p102f31a645)" d="M 564.029617 450.45 
L 573.907404 450.45 
L 573.907404 111.838461 
L 564.029617 111.838461 
z
" style="fill:#e9fce9;stroke:#000000;stroke-linejoin:miter;stroke-width:0.39;"/>
   </g>
   <g id="patch_42">
    <path clip-path="url(#p102f31a645)" d="M 576.376851 450.45 
L 586.254638 450.45 
L 586.254638 75.503694 
L 576.376851 75.503694 
z
" style="fill:#cdeacd;stroke:#000000;stroke-linejoin:miter;stroke-width:0.39;"/>
   </g>
   <g id="patch_43">
    <path clip-path="url(#p102f31a645)" d="M 588.724085 450.45 
L 598.601872 450.45 
L 598.601872 73.936311 
L 588.724085 73.936311 
z
" style="fill:#b2d9b2;stroke:#000000;stroke-linejoin:miter;stroke-width:0.39;"/>
   </g>
   <g id="patch_44">
    <path clip-path="url(#p102f31a645)" d="M 601.071319 450.45 
L 610.949106 450.45 
L 610.949106 114.802239 
L 601.071319 114.802239 
z
" style="fill:#97c797;stroke:#000000;stroke-linejoin:miter;stroke-width:0.39;"/>
   </g>
   <g id="patch_45">
    <path clip-path="url(#p102f31a645)" d="M 613.418553 450.45 
L 623.29634 450.45 
L 623.29634 197.731003 
L 613.418553 197.731003 
z
" style="fill:#7cb67c;stroke:#000000;stroke-linejoin:miter;stroke-width:0.39;"/>
   </g>
   <g id="patch_46">
    <path clip-path="url(#p102f31a645)" d="M 625.765787 450.45 
L 635.643574 450.45 
L 635.643574 289.66509 
L 625.765787 289.66509 
z
" style="fill:#61a461;stroke:#000000;stroke-linejoin:miter;stroke-width:0.39;"/>
   </g>
   <g id="patch_47">
    <path clip-path="url(#p102f31a645)" d="M 638.113021 450.45 
L 647.990809 450.45 
L 647.990809 371.824412 
L 638.113021 371.824412 
z
" style="fill:#469346;stroke:#000000;stroke-linejoin:miter;stroke-width:0.39;"/>
   </g>
   <g id="patch_48">
    <path clip-path="url(#p102f31a645)" d="M 650.460255 450.45 
L 660.338043 450.45 
L 660.338043 425.343388 
L 650.460255 425.343388 
z
" style="fill:#2a812a;stroke:#000000;stroke-linejoin:miter;stroke-width:0.39;"/>
   </g>
   <g id="patch_49">
    <path clip-path="url(#p102f31a645)" d="M 662.807489 450.45 
L 672.685277 450.45 
L 672.685277 445.519871 
L 662.807489 445.519871 
z
" style="fill:#107010;stroke:#000000;stroke-linejoin:miter;stroke-width:0.39;"/>
   </g>
   <g id="line2d_119">
    <path clip-path="url(#p102f31a645)" style="fill:none;stroke:#424242;stroke-linecap:round;stroke-width:4.095;"/>
   </g>
   <g id="line2d_120">
    <path clip-path="url(#p102f31a645)" style="fill:none;stroke:#424242;stroke-linecap:round;stroke-width:4.095;"/>
   </g>
   <g id="line2d_121">
    <path clip-path="url(#p102f31a645)" style="fill:none;stroke:#424242;stroke-linecap:round;stroke-width:4.095;"/>
   </g>
   <g id="line2d_122">
    <path clip-path="url(#p102f31a645)" style="fill:none;stroke:#424242;stroke-linecap:round;stroke-width:4.095;"/>
   </g>
   <g id="line2d_123">
    <path clip-path="url(#p102f31a645)" style="fill:none;stroke:#424242;stroke-linecap:round;stroke-width:4.095;"/>
   </g>
   <g id="line2d_124">
    <path clip-path="url(#p102f31a645)" style="fill:none;stroke:#424242;stroke-linecap:round;stroke-width:4.095;"/>
   </g>
   <g id="line2d_125">
    <path clip-path="url(#p102f31a645)" style="fill:none;stroke:#424242;stroke-linecap:round;stroke-width:4.095;"/>
   </g>
   <g id="line2d_126">
    <path clip-path="url(#p102f31a645)" style="fill:none;stroke:#424242;stroke-linecap:round;stroke-width:4.095;"/>
   </g>
   <g id="line2d_127">
    <path clip-path="url(#p102f31a645)" style="fill:none;stroke:#424242;stroke-linecap:round;stroke-width:4.095;"/>
   </g>
   <g id="line2d_128">
    <path clip-path="url(#p102f31a645)" style="fill:none;stroke:#424242;stroke-linecap:round;stroke-width:4.095;"/>
   </g>
   <g id="line2d_129">
    <path clip-path="url(#p102f31a645)" style="fill:none;stroke:#424242;stroke-linecap:round;stroke-width:4.095;"/>
   </g>
   <g id="line2d_130">
    <path clip-path="url(#p102f31a645)" style="fill:none;stroke:#424242;stroke-linecap:round;stroke-width:4.095;"/>
   </g>
   <g id="line2d_131">
    <path clip-path="url(#p102f31a645)" style="fill:none;stroke:#424242;stroke-linecap:round;stroke-width:4.095;"/>
   </g>
   <g id="line2d_132">
    <path clip-path="url(#p102f31a645)" style="fill:none;stroke:#424242;stroke-linecap:round;stroke-width:4.095;"/>
   </g>
   <g id="line2d_133">
    <path clip-path="url(#p102f31a645)" style="fill:none;stroke:#424242;stroke-linecap:round;stroke-width:4.095;"/>
   </g>
   <g id="line2d_134">
    <path clip-path="url(#p102f31a645)" style="fill:none;stroke:#424242;stroke-linecap:round;stroke-width:4.095;"/>
   </g>
   <g id="line2d_135">
    <path clip-path="url(#p102f31a645)" style="fill:none;stroke:#424242;stroke-linecap:round;stroke-width:4.095;"/>
   </g>
   <g id="line2d_136">
    <path clip-path="url(#p102f31a645)" style="fill:none;stroke:#424242;stroke-linecap:round;stroke-width:4.095;"/>
   </g>
   <g id="line2d_137">
    <path clip-path="url(#p102f31a645)" style="fill:none;stroke:#424242;stroke-linecap:round;stroke-width:4.095;"/>
   </g>
   <g id="line2d_138">
    <path clip-path="url(#p102f31a645)" style="fill:none;stroke:#424242;stroke-linecap:round;stroke-width:4.095;"/>
   </g>
   <g id="line2d_139">
    <path clip-path="url(#p102f31a645)" style="fill:none;stroke:#424242;stroke-linecap:round;stroke-width:4.095;"/>
   </g>
   <g id="line2d_140">
    <path clip-path="url(#p102f31a645)" style="fill:none;stroke:#424242;stroke-linecap:round;stroke-width:4.095;"/>
   </g>
   <g id="line2d_141">
    <path clip-path="url(#p102f31a645)" style="fill:none;stroke:#424242;stroke-linecap:round;stroke-width:4.095;"/>
   </g>
   <g id="line2d_142">
    <path clip-path="url(#p102f31a645)" style="fill:none;stroke:#424242;stroke-linecap:round;stroke-width:4.095;"/>
   </g>
   <g id="line2d_143">
    <path clip-path="url(#p102f31a645)" style="fill:none;stroke:#424242;stroke-linecap:round;stroke-width:4.095;"/>
   </g>
   <g id="line2d_144">
    <path clip-path="url(#p102f31a645)" style="fill:none;stroke:#424242;stroke-linecap:round;stroke-width:4.095;"/>
   </g>
   <g id="line2d_145">
    <path clip-path="url(#p102f31a645)" style="fill:none;stroke:#424242;stroke-linecap:round;stroke-width:4.095;"/>
   </g>
   <g id="line2d_146">
    <path clip-path="url(#p102f31a645)" style="fill:none;stroke:#424242;stroke-linecap:round;stroke-width:4.095;"/>
   </g>
   <g id="line2d_147">
    <path clip-path="url(#p102f31a645)" style="fill:none;stroke:#424242;stroke-linecap:round;stroke-width:4.095;"/>
   </g>
   <g id="line2d_148">
    <path clip-path="url(#p102f31a645)" style="fill:none;stroke:#424242;stroke-linecap:round;stroke-width:4.095;"/>
   </g>
   <g id="line2d_149">
    <path clip-path="url(#p102f31a645)" style="fill:none;stroke:#424242;stroke-linecap:round;stroke-width:4.095;"/>
   </g>
   <g id="line2d_150">
    <path clip-path="url(#p102f31a645)" style="fill:none;stroke:#424242;stroke-linecap:round;stroke-width:4.095;"/>
   </g>
   <g id="line2d_151">
    <path clip-path="url(#p102f31a645)" style="fill:none;stroke:#424242;stroke-linecap:round;stroke-width:4.095;"/>
   </g>
   <g id="line2d_152">
    <path clip-path="url(#p102f31a645)" style="fill:none;stroke:#424242;stroke-linecap:round;stroke-width:4.095;"/>
   </g>
   <g id="line2d_153">
    <path clip-path="url(#p102f31a645)" style="fill:none;stroke:#424242;stroke-linecap:round;stroke-width:4.095;"/>
   </g>
   <g id="line2d_154">
    <path clip-path="url(#p102f31a645)" style="fill:none;stroke:#424242;stroke-linecap:round;stroke-width:4.095;"/>
   </g>
   <g id="line2d_155">
    <path clip-path="url(#p102f31a645)" style="fill:none;stroke:#424242;stroke-linecap:round;stroke-width:4.095;"/>
   </g>
   <g id="line2d_156">
    <path clip-path="url(#p102f31a645)" style="fill:none;stroke:#424242;stroke-linecap:round;stroke-width:4.095;"/>
   </g>
   <g id="line2d_157">
    <path clip-path="url(#p102f31a645)" style="fill:none;stroke:#424242;stroke-linecap:round;stroke-width:4.095;"/>
   </g>
   <g id="line2d_158">
    <path clip-path="url(#p102f31a645)" style="fill:none;stroke:#424242;stroke-linecap:round;stroke-width:4.095;"/>
   </g>
   <g id="line2d_159">
    <path clip-path="url(#p102f31a645)" style="fill:none;stroke:#424242;stroke-linecap:round;stroke-width:4.095;"/>
   </g>
   <g id="line2d_160">
    <path clip-path="url(#p102f31a645)" style="fill:none;stroke:#424242;stroke-linecap:round;stroke-width:4.095;"/>
   </g>
   <g id="line2d_161">
    <path clip-path="url(#p102f31a645)" style="fill:none;stroke:#424242;stroke-linecap:round;stroke-width:4.095;"/>
   </g>
   <g id="line2d_162">
    <path clip-path="url(#p102f31a645)" style="fill:none;stroke:#424242;stroke-linecap:round;stroke-width:4.095;"/>
   </g>
   <g id="line2d_163">
    <path clip-path="url(#p102f31a645)" style="fill:none;stroke:#424242;stroke-linecap:round;stroke-width:4.095;"/>
   </g>
   <g id="line2d_164">
    <path clip-path="url(#p102f31a645)" style="fill:none;stroke:#424242;stroke-linecap:round;stroke-width:4.095;"/>
   </g>
   <g id="line2d_165">
    <path clip-path="url(#p102f31a645)" style="fill:none;stroke:#424242;stroke-linecap:round;stroke-width:4.095;"/>
   </g>
   <g id="patch_50">
    <path d="M 93.6 450.45 
L 93.6 51.48 
" style="fill:none;"/>
   </g>
   <g id="patch_51">
    <path d="M 673.92 450.45 
L 673.92 51.48 
" style="fill:none;"/>
   </g>
   <g id="patch_52">
    <path d="M 93.6 51.48 
L 673.92 51.48 
" style="fill:none;"/>
   </g>
   <g id="patch_53">
    <path d="M 93.6 450.45 
L 673.92 450.45 
" style="fill:none;"/>
   </g>
   <g id="text_35">
    <!-- Verteilung Punkte am Ende des Spiels bei Strategie "max" -->
    <defs>
     <path d="M 40.4375 6.390625 
Q 35.546875 2.25 31.03125 0.53125 
Q 26.515625 -1.171875 21.34375 -1.171875 
Q 12.796875 -1.171875 8.203125 3 
Q 3.609375 7.171875 3.609375 13.671875 
Q 3.609375 17.484375 5.34375 20.625 
Q 7.078125 23.78125 9.890625 25.6875 
Q 12.703125 27.59375 16.21875 28.5625 
Q 18.796875 29.25 24.03125 29.890625 
Q 34.671875 31.15625 39.703125 32.90625 
Q 39.75 34.71875 39.75 35.203125 
Q 39.75 40.578125 37.25 42.78125 
Q 33.890625 45.75 27.25 45.75 
Q 21.046875 45.75 18.09375 43.578125 
Q 15.140625 41.40625 13.71875 35.890625 
L 5.125 37.0625 
Q 6.296875 42.578125 8.984375 45.96875 
Q 11.671875 49.359375 16.75 51.1875 
Q 21.828125 53.03125 28.515625 53.03125 
Q 35.15625 53.03125 39.296875 51.46875 
Q 43.453125 49.90625 45.40625 47.53125 
Q 47.359375 45.171875 48.140625 41.546875 
Q 48.578125 39.3125 48.578125 33.453125 
L 48.578125 21.734375 
Q 48.578125 9.46875 49.140625 6.21875 
Q 49.703125 2.984375 51.375 0 
L 42.1875 0 
Q 40.828125 2.734375 40.4375 6.390625 
M 39.703125 26.03125 
Q 34.90625 24.078125 25.34375 22.703125 
Q 19.921875 21.921875 17.671875 20.9375 
Q 15.4375 19.96875 14.203125 18.09375 
Q 12.984375 16.21875 12.984375 13.921875 
Q 12.984375 10.40625 15.640625 8.0625 
Q 18.3125 5.71875 23.4375 5.71875 
Q 28.515625 5.71875 32.46875 7.9375 
Q 36.421875 10.15625 38.28125 14.015625 
Q 39.703125 17 39.703125 22.796875 
z
" id="ArialMT-61"/>
     <path d="M 7.03125 46.234375 
L 4.59375 59.859375 
L 4.59375 71.578125 
L 14.59375 71.578125 
L 14.59375 59.859375 
L 12.40625 46.234375 
z
M 23.1875 46.234375 
L 20.796875 59.859375 
L 20.796875 71.578125 
L 30.8125 71.578125 
L 30.8125 59.859375 
L 28.46875 46.234375 
z
" id="ArialMT-22"/>
     <path d="M 6.390625 0 
L 6.390625 71.578125 
L 15.1875 71.578125 
L 15.1875 0 
z
" id="ArialMT-6c"/>
     <path d="M 7.90625 0 
L 7.90625 71.578125 
L 59.671875 71.578125 
L 59.671875 63.140625 
L 17.390625 63.140625 
L 17.390625 41.21875 
L 56.984375 41.21875 
L 56.984375 32.8125 
L 17.390625 32.8125 
L 17.390625 8.453125 
L 61.328125 8.453125 
L 61.328125 0 
z
" id="ArialMT-45"/>
     <path d="M 6.59375 0 
L 6.59375 51.859375 
L 14.453125 51.859375 
L 14.453125 44.578125 
Q 16.890625 48.390625 20.9375 50.703125 
Q 25 53.03125 30.171875 53.03125 
Q 35.9375 53.03125 39.625 50.640625 
Q 43.3125 48.25 44.828125 43.953125 
Q 50.984375 53.03125 60.84375 53.03125 
Q 68.5625 53.03125 72.703125 48.75 
Q 76.859375 44.484375 76.859375 35.59375 
L 76.859375 0 
L 68.109375 0 
L 68.109375 32.671875 
Q 68.109375 37.9375 67.25 40.25 
Q 66.40625 42.578125 64.15625 43.984375 
Q 61.921875 45.40625 58.890625 45.40625 
Q 53.421875 45.40625 49.796875 41.765625 
Q 46.1875 38.140625 46.1875 30.125 
L 46.1875 0 
L 37.40625 0 
L 37.40625 33.6875 
Q 37.40625 39.546875 35.25 42.46875 
Q 33.109375 45.40625 28.21875 45.40625 
Q 24.515625 45.40625 21.359375 43.453125 
Q 18.21875 41.5 16.796875 37.734375 
Q 15.375 33.984375 15.375 26.90625 
L 15.375 0 
z
" id="ArialMT-6d"/>
     <path d="M 14.703125 0 
L 6.546875 0 
L 6.546875 71.578125 
L 15.328125 71.578125 
L 15.328125 46.046875 
Q 20.90625 53.03125 29.546875 53.03125 
Q 34.328125 53.03125 38.59375 51.09375 
Q 42.875 49.171875 45.625 45.671875 
Q 48.390625 42.1875 49.953125 37.25 
Q 51.515625 32.328125 51.515625 26.703125 
Q 51.515625 13.375 44.921875 6.09375 
Q 38.328125 -1.171875 29.109375 -1.171875 
Q 19.921875 -1.171875 14.703125 6.5 
z
M 14.59375 26.3125 
Q 14.59375 17 17.140625 12.84375 
Q 21.296875 6.0625 28.375 6.0625 
Q 34.125 6.0625 38.328125 11.0625 
Q 42.53125 16.0625 42.53125 25.984375 
Q 42.53125 36.140625 38.5 40.96875 
Q 34.46875 45.796875 28.765625 45.796875 
Q 23 45.796875 18.796875 40.796875 
Q 14.59375 35.796875 14.59375 26.3125 
" id="ArialMT-62"/>
     <path d="M 6.5 0 
L 6.5 51.859375 
L 14.40625 51.859375 
L 14.40625 44 
Q 17.4375 49.515625 20 51.265625 
Q 22.5625 53.03125 25.640625 53.03125 
Q 30.078125 53.03125 34.671875 50.203125 
L 31.640625 42.046875 
Q 28.421875 43.953125 25.203125 43.953125 
Q 22.3125 43.953125 20.015625 42.21875 
Q 17.71875 40.484375 16.75 37.40625 
Q 15.28125 32.71875 15.28125 27.15625 
L 15.28125 0 
z
" id="ArialMT-72"/>
     <path d="M 0.734375 0 
L 19.671875 26.953125 
L 2.15625 51.859375 
L 13.140625 51.859375 
L 21.09375 39.703125 
Q 23.34375 36.234375 24.703125 33.890625 
Q 26.859375 37.109375 28.65625 39.59375 
L 37.40625 51.859375 
L 47.90625 51.859375 
L 29.984375 27.4375 
L 49.265625 0 
L 38.484375 0 
L 27.828125 16.109375 
L 25 20.453125 
L 11.375 0 
z
" id="ArialMT-78"/>
     <path d="M 28.171875 0 
L 0.4375 71.578125 
L 10.6875 71.578125 
L 29.296875 19.578125 
Q 31.546875 13.328125 33.0625 7.859375 
Q 34.71875 13.71875 36.921875 19.578125 
L 56.25 71.578125 
L 65.921875 71.578125 
L 37.890625 0 
z
" id="ArialMT-56"/>
     <path d="M 6.59375 -19.875 
L 6.59375 51.859375 
L 14.59375 51.859375 
L 14.59375 45.125 
Q 17.4375 49.078125 21 51.046875 
Q 24.5625 53.03125 29.640625 53.03125 
Q 36.28125 53.03125 41.359375 49.609375 
Q 46.4375 46.1875 49.015625 39.953125 
Q 51.609375 33.734375 51.609375 26.3125 
Q 51.609375 18.359375 48.75 11.984375 
Q 45.90625 5.609375 40.453125 2.21875 
Q 35.015625 -1.171875 29 -1.171875 
Q 24.609375 -1.171875 21.109375 0.6875 
Q 17.625 2.546875 15.375 5.375 
L 15.375 -19.875 
z
M 14.546875 25.640625 
Q 14.546875 15.625 18.59375 10.84375 
Q 22.65625 6.0625 28.421875 6.0625 
Q 34.28125 6.0625 38.453125 11.015625 
Q 42.625 15.96875 42.625 26.375 
Q 42.625 36.28125 38.546875 41.203125 
Q 34.46875 46.140625 28.8125 46.140625 
Q 23.1875 46.140625 18.859375 40.890625 
Q 14.546875 35.640625 14.546875 25.640625 
" id="ArialMT-70"/>
     <path d="M 40.234375 0 
L 40.234375 6.546875 
Q 35.296875 -1.171875 25.734375 -1.171875 
Q 19.53125 -1.171875 14.328125 2.25 
Q 9.125 5.671875 6.265625 11.796875 
Q 3.421875 17.921875 3.421875 25.875 
Q 3.421875 33.640625 6 39.96875 
Q 8.59375 46.296875 13.765625 49.65625 
Q 18.953125 53.03125 25.34375 53.03125 
Q 30.03125 53.03125 33.6875 51.046875 
Q 37.359375 49.078125 39.65625 45.90625 
L 39.65625 71.578125 
L 48.390625 71.578125 
L 48.390625 0 
z
M 12.453125 25.875 
Q 12.453125 15.921875 16.640625 10.984375 
Q 20.84375 6.0625 26.5625 6.0625 
Q 32.328125 6.0625 36.34375 10.765625 
Q 40.375 15.484375 40.375 25.140625 
Q 40.375 35.796875 36.265625 40.765625 
Q 32.171875 45.75 26.171875 45.75 
Q 20.3125 45.75 16.375 40.96875 
Q 12.453125 36.1875 12.453125 25.875 
" id="ArialMT-64"/>
     <path d="M 3.078125 15.484375 
L 11.765625 16.84375 
Q 12.5 11.625 15.84375 8.84375 
Q 19.1875 6.0625 25.203125 6.0625 
Q 31.25 6.0625 34.171875 8.515625 
Q 37.109375 10.984375 37.109375 14.3125 
Q 37.109375 17.28125 34.515625 19 
Q 32.71875 20.171875 25.53125 21.96875 
Q 15.875 24.421875 12.140625 26.203125 
Q 8.40625 27.984375 6.46875 31.125 
Q 4.546875 34.28125 4.546875 38.09375 
Q 4.546875 41.546875 6.125 44.5 
Q 7.71875 47.46875 10.453125 49.421875 
Q 12.5 50.921875 16.03125 51.96875 
Q 19.578125 53.03125 23.640625 53.03125 
Q 29.734375 53.03125 34.34375 51.265625 
Q 38.96875 49.515625 41.15625 46.5 
Q 43.359375 43.5 44.1875 38.484375 
L 35.59375 37.3125 
Q 35.015625 41.3125 32.203125 43.546875 
Q 29.390625 45.796875 24.265625 45.796875 
Q 18.21875 45.796875 15.625 43.796875 
Q 13.03125 41.796875 13.03125 39.109375 
Q 13.03125 37.40625 14.109375 36.03125 
Q 15.1875 34.625 17.484375 33.6875 
Q 18.796875 33.203125 25.25 31.453125 
Q 34.578125 28.953125 38.25 27.359375 
Q 41.9375 25.78125 44.03125 22.75 
Q 46.140625 19.734375 46.140625 15.234375 
Q 46.140625 10.84375 43.578125 6.953125 
Q 41.015625 3.078125 36.171875 0.953125 
Q 31.34375 -1.171875 25.25 -1.171875 
Q 15.140625 -1.171875 9.84375 3.03125 
Q 4.546875 7.234375 3.078125 15.484375 
" id="ArialMT-73"/>
     <path d="M 4.5 23 
L 13.421875 23.78125 
Q 14.0625 18.40625 16.375 14.96875 
Q 18.703125 11.53125 23.578125 9.40625 
Q 28.46875 7.28125 34.578125 7.28125 
Q 39.984375 7.28125 44.140625 8.890625 
Q 48.296875 10.5 50.3125 13.296875 
Q 52.34375 16.109375 52.34375 19.4375 
Q 52.34375 22.796875 50.390625 25.3125 
Q 48.4375 27.828125 43.953125 29.546875 
Q 41.0625 30.671875 31.203125 33.03125 
Q 21.34375 35.40625 17.390625 37.5 
Q 12.25 40.1875 9.734375 44.15625 
Q 7.234375 48.140625 7.234375 53.078125 
Q 7.234375 58.5 10.296875 63.203125 
Q 13.375 67.921875 19.28125 70.359375 
Q 25.203125 72.796875 32.421875 72.796875 
Q 40.375 72.796875 46.453125 70.234375 
Q 52.546875 67.671875 55.8125 62.6875 
Q 59.078125 57.71875 59.328125 51.421875 
L 50.25 50.734375 
Q 49.515625 57.515625 45.28125 60.984375 
Q 41.0625 64.453125 32.8125 64.453125 
Q 24.21875 64.453125 20.28125 61.296875 
Q 16.359375 58.15625 16.359375 53.71875 
Q 16.359375 49.859375 19.140625 47.359375 
Q 21.875 44.875 33.421875 42.265625 
Q 44.96875 39.65625 49.265625 37.703125 
Q 55.515625 34.8125 58.484375 30.390625 
Q 61.46875 25.984375 61.46875 20.21875 
Q 61.46875 14.5 58.203125 9.4375 
Q 54.9375 4.390625 48.796875 1.578125 
Q 42.671875 -1.21875 35.015625 -1.21875 
Q 25.296875 -1.21875 18.71875 1.609375 
Q 12.15625 4.4375 8.421875 10.125 
Q 4.6875 15.828125 4.5 23 
" id="ArialMT-53"/>
    </defs>
    <g style="fill:#262626;" transform="translate(151.26046875 46.48)scale(0.18 -0.18)">
     <use xlink:href="#ArialMT-56"/>
     <use x="66.62109375" xlink:href="#ArialMT-65"/>
     <use x="122.236328125" xlink:href="#ArialMT-72"/>
     <use x="155.537109375" xlink:href="#ArialMT-74"/>
     <use x="183.3203125" xlink:href="#ArialMT-65"/>
     <use x="238.935546875" xlink:href="#ArialMT-69"/>
     <use x="261.15234375" xlink:href="#ArialMT-6c"/>
     <use x="283.369140625" xlink:href="#ArialMT-75"/>
     <use x="338.984375" xlink:href="#ArialMT-6e"/>
     <use x="394.599609375" xlink:href="#ArialMT-67"/>
     <use x="450.21484375" xlink:href="#ArialMT-20"/>
     <use x="477.998046875" xlink:href="#ArialMT-50"/>
     <use x="544.697265625" xlink:href="#ArialMT-75"/>
     <use x="600.3125" xlink:href="#ArialMT-6e"/>
     <use x="655.927734375" xlink:href="#ArialMT-6b"/>
     <use x="705.927734375" xlink:href="#ArialMT-74"/>
     <use x="733.7109375" xlink:href="#ArialMT-65"/>
     <use x="789.326171875" xlink:href="#ArialMT-20"/>
     <use x="817.109375" xlink:href="#ArialMT-61"/>
     <use x="872.724609375" xlink:href="#ArialMT-6d"/>
     <use x="956.025390625" xlink:href="#ArialMT-20"/>
     <use x="983.80859375" xlink:href="#ArialMT-45"/>
     <use x="1050.5078125" xlink:href="#ArialMT-6e"/>
     <use x="1106.123046875" xlink:href="#ArialMT-64"/>
     <use x="1161.73828125" xlink:href="#ArialMT-65"/>
     <use x="1217.353515625" xlink:href="#ArialMT-20"/>
     <use x="1245.13671875" xlink:href="#ArialMT-64"/>
     <use x="1300.751953125" xlink:href="#ArialMT-65"/>
     <use x="1356.3671875" xlink:href="#ArialMT-73"/>
     <use x="1406.3671875" xlink:href="#ArialMT-20"/>
     <use x="1434.150390625" xlink:href="#ArialMT-53"/>
     <use x="1500.849609375" xlink:href="#ArialMT-70"/>
     <use x="1556.46484375" xlink:href="#ArialMT-69"/>
     <use x="1578.681640625" xlink:href="#ArialMT-65"/>
     <use x="1634.296875" xlink:href="#ArialMT-6c"/>
     <use x="1656.513671875" xlink:href="#ArialMT-73"/>
     <use x="1706.513671875" xlink:href="#ArialMT-20"/>
     <use x="1734.296875" xlink:href="#ArialMT-62"/>
     <use x="1789.912109375" xlink:href="#ArialMT-65"/>
     <use x="1845.52734375" xlink:href="#ArialMT-69"/>
     <use x="1867.744140625" xlink:href="#ArialMT-20"/>
     <use x="1895.52734375" xlink:href="#ArialMT-53"/>
     <use x="1962.2265625" xlink:href="#ArialMT-74"/>
     <use x="1990.009765625" xlink:href="#ArialMT-72"/>
     <use x="2023.310546875" xlink:href="#ArialMT-61"/>
     <use x="2078.92578125" xlink:href="#ArialMT-74"/>
     <use x="2106.708984375" xlink:href="#ArialMT-65"/>
     <use x="2162.32421875" xlink:href="#ArialMT-67"/>
     <use x="2217.939453125" xlink:href="#ArialMT-69"/>
     <use x="2240.15625" xlink:href="#ArialMT-65"/>
     <use x="2295.771484375" xlink:href="#ArialMT-20"/>
     <use x="2323.5546875" xlink:href="#ArialMT-22"/>
     <use x="2359.052734375" xlink:href="#ArialMT-6d"/>
     <use x="2442.353515625" xlink:href="#ArialMT-61"/>
     <use x="2497.96875" xlink:href="#ArialMT-78"/>
     <use x="2547.96875" xlink:href="#ArialMT-22"/>
    </g>
   </g>
  </g>
 </g>
 <defs>
  <clipPath id="p102f31a645">
   <rect height="398.97" width="580.32" x="93.6" y="51.48"/>
  </clipPath>
 </defs>
</svg>
